<svg width="200" height="150" viewBox="0 0 200 150" fill="none" xmlns="http://www.w3.org/2000/svg">
<g clip-path="url(#clip0_26_96)">
<path d="M200 3.12155H80.0588V57.1501H200V3.12155Z" fill="#E6E6E6"/>
<path d="M196.57 7.75459H83.4886V52.8323H196.57V7.75459Z" fill="white"/>
<path d="M199.949 0H80.0078V4.83711H199.949V0Z" fill="#6C63FF"/>
<path d="M83.7943 3.74087C84.3159 3.74087 84.7387 3.33948 84.7387 2.84433C84.7387 2.34918 84.3159 1.94779 83.7943 1.94779C83.2727 1.94779 82.8499 2.34918 82.8499 2.84433C82.8499 3.33948 83.2727 3.74087 83.7943 3.74087Z" fill="white"/>
<path d="M87.379 3.74087C87.9006 3.74087 88.3234 3.33948 88.3234 2.84433C88.3234 2.34918 87.9006 1.94779 87.379 1.94779C86.8574 1.94779 86.4346 2.34918 86.4346 2.84433C86.4346 3.33948 86.8574 3.74087 87.379 3.74087Z" fill="white"/>
<path d="M90.964 3.74087C91.4855 3.74087 91.9084 3.33948 91.9084 2.84433C91.9084 2.34918 91.4855 1.94779 90.964 1.94779C90.4424 1.94779 90.0195 2.34918 90.0195 2.84433C90.0195 3.33948 90.4424 3.74087 90.964 3.74087Z" fill="white"/>
<path d="M169.948 15.0488H151.148V45.5386H169.948V15.0488Z" fill="#F2F2F2"/>
<path d="M148.033 15.0483H110.111V23.441H148.033V15.0483Z" fill="#6C63FF"/>
<path d="M148.033 25.7782H110.111V34.8082H148.033V25.7782Z" fill="#F2F2F2"/>
<path d="M148.033 37.1454H110.111V45.5381H148.033V37.1454Z" fill="#F2F2F2"/>
<path d="M57.2239 90.1521C57.2275 89.534 57.0935 88.9221 56.8307 88.3566C56.5679 87.7911 56.1822 87.2847 55.6988 86.8705C55.2155 86.4564 54.6454 86.1439 54.026 85.9534C53.4065 85.763 52.7517 85.6989 52.1044 85.7655C51.8996 85.7875 51.6966 85.823 51.497 85.8717L35.8553 73.1441L36.79 68.3613L29.0805 65.9895L26.756 73.6542C26.481 74.574 26.5258 75.5536 26.8837 76.4474C27.2416 77.3412 27.8936 78.1016 28.7428 78.6158L47.9848 90.169C47.9849 90.3127 47.9928 90.4563 48.0085 90.5992C48.0787 91.2138 48.285 91.8073 48.6137 92.3409C48.9425 92.8745 49.3863 93.3362 49.9161 93.6956C50.4459 94.055 51.0497 94.3041 51.688 94.4266C52.3262 94.549 52.9846 94.5421 53.6198 94.4061C53.8045 94.3673 53.9863 94.3175 54.1644 94.2569C55.0549 93.9512 55.8256 93.394 56.3725 92.6601C56.9195 91.9263 57.2166 91.051 57.2239 90.1521Z" fill="#E3B180"/>
<path d="M18.3366 104.913H38.5039C38.5039 105.464 59.2888 105.91 59.2888 105.91C59.615 106.143 59.9123 106.411 60.1751 106.708C60.9645 107.602 61.396 108.731 61.3934 109.898V110.695C61.3929 112.017 60.8395 113.285 59.8549 114.219C58.8703 115.154 57.535 115.679 56.1426 115.68H18.3366C16.9444 115.679 15.6095 115.153 14.6251 114.219C13.6406 113.284 13.087 112.017 13.0858 110.695V109.898C13.0877 108.576 13.6416 107.31 14.6259 106.375C15.6102 105.441 16.9446 104.915 18.3366 104.913Z" fill="#3F3D56"/>
<path d="M40.2741 115.482H34.8132V148.978H40.2741V115.482Z" fill="#3F3D56"/>
<path d="M55.8165 149.395C55.8165 150.022 47.5414 149.638 37.3336 149.638C27.1258 149.638 18.8507 150.022 18.8507 149.395C18.8507 148.768 27.1258 143.795 37.3336 143.795C47.5414 143.795 55.8165 148.768 55.8165 149.395Z" fill="#3F3D56"/>
<path d="M50.8869 144.87L56.0365 144.87L58.4866 132.19L50.8859 132.191L50.8869 144.87Z" fill="#E3B180"/>
<path d="M49.5733 149.609L66.1787 149.609V149.409C66.1787 148.604 66.0116 147.806 65.6868 147.061C65.362 146.317 64.8859 145.641 64.2858 145.071C63.6856 144.501 62.9731 144.049 62.189 143.741C61.4049 143.432 60.5644 143.274 59.7157 143.274H59.715L49.573 143.274L49.5733 149.609Z" fill="#2F2E41"/>
<path d="M58.5894 137.007L68.8562 115.152C69.7133 113.31 69.8081 111.229 69.1216 109.323C68.4351 107.418 67.0177 105.828 65.1518 104.87L42.8826 93.5339L32.7207 92.7134L23.3471 91.9045L23.2795 92.0132C23.193 92.1518 21.1776 95.4564 22.54 99.08C23.5733 101.829 26.2613 103.975 30.5291 105.461C40.4907 108.929 51.9983 111.892 56.4835 113.005C56.6817 113.053 56.8669 113.141 57.027 113.262C57.1871 113.382 57.3184 113.534 57.4123 113.707C57.5065 113.877 57.5624 114.065 57.5766 114.257C57.5908 114.449 57.5629 114.641 57.4948 114.823L47.9565 135.166C47.8569 135.424 47.8211 135.7 47.8517 135.973C47.8824 136.247 47.9787 136.51 48.1333 136.742C48.2879 136.974 48.4967 137.17 48.7435 137.313C48.9903 137.457 49.2685 137.545 49.5567 137.57L56.6838 138.063C56.7443 138.068 56.8045 138.071 56.8645 138.071C57.2295 138.071 57.5867 137.97 57.8928 137.782C58.1989 137.593 58.4408 137.324 58.5894 137.007Z" fill="#CBCBCB"/>
<path d="M47.5262 144.87L52.6757 144.87L55.1261 132.19L47.5254 132.191L47.5262 144.87Z" fill="#E3B180"/>
<path d="M46.2128 149.609L62.8183 149.609V149.409C62.8183 148.604 62.6511 147.806 62.3263 147.061C62.0015 146.317 61.5255 145.641 60.9253 145.071C60.3252 144.501 59.6127 144.049 58.8285 143.741C58.0444 143.432 57.2039 143.274 56.3552 143.274H56.3545L46.2125 143.274L46.2128 149.609Z" fill="#2F2E41"/>
<path d="M54.8087 138.204L65.0755 116.348C65.9327 114.506 66.0275 112.425 65.341 110.52C64.6545 108.614 63.2371 107.024 61.3711 106.066L39.102 94.7302L28.9401 93.9097L21.5982 93.3051L21.5992 93.2095C21.5127 93.3481 19.4973 96.6528 20.8597 100.276C21.893 103.025 22.4806 105.172 26.7485 106.657C36.7101 110.125 48.2177 113.088 52.7029 114.201C52.9011 114.249 53.0863 114.337 53.2464 114.458C53.4065 114.579 53.5378 114.731 53.6317 114.903C53.7258 115.074 53.7818 115.261 53.7959 115.453C53.8101 115.645 53.7823 115.838 53.7142 116.019L44.1759 136.362C44.0763 136.62 44.0404 136.896 44.0711 137.17C44.1017 137.443 44.1981 137.706 44.3527 137.938C44.5073 138.171 44.716 138.366 44.9628 138.51C45.2096 138.653 45.4879 138.741 45.7761 138.766L52.9032 139.259C52.9637 139.265 53.0239 139.267 53.0839 139.267C53.4489 139.267 53.806 139.167 54.1121 138.978C54.4182 138.789 54.6602 138.52 54.8087 138.204Z" fill="#CBCBCB"/>
<path d="M35.4604 93.7039C35.9527 93.3733 43.0216 96.894 44.2818 94.1026C38.4009 80.1457 42.4535 74.1189 38.8511 66.1153C38.2166 64.7348 37.2608 63.5089 36.0554 62.5295C34.8501 61.5502 33.4266 60.8429 31.8919 60.4609L22.5457 60.013L22.4972 60.0352C20.3882 61.0158 18.6682 62.6156 17.5923 64.5972C16.5164 66.5789 16.1418 68.8369 16.5242 71.0366C16.5574 79.747 22.0474 86.3903 20.1278 92.7081C20.0473 92.9722 20.0238 93.2491 20.0587 93.522C20.0937 93.795 20.1863 94.0584 20.331 94.2966C20.4714 94.5268 20.66 94.7272 20.8851 94.8856C21.1101 95.0439 21.367 95.1569 21.6399 95.2174L33.9808 93.6546C34.269 93.7197 34.5686 93.7257 34.8596 93.6723C35.1505 93.6188 35.4261 93.5071 35.668 93.3446L35.4604 93.7039Z" fill="#2F2E41"/>
<path d="M25.6647 56.6991C31.3627 56.6991 35.9819 52.3141 35.9819 46.905C35.9819 41.4958 31.3627 37.1108 25.6647 37.1108C19.9666 37.1108 15.3474 41.4958 15.3474 46.905C15.3474 52.3141 19.9666 56.6991 25.6647 56.6991Z" fill="#E3B180"/>
<path d="M22.3785 55.8948C22.9266 56.1225 24.0492 51.9759 23.5464 51.1466C22.7985 49.9132 22.8427 49.9221 22.3463 49.1061C21.8499 48.2901 21.7388 47.1732 22.3817 46.4552C23.0245 45.7373 24.5122 45.8325 24.8056 46.7327C24.6169 45.0229 26.3985 43.6484 28.1632 43.2622C29.9279 42.8759 31.7894 43.1157 33.5639 42.772C35.6232 42.3731 37.7659 40.7344 36.9442 38.5847C36.8032 38.2268 36.5921 37.8974 36.3221 37.614C35.3728 36.6008 34.0448 36.1681 32.7464 35.7498C30.0454 34.8795 27.2704 33.9983 24.4199 34.0943C19.7361 34.2522 15.3088 37.3258 13.7307 41.5151C13.5343 42.0378 13.3821 42.5746 13.2756 43.1203C12.2972 48.1146 15.3523 53.0408 20.3143 54.9426L22.3785 55.8948Z" fill="#2F2E41"/>
<path d="M76.4839 71.6446L77.6671 78.3135C77.6803 78.3878 77.6716 78.4642 77.6421 78.5342L68.3601 100.551C68.3233 100.638 68.2562 100.711 68.1698 100.757C68.0835 100.803 67.9832 100.819 67.8857 100.803C67.7882 100.787 67.6994 100.74 67.634 100.67C67.5686 100.599 67.5307 100.51 67.5265 100.416L67.1333 91.5683C67.1307 91.5096 67.1414 91.451 67.1647 91.3965L75.6569 71.5582C75.6923 71.4754 75.7552 71.4059 75.8361 71.3601C75.9169 71.3144 76.0112 71.2949 76.1048 71.3047C76.1983 71.3145 76.286 71.3529 76.3544 71.4143C76.4228 71.4756 76.4683 71.5565 76.4839 71.6446Z" fill="#3F3D56"/>
<path d="M75.8268 72.1565L76.951 77.8858L68.714 97.9768L67.6445 91.5139L75.8268 72.1565Z" fill="#6C63FF"/>
<path d="M39.7882 100.449C39.9909 101.2 66.5993 102.013 66.8752 101.785C67.1228 101.494 67.3373 101.179 67.5153 100.846C67.7941 100.373 68.0523 99.8986 68.0523 99.8986L67.6149 91.9101L41.4037 89.251C41.4037 89.251 40.2441 95.9174 39.8801 98.9801C39.7978 99.4655 39.7671 99.9575 39.7882 100.449Z" fill="#3F3D56"/>
<path opacity="0.1" d="M64.1856 92.7553L64.188 99.6377L52.5948 98.8553L53.1078 92.0076L64.1856 92.7553Z" fill="black"/>
<path opacity="0.1" d="M49.0786 93.9476L49.1487 93.9393L48.6013 96.8651L42.1606 96.4304L42.3805 93.4955L49.0786 93.9476Z" fill="black"/>
<path opacity="0.1" d="M39.7882 100.449C39.9909 101.2 66.5993 102.013 66.8752 101.785C67.1228 101.494 67.3373 101.179 67.5153 100.846L39.8801 98.9801C39.7978 99.4655 39.7671 99.9575 39.7882 100.449Z" fill="black"/>
<path d="M29.1039 88.5194L51.5492 92.4958C51.6054 92.6292 51.6687 92.7598 51.739 92.8871C52.044 93.4318 52.4663 93.9094 52.9785 94.2891C53.4906 94.6687 54.0812 94.9418 54.7118 95.0906C55.3449 95.2417 56.0048 95.2628 56.6471 95.1523C57.2895 95.0418 57.8996 94.8023 58.4366 94.4499C59.4094 93.816 60.0898 92.8528 60.3385 91.7579C60.5872 90.6629 60.3853 89.5192 59.7741 88.561C59.163 87.6029 58.1889 86.903 57.0516 86.6047C55.9143 86.3064 54.6999 86.4324 53.6573 86.9569C53.4757 87.0494 53.3011 87.1538 53.1347 87.2693L33.6393 80.9471L32.6414 76.1758L24.5548 76.6837L25.3927 84.6821C25.4944 85.6155 25.9104 86.4929 26.5789 87.1842C27.2474 87.8754 28.1329 88.3437 29.1039 88.5194Z" fill="#E3B180"/>
<path d="M24.2809 80.2512L36.0314 76.585L33.2904 69.1139C32.9264 68.1218 32.2047 67.2838 31.2529 66.748C30.301 66.2121 29.1803 66.013 28.0887 66.1857C26.9845 66.3604 25.9825 66.9042 25.2636 67.7188C24.5448 68.5334 24.1565 69.5652 24.1689 70.6279L24.2809 80.2512Z" fill="#2F2E41"/>
<path d="M98.8211 150H0.258694C0.190084 150 0.124284 149.974 0.0757695 149.928C0.027255 149.882 0 149.82 0 149.754C0 149.689 0.027255 149.627 0.0757695 149.581C0.124284 149.535 0.190084 149.509 0.258694 149.509H98.8211C98.8897 149.509 98.9555 149.535 99.004 149.581C99.0525 149.627 99.0798 149.689 99.0798 149.754C99.0798 149.82 99.0525 149.882 99.004 149.928C98.9555 149.974 98.8897 150 98.8211 150Z" fill="#CBCBCB"/>
<path d="M137.161 142.263C141.889 144.585 143.991 149.642 143.991 149.642C143.991 149.642 138.428 150.933 133.701 148.611C128.973 146.288 126.871 141.231 126.871 141.231C126.871 141.231 132.434 139.94 137.161 142.263Z" fill="#F1F1F1"/>
<path d="M135.65 143.936C138.471 148.221 143.95 149.8 143.95 149.8C143.95 149.8 144.856 144.433 142.035 140.147C139.214 135.862 133.734 134.283 133.734 134.283C133.734 134.283 132.829 139.651 135.65 143.936Z" fill="#F1F1F1"/>
<path d="M152.629 149.903H123.138C123.07 149.903 123.004 149.877 122.955 149.831C122.907 149.785 122.88 149.722 122.88 149.657C122.88 149.592 122.907 149.529 122.955 149.483C123.004 149.437 123.07 149.411 123.138 149.411H152.629C152.698 149.411 152.764 149.437 152.812 149.483C152.861 149.529 152.888 149.592 152.888 149.657C152.888 149.722 152.861 149.785 152.812 149.831C152.764 149.877 152.698 149.903 152.629 149.903Z" fill="#CBCBCB"/>
</g>
<defs>
<clipPath id="clip0_26_96">
<rect width="200" height="150" fill="white"/>
</clipPath>
</defs>
</svg>
