<svg width="200" height="150" viewBox="0 0 200 150" fill="none" xmlns="http://www.w3.org/2000/svg">
<g clip-path="url(#clip0_26_132)">
<path d="M98.9718 25.5002C102.323 25.5002 105.039 22.3885 105.039 18.5501C105.039 14.7117 102.323 11.6001 98.9718 11.6001C95.6209 11.6001 92.9045 14.7117 92.9045 18.5501C92.9045 22.3885 95.6209 25.5002 98.9718 25.5002Z" fill="#FD6584"/>
<path d="M112.551 15.2592C112.38 14.6165 112.048 14.0451 111.597 13.6155C111.146 13.1858 110.595 12.9166 110.013 12.841C109.999 12.8397 109.985 12.8397 109.972 12.841C109.955 12.8352 109.939 12.8308 109.922 12.828C107.89 12.5261 105.632 13.2601 104.111 14.8583C103.547 15.4422 103.096 16.1551 102.787 16.9511C102.505 16.5101 102.133 16.1546 101.705 15.9151C101.276 15.6756 100.803 15.5595 100.326 15.5767C99.7108 15.6233 99.1233 15.886 98.6435 16.329C98.1636 16.7719 97.8147 17.3737 97.6444 18.0521C97.6256 18.135 97.6308 18.2226 97.659 18.3019C97.6873 18.3811 97.7371 18.4478 97.8012 18.492C97.9839 18.6711 98.2012 18.7977 98.4351 18.8616C98.9373 18.984 99.444 19.0959 99.9508 19.1974C100.941 19.3952 101.938 19.5557 102.939 19.6789C103.6 19.7596 104.263 19.8238 104.927 19.8716C106.3 19.9705 107.679 19.9939 109.054 19.9444C109.735 19.9184 110.39 19.8924 111.012 19.5488C111.466 19.2932 111.854 18.9065 112.137 18.4269C112.404 17.9656 112.579 17.4429 112.651 16.8956C112.722 16.3483 112.688 15.7897 112.551 15.2592Z" fill="#E6E6E6"/>
<path d="M100.069 25.3846C100.057 25.0934 100.015 24.8049 99.9417 24.5256C99.7698 23.883 99.4378 23.3118 98.9865 22.8823C98.5352 22.4527 97.9842 22.1834 97.4012 22.1075C97.3884 22.1062 97.3755 22.1062 97.3626 22.1075C97.3454 22.1019 97.328 22.0976 97.3103 22.0945C96.186 21.9367 95.0451 22.0711 93.9723 22.4875C92.3226 23.12 90.8752 24.3955 90.1776 26.2175C89.8955 25.7763 89.5237 25.4206 89.0945 25.1811C88.6653 24.9416 88.1915 24.8256 87.7144 24.8432C87.0994 24.8897 86.512 25.1524 86.0322 25.5954C85.5523 26.0384 85.2034 26.6401 85.033 27.3186C85.0154 27.4015 85.021 27.4886 85.0492 27.5676C85.0773 27.6466 85.1266 27.7134 85.1898 27.7585C85.3729 27.937 85.5901 28.0637 85.8238 28.1281C86.3283 28.2504 86.8327 28.3624 87.3417 28.4639C88.3324 28.6617 89.3277 28.8222 90.3275 28.9454C92.3588 29.1952 94.4027 29.2839 96.4446 29.2109C97.124 29.1849 97.7807 29.1588 98.4033 28.8153C98.8564 28.5596 99.2433 28.1729 99.5258 27.6934C99.9242 27.0134 100.115 26.2017 100.069 25.3846Z" fill="#E6E6E6"/>
<path d="M179.088 109.717C179.176 114.456 178.605 119.18 177.397 123.714C177.355 123.878 177.304 124.043 177.253 124.208H152.359C152.715 122.2 153.28 120.249 154.042 118.396C156.114 113.359 159.496 109.048 162.836 104.767C167.436 98.8681 171.926 93.0176 172.637 85.3461C174.46 88.5302 175.915 91.9717 176.966 95.5845C175.68 96.1304 174.499 96.9596 173.491 98.0254C173.212 98.3257 172.916 98.7616 173.059 99.1781C173.195 99.5268 173.567 99.6431 173.896 99.7205C174.691 99.8949 175.486 100.069 176.281 100.234C176.907 100.379 177.541 100.515 178.175 100.65C178.733 103.632 179.038 106.668 179.088 109.717Z" fill="#F2F2F2"/>
<path d="M200 106.578C196.009 109.358 193.472 113.659 191.4 118.473C189.598 118.944 187.933 119.946 186.572 121.379C186.285 121.679 185.989 122.115 186.141 122.532C186.268 122.881 186.648 122.997 186.978 123.074C187.764 123.249 188.568 123.423 189.354 123.588C189.278 123.791 189.202 124.004 189.126 124.208H162.743C163.941 122.357 165.267 120.621 166.709 119.016C167.022 118.657 167.343 118.318 167.673 117.97C171.036 114.488 174.898 111.696 179.089 109.717C185.69 106.555 192.91 105.472 200 106.578Z" fill="#F2F2F2"/>
<path d="M167.14 124.208H143.649C143.521 122.053 143.532 119.89 143.683 117.737C144.622 104.438 150.938 91.7681 160.468 84.0965C159.251 89.0656 159.876 94.0056 161.145 98.965C160.967 99.0328 160.79 99.0909 160.629 99.1684C159.343 99.7143 158.162 100.544 157.154 101.609C156.875 101.91 156.579 102.346 156.722 102.762C156.849 103.111 157.23 103.227 157.56 103.304C158.354 103.479 159.149 103.653 159.936 103.818C160.57 103.963 161.204 104.099 161.838 104.244C162.134 104.302 162.43 104.37 162.726 104.438C162.768 104.554 162.794 104.661 162.836 104.767C164.324 109.465 165.948 114.202 166.709 119.016C166.897 120.224 167.027 121.443 167.098 122.667C167.123 123.181 167.14 123.694 167.14 124.208Z" fill="#F2F2F2"/>
<path d="M39.1138 109.717C39.201 114.456 38.6302 119.18 37.4227 123.714C37.3803 123.878 37.3296 124.043 37.2789 124.208H12.3845C12.7404 122.2 13.3054 120.249 14.0673 118.396C16.139 113.359 19.5214 109.048 22.8615 104.767C27.4615 98.8681 31.9516 93.0176 32.662 85.3461C34.4853 88.5302 35.9406 91.9717 36.9914 95.5845C35.7049 96.1304 34.5242 96.9596 33.516 98.0254C33.2369 98.3257 32.941 98.7616 33.0847 99.1781C33.22 99.5268 33.5921 99.6431 33.9219 99.7205C34.7167 99.8949 35.5116 100.069 36.3065 100.234C36.9322 100.379 37.5664 100.515 38.2006 100.65C38.758 103.632 39.0638 106.668 39.1138 109.717Z" fill="#F2F2F2"/>
<path d="M60.0255 106.578C56.0343 109.358 53.4975 113.659 51.4258 118.473C49.623 118.944 47.9586 119.946 46.5974 121.379C46.3099 121.679 46.014 122.115 46.1662 122.532C46.293 122.881 46.6736 122.997 47.0033 123.074C47.7897 123.249 48.593 123.423 49.3794 123.588C49.3034 123.791 49.2272 124.004 49.1512 124.208H22.7686C23.9662 122.357 25.2925 120.621 26.7344 119.016C27.0473 118.657 27.3686 118.318 27.6984 117.97C31.0615 114.488 34.9232 111.696 39.1139 109.717C45.7159 106.555 52.9354 105.472 60.0255 106.578Z" fill="#F2F2F2"/>
<path d="M27.1655 124.208H3.67484C3.54657 122.053 3.55788 119.89 3.7087 117.737C4.6473 104.438 10.9639 91.7681 20.4938 84.0965C19.2761 89.0656 19.9018 94.0056 21.1702 98.965C20.9927 99.0328 20.8151 99.0909 20.6544 99.1684C19.3679 99.7143 18.1873 100.544 17.179 101.609C16.9 101.91 16.604 102.346 16.7478 102.762C16.8746 103.111 17.2551 103.227 17.5849 103.304C18.3798 103.479 19.1746 103.653 19.961 103.818C20.5952 103.963 21.2294 104.099 21.8636 104.244C22.1596 104.302 22.4555 104.37 22.7515 104.438C22.7937 104.554 22.8191 104.661 22.8614 104.767C24.3497 109.465 25.9732 114.202 26.7343 119.016C26.9226 120.224 27.0525 121.443 27.1232 122.667C27.1486 123.181 27.1655 123.694 27.1655 124.208Z" fill="#F2F2F2"/>
<path d="M114.618 112.91L135.607 115.045L135.832 115.068V12.4759C135.757 12.416 135.682 12.3562 135.607 12.2963C131.233 8.79135 126.501 5.91198 121.516 3.72221L120.444 20.6673L120.346 22.2187L119.285 39.0232L118.958 44.1927L114.656 112.312L114.618 112.91Z" fill="#E6E6E6"/>
<path d="M62.7114 10.5653C62.5614 10.6747 62.4114 10.784 62.2615 10.8985V115.068L62.7114 115.021L83.4735 112.91L83.4349 112.312L79.1334 44.1927L78.8062 39.0232L77.745 22.2187L77.6473 20.6673L76.5225 2.89708C71.6719 4.82309 67.0363 7.3969 62.7114 10.5653Z" fill="#E6E6E6"/>
<path d="M62.2615 10.8985C61.9593 11.1223 61.657 11.3514 61.3594 11.5831V116.489C61.3594 119.11 62.7159 121.307 64.5293 121.867C64.8256 121.959 65.1312 122.005 65.4382 122.005H132.88C133.187 122.005 133.492 121.959 133.787 121.867C134.461 121.653 135.072 121.234 135.555 120.654C136.476 119.526 136.979 118.033 136.959 116.489V13.4077C136.587 13.0928 136.212 12.7804 135.832 12.4759C135.757 12.416 135.682 12.3561 135.607 12.2963V116.489C135.608 116.827 135.573 117.163 135.503 117.491C135.182 119.04 134.126 120.175 132.88 120.175H65.4382C63.9339 120.175 62.7114 118.522 62.7114 116.489V10.5653C62.5614 10.6746 62.4114 10.784 62.2615 10.8985Z" fill="#E6E6E6"/>
<path d="M136.283 20.6684H62.0347V22.2195H136.283V20.6684Z" fill="#E6E6E6"/>
<path d="M113.543 0.8824C113.093 0.754856 112.643 0.63512 112.189 0.523193V42.6413H113.543V0.8824Z" fill="#E6E6E6"/>
<path d="M86.1297 0C85.6775 0.0963087 85.2253 0.195221 84.7754 0.301942V42.6413H86.1297V0Z" fill="#E6E6E6"/>
<path d="M47.4778 119.29C47.4775 120.18 47.6263 121.062 47.9163 121.888C48.0277 122.208 48.1607 122.518 48.314 122.814C48.512 123.201 48.7418 123.566 49.0002 123.902C49.5711 124.648 50.2742 125.245 51.0627 125.653C51.8511 126.062 52.7066 126.274 53.5721 126.274H142.49C144.106 126.274 145.656 125.538 146.799 124.229C147.942 122.92 148.584 121.144 148.584 119.293C148.584 117.441 147.942 115.665 146.799 114.356C145.656 113.047 144.106 112.311 142.49 112.311H53.5721C51.9567 112.313 50.4078 113.049 49.2653 114.357C48.1228 115.666 47.48 117.439 47.4778 119.29Z" fill="#E6E6E6"/>
<path d="M62.0348 44.1933L135.832 44.1933V39.0229L62.0348 39.0229V44.1933Z" fill="#E6E6E6"/>
<path d="M102.093 40.3155H95.7738C95.7738 39.5613 96.0353 38.838 96.5008 38.3048C96.9664 37.7715 97.5978 37.4719 98.2562 37.4719H99.6103C99.9363 37.4719 100.259 37.5454 100.56 37.6883C100.861 37.8312 101.135 38.0407 101.366 38.3048C101.596 38.5688 101.779 38.8823 101.904 39.2273C102.029 39.5723 102.093 39.9421 102.093 40.3155Z" fill="#E6E6E6"/>
<path d="M0 123.278C1.97402 125.957 4.10914 128.475 6.38974 130.813H189.67C191.951 128.475 194.086 125.957 196.06 123.278H0Z" fill="#3F3D56"/>
<path d="M90.1404 98.0786V124.774H106.467V98.0786C106.467 97.8866 106.414 97.6996 106.314 97.545C106.215 97.3904 106.075 97.2764 105.915 97.2197C105.839 97.1911 105.76 97.177 105.681 97.178H90.9289C90.8255 97.1778 90.723 97.2009 90.6274 97.2461C90.5318 97.2912 90.4449 97.3575 90.3717 97.4411C90.2984 97.5248 90.2403 97.6241 90.2006 97.7335C90.161 97.8429 90.1405 97.9602 90.1404 98.0786ZM96.5119 107.251C96.5163 106.725 96.7018 106.222 97.0282 105.852C97.3546 105.481 97.7954 105.274 98.2548 105.274C98.7142 105.274 99.1551 105.481 99.4814 105.852C99.8078 106.222 99.9934 106.725 99.9977 107.251V110.349C99.9953 110.877 99.8107 111.382 99.4841 111.754C99.1575 112.126 98.7155 112.335 98.2548 112.335C97.7941 112.335 97.3522 112.126 97.0256 111.754C96.699 111.382 96.5143 110.877 96.5119 110.349V107.251Z" fill="#2F2E41"/>
<path d="M90.0903 123.921V126.495C90.0907 126.628 90.137 126.756 90.2191 126.851C90.3012 126.945 90.4125 126.999 90.5289 127H106.078C106.195 126.999 106.306 126.946 106.389 126.851C106.471 126.756 106.517 126.628 106.517 126.495V123.921H90.0903Z" fill="#3F3D56"/>
<path d="M64.4565 57.8581V106.601C64.457 107.222 64.6726 107.817 65.056 108.257C65.4394 108.696 65.9594 108.943 66.5016 108.943H129.558C130.101 108.943 130.621 108.696 131.004 108.257C131.387 107.817 131.603 107.222 131.603 106.601V57.8581C131.602 57.2375 131.386 56.6427 131.003 56.2041C130.62 55.7655 130.1 55.5188 129.558 55.518H66.5016C65.9598 55.5188 65.4404 55.7655 65.0571 56.2041C64.6738 56.6427 64.4578 57.2375 64.4565 57.8581Z" fill="#3F3D56"/>
<path d="M65.9358 58.4646V105.999C65.9363 106.331 66.0516 106.649 66.2565 106.884C66.4613 107.119 66.7391 107.251 67.0288 107.251H129.033C129.323 107.251 129.601 107.119 129.806 106.884C130.011 106.649 130.126 106.331 130.126 105.999V58.4646C130.126 58.1323 130.011 57.8136 129.806 57.5784C129.601 57.3432 129.323 57.2107 129.033 57.2099H67.0288C66.7387 57.2107 66.4607 57.3432 66.2558 57.5784C66.0509 57.8136 65.9358 58.1323 65.9358 58.4646Z" fill="#6C63FF"/>
<path d="M78.5789 127.606C78.642 127.697 78.7222 127.77 78.8135 127.82C78.9048 127.87 79.0048 127.896 79.1061 127.895H115.995C116.096 127.895 116.195 127.869 116.286 127.819C116.377 127.77 116.458 127.697 116.521 127.608C116.585 127.518 116.63 127.413 116.654 127.301C116.677 127.188 116.679 127.071 116.658 126.958L116.086 123.843C116.062 123.715 116.011 123.597 115.937 123.499C115.863 123.4 115.769 123.324 115.663 123.278C115.586 123.243 115.505 123.226 115.422 123.226H79.6764C79.594 123.226 79.5123 123.243 79.4356 123.278C79.3296 123.324 79.2354 123.4 79.1616 123.499C79.0877 123.597 79.0366 123.715 79.0129 123.843L78.4403 126.958C78.4199 127.071 78.4218 127.188 78.4457 127.3C78.4697 127.412 78.5152 127.517 78.5789 127.606Z" fill="#2F2E41"/>
<path d="M114.135 124.568H115.049C115.11 124.568 115.16 124.511 115.16 124.441V123.914C115.16 123.844 115.11 123.787 115.049 123.787H114.135C114.074 123.787 114.024 123.844 114.024 123.914V124.441C114.024 124.511 114.074 124.568 114.135 124.568Z" fill="#3F3D56"/>
<path d="M111.863 124.568H112.777C112.838 124.568 112.888 124.511 112.888 124.441V123.914C112.888 123.844 112.838 123.787 112.777 123.787H111.863C111.801 123.787 111.752 123.844 111.752 123.914V124.441C111.752 124.511 111.801 124.568 111.863 124.568Z" fill="#3F3D56"/>
<path d="M109.59 124.568H110.505C110.566 124.568 110.615 124.511 110.615 124.441V123.914C110.615 123.844 110.566 123.787 110.505 123.787H109.59C109.529 123.787 109.479 123.844 109.479 123.914V124.441C109.479 124.511 109.529 124.568 109.59 124.568Z" fill="#3F3D56"/>
<path d="M107.318 124.568H108.232C108.294 124.568 108.343 124.511 108.343 124.441V123.914C108.343 123.844 108.294 123.787 108.232 123.787H107.318C107.257 123.787 107.207 123.844 107.207 123.914V124.441C107.207 124.511 107.257 124.568 107.318 124.568Z" fill="#3F3D56"/>
<path d="M105.046 124.568H105.96C106.021 124.568 106.071 124.511 106.071 124.441V123.914C106.071 123.844 106.021 123.787 105.96 123.787H105.046C104.984 123.787 104.935 123.844 104.935 123.914V124.441C104.935 124.511 104.984 124.568 105.046 124.568Z" fill="#3F3D56"/>
<path d="M102.773 124.568H103.688C103.749 124.568 103.799 124.511 103.799 124.441V123.914C103.799 123.844 103.749 123.787 103.688 123.787H102.773C102.712 123.787 102.662 123.844 102.662 123.914V124.441C102.662 124.511 102.712 124.568 102.773 124.568Z" fill="#3F3D56"/>
<path d="M100.501 124.568H101.415C101.477 124.568 101.526 124.511 101.526 124.441V123.914C101.526 123.844 101.477 123.787 101.415 123.787H100.501C100.44 123.787 100.39 123.844 100.39 123.914V124.441C100.39 124.511 100.44 124.568 100.501 124.568Z" fill="#3F3D56"/>
<path d="M98.2287 124.568H99.143C99.2042 124.568 99.2539 124.511 99.2539 124.441V123.914C99.2539 123.844 99.2042 123.787 99.143 123.787H98.2287C98.1674 123.787 98.1177 123.844 98.1177 123.914V124.441C98.1177 124.511 98.1674 124.568 98.2287 124.568Z" fill="#3F3D56"/>
<path d="M95.9565 124.568H96.8708C96.932 124.568 96.9817 124.511 96.9817 124.441V123.914C96.9817 123.844 96.932 123.787 96.8708 123.787H95.9565C95.8952 123.787 95.8455 123.844 95.8455 123.914V124.441C95.8455 124.511 95.8952 124.568 95.9565 124.568Z" fill="#3F3D56"/>
<path d="M93.6842 124.568H94.5985C94.6598 124.568 94.7095 124.511 94.7095 124.441V123.914C94.7095 123.844 94.6598 123.787 94.5985 123.787H93.6842C93.623 123.787 93.5733 123.844 93.5733 123.914V124.441C93.5733 124.511 93.623 124.568 93.6842 124.568Z" fill="#3F3D56"/>
<path d="M91.4118 124.568H92.3261C92.3873 124.568 92.437 124.511 92.437 124.441V123.914C92.437 123.844 92.3873 123.787 92.3261 123.787H91.4118C91.3505 123.787 91.3009 123.844 91.3009 123.914V124.441C91.3009 124.511 91.3505 124.568 91.4118 124.568Z" fill="#3F3D56"/>
<path d="M89.1396 124.568H90.0539C90.1151 124.568 90.1648 124.511 90.1648 124.441V123.914C90.1648 123.844 90.1151 123.787 90.0539 123.787H89.1396C89.0783 123.787 89.0286 123.844 89.0286 123.914V124.441C89.0286 124.511 89.0783 124.568 89.1396 124.568Z" fill="#3F3D56"/>
<path d="M86.8671 124.568H87.7814C87.8427 124.568 87.8923 124.511 87.8923 124.441V123.914C87.8923 123.844 87.8427 123.787 87.7814 123.787H86.8671C86.8058 123.787 86.7562 123.844 86.7562 123.914V124.441C86.7562 124.511 86.8058 124.568 86.8671 124.568Z" fill="#3F3D56"/>
<path d="M84.5949 124.568H85.5092C85.5704 124.568 85.6201 124.511 85.6201 124.441V123.914C85.6201 123.844 85.5704 123.787 85.5092 123.787H84.5949C84.5336 123.787 84.484 123.844 84.484 123.914V124.441C84.484 124.511 84.5336 124.568 84.5949 124.568Z" fill="#3F3D56"/>
<path d="M82.3227 124.568H83.237C83.2982 124.568 83.3479 124.511 83.3479 124.441V123.914C83.3479 123.844 83.2982 123.787 83.237 123.787H82.3227C82.2614 123.787 82.2117 123.844 82.2117 123.914V124.441C82.2117 124.511 82.2614 124.568 82.3227 124.568Z" fill="#3F3D56"/>
<path d="M80.0502 124.568H80.9645C81.0258 124.568 81.0754 124.511 81.0754 124.441V123.914C81.0754 123.844 81.0258 123.787 80.9645 123.787H80.0502C79.9889 123.787 79.9393 123.844 79.9393 123.914V124.441C79.9393 124.511 79.9889 124.568 80.0502 124.568Z" fill="#3F3D56"/>
<path d="M114.162 125.869H115.076C115.137 125.869 115.187 125.812 115.187 125.742V125.215C115.187 125.145 115.137 125.088 115.076 125.088H114.162C114.101 125.088 114.051 125.145 114.051 125.215V125.742C114.051 125.812 114.101 125.869 114.162 125.869Z" fill="#3F3D56"/>
<path d="M111.89 125.869H112.804C112.865 125.869 112.915 125.812 112.915 125.742V125.215C112.915 125.145 112.865 125.088 112.804 125.088H111.89C111.828 125.088 111.779 125.145 111.779 125.215V125.742C111.779 125.812 111.828 125.869 111.89 125.869Z" fill="#3F3D56"/>
<path d="M109.617 125.869H110.531C110.593 125.869 110.642 125.812 110.642 125.742V125.215C110.642 125.145 110.593 125.088 110.531 125.088H109.617C109.556 125.088 109.506 125.145 109.506 125.215V125.742C109.506 125.812 109.556 125.869 109.617 125.869Z" fill="#3F3D56"/>
<path d="M107.345 125.869H108.259C108.32 125.869 108.37 125.812 108.37 125.742V125.215C108.37 125.145 108.32 125.088 108.259 125.088H107.345C107.284 125.088 107.234 125.145 107.234 125.215V125.742C107.234 125.812 107.284 125.869 107.345 125.869Z" fill="#3F3D56"/>
<path d="M105.072 125.869H105.987C106.048 125.869 106.098 125.812 106.098 125.742V125.215C106.098 125.145 106.048 125.088 105.987 125.088H105.072C105.011 125.088 104.961 125.145 104.961 125.215V125.742C104.961 125.812 105.011 125.869 105.072 125.869Z" fill="#3F3D56"/>
<path d="M102.8 125.869H103.715C103.776 125.869 103.825 125.812 103.825 125.742V125.215C103.825 125.145 103.776 125.088 103.715 125.088H102.8C102.739 125.088 102.689 125.145 102.689 125.215V125.742C102.689 125.812 102.739 125.869 102.8 125.869Z" fill="#3F3D56"/>
<path d="M100.528 125.869H101.442C101.504 125.869 101.553 125.812 101.553 125.742V125.215C101.553 125.145 101.504 125.088 101.442 125.088H100.528C100.467 125.088 100.417 125.145 100.417 125.215V125.742C100.417 125.812 100.467 125.869 100.528 125.869Z" fill="#3F3D56"/>
<path d="M98.2555 125.869H99.1698C99.2311 125.869 99.2808 125.812 99.2808 125.742V125.215C99.2808 125.145 99.2311 125.088 99.1698 125.088H98.2555C98.1943 125.088 98.1446 125.145 98.1446 125.215V125.742C98.1446 125.812 98.1943 125.869 98.2555 125.869Z" fill="#3F3D56"/>
<path d="M95.9833 125.869H96.8976C96.9589 125.869 97.0085 125.812 97.0085 125.742V125.215C97.0085 125.145 96.9589 125.088 96.8976 125.088H95.9833C95.922 125.088 95.8724 125.145 95.8724 125.215V125.742C95.8724 125.812 95.922 125.869 95.9833 125.869Z" fill="#3F3D56"/>
<path d="M93.7111 125.869H94.6254C94.6867 125.869 94.7363 125.812 94.7363 125.742V125.215C94.7363 125.145 94.6867 125.088 94.6254 125.088H93.7111C93.6498 125.088 93.6002 125.145 93.6002 125.215V125.742C93.6002 125.812 93.6498 125.869 93.7111 125.869Z" fill="#3F3D56"/>
<path d="M91.4386 125.869H92.3529C92.4142 125.869 92.4639 125.812 92.4639 125.742V125.215C92.4639 125.145 92.4142 125.088 92.3529 125.088H91.4386C91.3774 125.088 91.3277 125.145 91.3277 125.215V125.742C91.3277 125.812 91.3774 125.869 91.4386 125.869Z" fill="#3F3D56"/>
<path d="M89.1664 125.869H90.0807C90.142 125.869 90.1917 125.812 90.1917 125.742V125.215C90.1917 125.145 90.142 125.088 90.0807 125.088H89.1664C89.1052 125.088 89.0555 125.145 89.0555 125.215V125.742C89.0555 125.812 89.1052 125.869 89.1664 125.869Z" fill="#3F3D56"/>
<path d="M86.894 125.869H87.8083C87.8695 125.869 87.9192 125.812 87.9192 125.742V125.215C87.9192 125.145 87.8695 125.088 87.8083 125.088H86.894C86.8327 125.088 86.783 125.145 86.783 125.215V125.742C86.783 125.812 86.8327 125.869 86.894 125.869Z" fill="#3F3D56"/>
<path d="M84.6217 125.869H85.536C85.5973 125.869 85.647 125.812 85.647 125.742V125.215C85.647 125.145 85.5973 125.088 85.536 125.088H84.6217C84.5605 125.088 84.5108 125.145 84.5108 125.215V125.742C84.5108 125.812 84.5605 125.869 84.6217 125.869Z" fill="#3F3D56"/>
<path d="M82.3495 125.869H83.2638C83.3251 125.869 83.3748 125.812 83.3748 125.742V125.215C83.3748 125.145 83.3251 125.088 83.2638 125.088H82.3495C82.2883 125.088 82.2386 125.145 82.2386 125.215V125.742C82.2386 125.812 82.2883 125.869 82.3495 125.869Z" fill="#3F3D56"/>
<path d="M80.0771 125.869H80.9914C81.0526 125.869 81.1023 125.812 81.1023 125.742V125.215C81.1023 125.145 81.0526 125.088 80.9914 125.088H80.0771C80.0158 125.088 79.9661 125.145 79.9661 125.215V125.742C79.9661 125.812 80.0158 125.869 80.0771 125.869Z" fill="#3F3D56"/>
<path d="M95.3017 127.431H104.169C104.23 127.431 104.28 127.374 104.28 127.304V126.777C104.28 126.707 104.23 126.65 104.169 126.65H95.3017C95.2404 126.65 95.1908 126.707 95.1908 126.777V127.304C95.1908 127.374 95.2404 127.431 95.3017 127.431Z" fill="#3F3D56"/>
<path d="M70.1444 63.7581H128.162C128.222 63.7566 128.28 63.728 128.322 63.6786C128.364 63.6292 128.388 63.5629 128.388 63.4938C128.388 63.4247 128.364 63.3583 128.322 63.3089C128.28 63.2595 128.222 63.231 128.162 63.2295H70.1444C70.0841 63.231 70.0267 63.2595 69.9845 63.3089C69.9423 63.3583 69.9187 63.4247 69.9187 63.4938C69.9187 63.5629 69.9423 63.6292 69.9845 63.6786C70.0267 63.728 70.0841 63.7566 70.1444 63.7581Z" fill="#3F3D56"/>
<path d="M124.213 61.8801C124.959 61.8801 125.565 61.1712 125.565 60.2967C125.565 59.4222 124.959 58.7133 124.213 58.7133C123.466 58.7133 122.861 59.4222 122.861 60.2967C122.861 61.1712 123.466 61.8801 124.213 61.8801Z" fill="#3F3D56"/>
<path d="M119.542 61.8801C120.288 61.8801 120.894 61.1712 120.894 60.2967C120.894 59.4222 120.288 58.7133 119.542 58.7133C118.795 58.7133 118.189 59.4222 118.189 60.2967C118.189 61.1712 118.795 61.8801 119.542 61.8801Z" fill="#3F3D56"/>
<path d="M114.871 61.8801C115.617 61.8801 116.223 61.1712 116.223 60.2967C116.223 59.4222 115.617 58.7133 114.871 58.7133C114.124 58.7133 113.519 59.4222 113.519 60.2967C113.519 61.1712 114.124 61.8801 114.871 61.8801Z" fill="#3F3D56"/>
<path d="M72.7095 59.3938C72.7093 59.4312 72.7156 59.4683 72.728 59.503C72.7403 59.5376 72.7585 59.5692 72.7815 59.5957C72.8045 59.6223 72.8319 59.6435 72.862 59.6579C72.8922 59.6724 72.9245 59.68 72.9572 59.6801H76.2747C76.3403 59.6784 76.4027 59.6473 76.4485 59.5936C76.4944 59.5398 76.52 59.4676 76.52 59.3925C76.52 59.3174 76.4944 59.2452 76.4485 59.1915C76.4027 59.1377 76.3403 59.1066 76.2747 59.1049H72.9572C72.8909 59.1058 72.8277 59.1367 72.7813 59.1908C72.7349 59.245 72.7091 59.3179 72.7095 59.3938Z" fill="#3F3D56"/>
<path d="M72.7095 60.474C72.7093 60.5115 72.7156 60.5486 72.728 60.5832C72.7403 60.6179 72.7585 60.6494 72.7815 60.676C72.8045 60.7026 72.8319 60.7237 72.862 60.7382C72.8922 60.7527 72.9245 60.7602 72.9572 60.7604H76.2747C76.3404 60.7587 76.4028 60.7277 76.4487 60.6739C76.4946 60.6201 76.5203 60.5479 76.5203 60.4727C76.5203 60.3975 76.4946 60.3253 76.4487 60.2716C76.4028 60.2178 76.3404 60.1868 76.2747 60.1851H72.9572C72.8909 60.186 72.8277 60.2169 72.7813 60.2711C72.7349 60.3252 72.7091 60.3982 72.7095 60.474Z" fill="#3F3D56"/>
<path d="M72.7095 61.5516C72.7091 61.6275 72.7349 61.7005 72.7813 61.7546C72.8277 61.8088 72.8909 61.8396 72.9572 61.8406H76.2747C76.3403 61.8388 76.4027 61.8077 76.4485 61.754C76.4944 61.7002 76.52 61.6281 76.52 61.5529C76.52 61.4778 76.4944 61.4056 76.4485 61.3519C76.4027 61.2981 76.3403 61.2671 76.2747 61.2653H72.9572C72.9245 61.2655 72.8922 61.273 72.862 61.2875C72.8319 61.302 72.8045 61.3231 72.7815 61.3497C72.7585 61.3763 72.7403 61.4078 72.728 61.4425C72.7156 61.4771 72.7093 61.5142 72.7095 61.5516Z" fill="#3F3D56"/>
<path d="M73.7347 69.9001H72.5426C72.1812 69.9001 71.8882 70.2357 71.8882 70.6497C71.8882 71.0638 72.1812 71.3994 72.5426 71.3994H73.7347C74.0961 71.3994 74.3891 71.0638 74.3891 70.6497C74.3891 70.2357 74.0961 69.9001 73.7347 69.9001Z" fill="#E6E6E6"/>
<path d="M87.3687 69.9001H86.1766C85.8152 69.9001 85.5222 70.2357 85.5222 70.6497C85.5222 71.0638 85.8152 71.3994 86.1766 71.3994H87.3687C87.7302 71.3994 88.0231 71.0638 88.0231 70.6497C88.0231 70.2357 87.7302 69.9001 87.3687 69.9001Z" fill="#E6E6E6"/>
<path d="M91.2315 69.9001H90.0394C89.678 69.9001 89.385 70.2357 89.385 70.6497C89.385 71.0638 89.678 71.3994 90.0394 71.3994H91.2315C91.5929 71.3994 91.8859 71.0638 91.8859 70.6497C91.8859 70.2357 91.5929 69.9001 91.2315 69.9001Z" fill="#E6E6E6"/>
<path d="M83.6601 69.7751H76.2511C75.8897 69.7751 75.5967 70.1108 75.5967 70.5248C75.5967 70.9388 75.8897 71.2744 76.2511 71.2744H83.6601C84.0216 71.2744 84.3146 70.9388 84.3146 70.5248C84.3146 70.1108 84.0216 69.7751 83.6601 69.7751Z" fill="#E6E6E6"/>
<path d="M101.839 69.7751H94.4296C94.0681 69.7751 93.7751 70.1108 93.7751 70.5248C93.7751 70.9388 94.0681 71.2744 94.4296 71.2744H101.839C102.2 71.2744 102.493 70.9388 102.493 70.5248C102.493 70.1108 102.2 69.7751 101.839 69.7751Z" fill="#E6E6E6"/>
<path d="M77.3704 73.2839H76.1783C75.8169 73.2839 75.5239 73.6196 75.5239 74.0336C75.5239 74.4476 75.8169 74.7832 76.1783 74.7832H77.3704C77.7319 74.7832 78.0249 74.4476 78.0249 74.0336C78.0249 73.6196 77.7319 73.2839 77.3704 73.2839Z" fill="#E6E6E6"/>
<path d="M91.0045 73.2839H89.8124C89.4509 73.2839 89.158 73.6196 89.158 74.0336C89.158 74.4476 89.4509 74.7832 89.8124 74.7832H91.0045C91.3659 74.7832 91.6589 74.4476 91.6589 74.0336C91.6589 73.6196 91.3659 73.2839 91.0045 73.2839Z" fill="#E6E6E6"/>
<path d="M94.8673 73.2839H93.6752C93.3137 73.2839 93.0208 73.6196 93.0208 74.0336C93.0208 74.4476 93.3137 74.7832 93.6752 74.7832H94.8673C95.2287 74.7832 95.5217 74.4476 95.5217 74.0336C95.5217 73.6196 95.2287 73.2839 94.8673 73.2839Z" fill="#E6E6E6"/>
<path d="M87.2959 73.159H79.8868C79.5254 73.159 79.2324 73.4946 79.2324 73.9086C79.2324 74.3226 79.5254 74.6582 79.8868 74.6582H87.2959C87.6573 74.6582 87.9503 74.3226 87.9503 73.9086C87.9503 73.4946 87.6573 73.159 87.2959 73.159Z" fill="#E6E6E6"/>
<path d="M105.474 73.159H98.0653C97.7039 73.159 97.4109 73.4946 97.4109 73.9086C97.4109 74.3226 97.7039 74.6582 98.0653 74.6582H105.474C105.836 74.6582 106.129 74.3226 106.129 73.9086C106.129 73.4946 105.836 73.159 105.474 73.159Z" fill="#E6E6E6"/>
<path d="M81.0062 76.6678H79.8141C79.4527 76.6678 79.1597 77.0034 79.1597 77.4174C79.1597 77.8314 79.4527 78.167 79.8141 78.167H81.0062C81.3676 78.167 81.6606 77.8314 81.6606 77.4174C81.6606 77.0034 81.3676 76.6678 81.0062 76.6678Z" fill="#E6E6E6"/>
<path d="M94.64 76.6678H93.4479C93.0864 76.6678 92.7935 77.0034 92.7935 77.4174C92.7935 77.8314 93.0864 78.167 93.4479 78.167H94.64C95.0014 78.167 95.2944 77.8314 95.2944 77.4174C95.2944 77.0034 95.0014 76.6678 94.64 76.6678Z" fill="#E6E6E6"/>
<path d="M98.503 76.6678H97.3109C96.9495 76.6678 96.6565 77.0034 96.6565 77.4174C96.6565 77.8314 96.9495 78.167 97.3109 78.167H98.503C98.8644 78.167 99.1574 77.8314 99.1574 77.4174C99.1574 77.0034 98.8644 76.6678 98.503 76.6678Z" fill="#E6E6E6"/>
<path d="M90.9316 76.5428H83.5226C83.1612 76.5428 82.8682 76.8784 82.8682 77.2924C82.8682 77.7064 83.1612 78.042 83.5226 78.042H90.9316C91.2931 78.042 91.5861 77.7064 91.5861 77.2924C91.5861 76.8784 91.2931 76.5428 90.9316 76.5428Z" fill="#E6E6E6"/>
<path d="M109.11 76.5428H101.701C101.34 76.5428 101.047 76.8784 101.047 77.2924C101.047 77.7064 101.34 78.042 101.701 78.042H109.11C109.472 78.042 109.765 77.7064 109.765 77.2924C109.765 76.8784 109.472 76.5428 109.11 76.5428Z" fill="#E6E6E6"/>
<path d="M84.6419 80.0516H83.4498C83.0884 80.0516 82.7954 80.3872 82.7954 80.8012C82.7954 81.2152 83.0884 81.5508 83.4498 81.5508H84.6419C85.0033 81.5508 85.2963 81.2152 85.2963 80.8012C85.2963 80.3872 85.0033 80.0516 84.6419 80.0516Z" fill="#E6E6E6"/>
<path d="M98.2757 80.0516H97.0836C96.7222 80.0516 96.4292 80.3872 96.4292 80.8012C96.4292 81.2152 96.7222 81.5508 97.0836 81.5508H98.2757C98.6371 81.5508 98.9301 81.2152 98.9301 80.8012C98.9301 80.3872 98.6371 80.0516 98.2757 80.0516Z" fill="#E6E6E6"/>
<path d="M102.139 80.0516H100.947C100.585 80.0516 100.292 80.3872 100.292 80.8012C100.292 81.2152 100.585 81.5508 100.947 81.5508H102.139C102.5 81.5508 102.793 81.2152 102.793 80.8012C102.793 80.3872 102.5 80.0516 102.139 80.0516Z" fill="#E6E6E6"/>
<path d="M94.5674 79.9266H87.1583C86.7969 79.9266 86.5039 80.2622 86.5039 80.6762C86.5039 81.0902 86.7969 81.4259 87.1583 81.4259H94.5674C94.9288 81.4259 95.2218 81.0902 95.2218 80.6762C95.2218 80.2622 94.9288 79.9266 94.5674 79.9266Z" fill="#E6E6E6"/>
<path d="M87.3687 93.5071H86.1766C85.8152 93.5071 85.5222 93.8427 85.5222 94.2567C85.5222 94.6707 85.8152 95.0063 86.1766 95.0063H87.3687C87.7302 95.0063 88.0231 94.6707 88.0231 94.2567C88.0231 93.8427 87.7302 93.5071 87.3687 93.5071Z" fill="#E6E6E6"/>
<path d="M91.2315 93.5071H90.0394C89.678 93.5071 89.385 93.8427 89.385 94.2567C89.385 94.6707 89.678 95.0063 90.0394 95.0063H91.2315C91.5929 95.0063 91.8859 94.6707 91.8859 94.2567C91.8859 93.8427 91.5929 93.5071 91.2315 93.5071Z" fill="#E6E6E6"/>
<path d="M101.839 93.632H94.4296C94.0681 93.632 93.7751 93.9677 93.7751 94.3817C93.7751 94.7957 94.0681 95.1313 94.4296 95.1313H101.839C102.2 95.1313 102.493 94.7957 102.493 94.3817C102.493 93.9677 102.2 93.632 101.839 93.632Z" fill="#E6E6E6"/>
<path d="M73.7347 93.5071H72.5426C72.1812 93.5071 71.8882 93.8427 71.8882 94.2567C71.8882 94.6707 72.1812 95.0063 72.5426 95.0063H73.7347C74.0961 95.0063 74.3891 94.6707 74.3891 94.2567C74.3891 93.8427 74.0961 93.5071 73.7347 93.5071Z" fill="#E6E6E6"/>
<path d="M83.6601 93.632H76.2511C75.8897 93.632 75.5967 93.9677 75.5967 94.3817C75.5967 94.7957 75.8897 95.1313 76.2511 95.1313H83.6601C84.0216 95.1313 84.3146 94.7957 84.3146 94.3817C84.3146 93.9677 84.0216 93.632 83.6601 93.632Z" fill="#E6E6E6"/>
<path d="M77.3704 90.1232H76.1783C75.8169 90.1232 75.5239 90.4589 75.5239 90.8729C75.5239 91.2869 75.8169 91.6225 76.1783 91.6225H77.3704C77.7319 91.6225 78.0249 91.2869 78.0249 90.8729C78.0249 90.4589 77.7319 90.1232 77.3704 90.1232Z" fill="#E6E6E6"/>
<path d="M91.0045 90.1232H89.8124C89.4509 90.1232 89.158 90.4589 89.158 90.8729C89.158 91.2869 89.4509 91.6225 89.8124 91.6225H91.0045C91.3659 91.6225 91.6589 91.2869 91.6589 90.8729C91.6589 90.4589 91.3659 90.1232 91.0045 90.1232Z" fill="#E6E6E6"/>
<path d="M94.8673 90.1232H93.6752C93.3137 90.1232 93.0208 90.4589 93.0208 90.8729C93.0208 91.2869 93.3137 91.6225 93.6752 91.6225H94.8673C95.2287 91.6225 95.5217 91.2869 95.5217 90.8729C95.5217 90.4589 95.2287 90.1232 94.8673 90.1232Z" fill="#E6E6E6"/>
<path d="M87.2959 90.2482H79.8868C79.5254 90.2482 79.2324 90.5839 79.2324 90.9979C79.2324 91.4119 79.5254 91.7475 79.8868 91.7475H87.2959C87.6573 91.7475 87.9503 91.4119 87.9503 90.9979C87.9503 90.5839 87.6573 90.2482 87.2959 90.2482Z" fill="#E6E6E6"/>
<path d="M81.0062 86.7394H79.8141C79.4527 86.7394 79.1597 87.0751 79.1597 87.4891C79.1597 87.9031 79.4527 88.2387 79.8141 88.2387H81.0062C81.3676 88.2387 81.6606 87.9031 81.6606 87.4891C81.6606 87.0751 81.3676 86.7394 81.0062 86.7394Z" fill="#E6E6E6"/>
<path d="M94.64 86.7394H93.4479C93.0864 86.7394 92.7935 87.0751 92.7935 87.4891C92.7935 87.9031 93.0864 88.2387 93.4479 88.2387H94.64C95.0014 88.2387 95.2944 87.9031 95.2944 87.4891C95.2944 87.0751 95.0014 86.7394 94.64 86.7394Z" fill="#E6E6E6"/>
<path d="M98.503 86.7394H97.3109C96.9495 86.7394 96.6565 87.0751 96.6565 87.4891C96.6565 87.9031 96.9495 88.2387 97.3109 88.2387H98.503C98.8644 88.2387 99.1574 87.9031 99.1574 87.4891C99.1574 87.0751 98.8644 86.7394 98.503 86.7394Z" fill="#E6E6E6"/>
<path d="M90.9316 86.8644H83.5226C83.1612 86.8644 82.8682 87.2 82.8682 87.614C82.8682 88.0281 83.1612 88.3637 83.5226 88.3637H90.9316C91.2931 88.3637 91.5861 88.0281 91.5861 87.614C91.5861 87.2 91.2931 86.8644 90.9316 86.8644Z" fill="#E6E6E6"/>
<path d="M84.6419 83.3556H83.4498C83.0884 83.3556 82.7954 83.6912 82.7954 84.1053C82.7954 84.5193 83.0884 84.8549 83.4498 84.8549H84.6419C85.0033 84.8549 85.2963 84.5193 85.2963 84.1053C85.2963 83.6912 85.0033 83.3556 84.6419 83.3556Z" fill="#E6E6E6"/>
<path d="M98.2757 83.3556H97.0836C96.7222 83.3556 96.4292 83.6912 96.4292 84.1053C96.4292 84.5193 96.7222 84.8549 97.0836 84.8549H98.2757C98.6371 84.8549 98.9301 84.5193 98.9301 84.1053C98.9301 83.6912 98.6371 83.3556 98.2757 83.3556Z" fill="#E6E6E6"/>
<path d="M102.139 83.3556H100.947C100.585 83.3556 100.292 83.6912 100.292 84.1053C100.292 84.5193 100.585 84.8549 100.947 84.8549H102.139C102.5 84.8549 102.793 84.5193 102.793 84.1053C102.793 83.6912 102.5 83.3556 102.139 83.3556Z" fill="#E6E6E6"/>
<path d="M94.5674 83.4806H87.1583C86.7969 83.4806 86.5039 83.8162 86.5039 84.2302C86.5039 84.6442 86.7969 84.9799 87.1583 84.9799H94.5674C94.9288 84.9799 95.2218 84.6442 95.2218 84.2302C95.2218 83.8162 94.9288 83.4806 94.5674 83.4806Z" fill="#E6E6E6"/>
<path d="M79.5109 142.108C79.4609 142.137 79.4109 142.165 79.3609 142.191C79.045 142.371 78.7269 142.548 78.4065 142.722C77.4476 143.245 76.4766 143.743 75.4934 144.214C72.9065 145.453 70.2522 146.499 67.5471 147.345C67.0927 144.099 66.6518 136.444 66.2292 130.814C66.1497 129.754 66.0701 128.768 65.9906 127.896C65.9151 126.751 65.7716 125.614 65.5611 124.491C65.5405 124.403 65.5108 124.319 65.4725 124.239C65.5157 124.689 65.5611 126.032 65.6043 127.896C65.627 128.768 65.6475 129.754 65.6702 130.814C65.777 136.233 65.8883 143.607 65.9997 147.806C65.6838 147.894 65.3657 147.983 65.0476 148.066C64.8476 148.121 64.6454 148.173 64.4432 148.222C64.1978 148.285 63.9523 148.347 63.7069 148.404C63.4502 148.467 63.1934 148.527 62.9366 148.584C58.7406 149.528 54.4743 150.002 50.198 150C49.914 150 49.6322 149.997 49.3482 149.995C49.2618 149.995 49.1755 149.992 49.0869 149.99C48.8369 149.984 48.5779 149.979 48.3143 149.971C43.2609 149.811 38.2405 148.982 33.3534 147.501L33.5511 130.814L33.5851 127.896L33.5988 126.79C33.4862 127.145 33.4189 127.518 33.3988 127.896C33.3193 128.606 33.2375 129.614 33.1557 130.814C32.8444 135.437 32.524 142.894 32.1922 147.137C28.2634 145.856 25.3912 144.687 21.8009 142.631C21.6623 142.553 21.5214 142.472 21.3828 142.392C21.4078 142.191 21.4351 141.991 21.4601 141.785C21.8668 138.547 21.3874 134.333 21.8373 130.814C22.1804 128.099 22.5349 125.491 22.8916 123.278C23.3234 120.615 23.7619 118.523 24.1959 117.505C24.6958 116.331 25.1958 115.175 25.6798 114.069C25.8888 113.593 26.0941 113.125 26.2956 112.666C26.4046 112.419 26.5137 112.174 26.6205 111.935C27.1068 110.844 27.5658 109.837 27.9862 108.944C28.2816 108.317 28.5542 107.749 28.8042 107.252C29.0973 106.666 29.3564 106.182 29.57 105.815C31.1476 103.076 33.4951 101.036 36.2233 100.034L36.2915 100.013L36.3574 100.044L36.4323 100.083L40.7634 98.2692L42.6971 92.9358L52.6294 92.2356L54.2336 93.6334L55.0539 94.3492L55.9288 95.1119L57.5376 96.5149L57.9943 96.6762L58.6737 96.9157L63.3206 98.5504L63.3683 98.5269L63.4365 98.5477C65.9192 99.4581 68.0923 101.232 69.6536 103.623C69.8081 103.853 69.9512 104.089 70.0898 104.329C70.4671 104.969 70.9761 105.982 71.5759 107.252C71.8236 107.775 72.0849 108.343 72.3599 108.944C72.5258 109.306 73.9573 114.423 75.3503 119.65C76.6523 124.543 77.9202 129.533 78.0861 130.814C78.1157 131.051 78.1475 131.29 78.177 131.527C78.3656 133.008 78.5519 134.499 78.7315 135.955C78.9973 138.112 79.2564 140.195 79.504 142.056C79.5063 142.074 79.5086 142.09 79.5109 142.108Z" fill="#3F3D56"/>
<path opacity="0.2" d="M68.9851 123.266L67.0543 114.731L65.3494 122.096L68.9851 123.266Z" fill="black"/>
<path d="M3.5968 123.167C3.69691 123.501 3.88681 123.79 4.13924 123.993C4.39167 124.195 4.69364 124.301 5.00179 124.295L11.0216 124.117C11.332 124.11 11.6321 123.988 11.877 123.77C12.122 123.551 12.2987 123.248 12.3806 122.905L13.2325 112.47C13.5347 112.627 13.8637 112.705 14.1955 112.697C14.7775 112.68 15.3299 112.399 15.7312 111.916C16.1324 111.433 16.3496 110.787 16.335 110.12C16.3204 109.453 16.0752 108.821 15.6533 108.361C15.2314 107.901 14.6673 107.652 14.0853 107.669C13.9527 107.669 13.8204 107.684 13.6908 107.716C13.5497 107.541 13.3783 107.402 13.1876 107.308C12.9968 107.214 12.791 107.166 12.5832 107.169L3.32342 107.443C3.24661 107.446 3.17019 107.457 3.09501 107.475C2.89194 107.519 2.69934 107.611 2.53017 107.747C2.361 107.883 2.21918 108.058 2.11426 108.262C2.00934 108.466 1.94376 108.693 1.92192 108.929C1.90009 109.164 1.92251 109.402 1.98767 109.626L3.5968 123.167ZM13.4072 111.762L14.0133 109.275C14.0823 108.988 14.0839 108.685 14.018 108.397C14.0474 108.397 14.0733 108.381 14.1027 108.381C14.5184 108.371 14.9204 108.55 15.2208 108.88C15.5212 109.209 15.6953 109.661 15.7051 110.137C15.7148 110.613 15.5593 111.074 15.2727 111.419C14.9861 111.764 14.5918 111.965 14.1763 111.977C13.9076 111.987 13.6416 111.913 13.4072 111.762Z" fill="#2F2E41"/>
<path d="M3.09521 107.475C3.29249 108.767 5.51048 109.676 8.17744 109.518C10.6299 109.388 12.6351 108.402 13.0025 107.233C12.8666 107.187 12.7252 107.165 12.5834 107.169L3.32363 107.443C3.24681 107.446 3.17039 107.457 3.09521 107.475Z" fill="#3F3D56"/>
<path d="M8.66625 117.433C8.67844 117.43 8.69003 117.424 8.70054 117.416L10.0078 116.436C10.0236 116.424 10.0366 116.408 10.0456 116.389C10.0546 116.37 10.0593 116.349 10.0593 116.327C10.0593 116.306 10.0546 116.284 10.0457 116.265C10.0367 116.246 10.0237 116.23 10.0079 116.218L8.64911 115.199C8.63664 115.189 8.62267 115.183 8.60799 115.18C8.5933 115.176 8.57821 115.176 8.56356 115.18C8.54892 115.183 8.53501 115.19 8.52264 115.2C8.51027 115.209 8.49968 115.222 8.49148 115.236C8.48329 115.25 8.47764 115.266 8.47487 115.283C8.4721 115.3 8.47225 115.317 8.47533 115.334C8.47841 115.351 8.48435 115.367 8.4928 115.381C8.50126 115.395 8.51207 115.407 8.52461 115.416L9.73823 116.327L8.57617 117.198C8.55367 117.215 8.53712 117.241 8.52945 117.27C8.52179 117.3 8.52352 117.331 8.53432 117.36C8.54513 117.388 8.56431 117.411 8.58847 117.424C8.61262 117.438 8.64019 117.441 8.66625 117.433Z" fill="#6C63FF"/>
<path d="M6.60127 117.543C6.62321 117.536 6.64299 117.522 6.65808 117.503C6.67317 117.484 6.68287 117.46 6.68595 117.434C6.68902 117.408 6.68534 117.382 6.67535 117.359C6.66537 117.336 6.64955 117.316 6.62992 117.303L5.4249 116.512L6.58959 115.521C6.60156 115.511 6.61166 115.498 6.61931 115.483C6.62697 115.469 6.63203 115.453 6.6342 115.436C6.63637 115.419 6.63562 115.402 6.63198 115.385C6.62835 115.368 6.6219 115.353 6.61301 115.339C6.60412 115.325 6.59295 115.314 6.58016 115.305C6.56736 115.296 6.55319 115.291 6.53844 115.288C6.52369 115.286 6.50865 115.286 6.49419 115.291C6.47973 115.295 6.46613 115.302 6.45416 115.312L5.15017 116.422C5.13502 116.435 5.1229 116.452 5.11492 116.471C5.10694 116.491 5.10334 116.512 5.10444 116.534C5.10555 116.556 5.11134 116.576 5.12127 116.595C5.13121 116.613 5.14498 116.628 5.16134 116.639L6.51684 117.529C6.54241 117.546 6.57269 117.551 6.60127 117.543Z" fill="#6C63FF"/>
<path d="M8.53622 118.292C8.54721 118.289 8.55771 118.284 8.56735 118.277C8.58011 118.268 8.59122 118.257 8.60004 118.243C8.60886 118.229 8.61522 118.214 8.61875 118.197C8.62229 118.18 8.62293 118.163 8.62064 118.146C8.61835 118.129 8.61318 118.113 8.60541 118.098L6.75223 114.608C6.73648 114.579 6.71122 114.558 6.682 114.55C6.65277 114.542 6.62195 114.548 6.59628 114.565C6.57061 114.583 6.55218 114.612 6.54502 114.646C6.53786 114.679 6.54256 114.714 6.55808 114.744L8.41126 118.234C8.42391 118.258 8.44286 118.276 8.46535 118.287C8.48784 118.297 8.51267 118.299 8.53622 118.292Z" fill="#6C63FF"/>
<path d="M178.411 142.391C178.272 142.472 178.131 142.552 177.992 142.63C174.402 144.687 171.53 145.856 167.601 147.136C167.269 142.893 166.949 135.436 166.638 130.813C166.556 129.613 166.474 128.606 166.395 127.895C166.374 127.517 166.307 127.145 166.195 126.789L166.208 127.895L166.242 130.813L166.44 147.501C161.553 148.982 156.532 149.811 151.479 149.971C151.215 149.979 150.956 149.984 150.706 149.989C150.618 149.992 150.532 149.994 150.445 149.994C150.161 149.997 149.879 149.999 149.595 149.999C144.27 150.004 138.964 149.267 133.794 147.805C133.905 143.607 134.016 136.232 134.123 130.813C134.146 129.754 134.166 128.767 134.189 127.895C134.232 126.032 134.278 124.688 134.321 124.238C134.283 124.318 134.253 124.403 134.232 124.491C134.022 125.613 133.878 126.751 133.803 127.895C133.723 128.767 133.644 129.754 133.564 130.813C133.141 136.443 132.701 144.099 132.246 147.344C129.541 146.498 126.887 145.452 124.3 144.213C122.937 143.562 121.597 142.86 120.282 142.107C120.532 140.233 120.794 138.133 121.062 135.954C121.271 134.265 121.487 132.529 121.707 130.813C122.048 128.163 133.628 99.5493 136.357 98.5472L136.425 98.5263L136.473 98.5498L141.12 96.9151L141.799 96.6757L142.256 96.5143L143.865 95.1113L144.739 94.3486L145.56 93.6328L147.164 92.235L157.096 92.9352L159.03 98.2687L163.361 100.083L163.436 100.044L163.502 100.013L163.57 100.033C166.298 101.035 168.646 103.075 170.223 105.815C170.437 106.182 170.696 106.666 170.989 107.251C171.239 107.749 171.512 108.316 171.807 108.943C172.228 109.836 172.687 110.843 173.173 111.934C173.28 112.174 173.389 112.418 173.498 112.665C173.7 113.124 173.905 113.591 174.114 114.068C174.598 115.175 175.097 116.33 175.597 117.504C176.031 118.522 176.47 120.615 176.902 123.278C177.258 125.49 177.613 128.098 177.956 130.813C178.406 134.332 177.927 138.546 178.333 141.785C178.358 141.99 178.386 142.191 178.411 142.391Z" fill="#3F3D56"/>
<path d="M149.281 90.3205C155.66 90.3205 160.832 84.3962 160.832 77.0881C160.832 69.7801 155.66 63.8557 149.281 63.8557C142.901 63.8557 137.729 69.7801 137.729 77.0881C137.729 84.3962 142.901 90.3205 149.281 90.3205Z" fill="#FFB6B6"/>
<path opacity="0.2" d="M130.808 123.266L132.739 114.731L134.444 122.096L130.808 123.266Z" fill="black"/>
<path d="M182.187 117.705C181.496 128.606 182.212 133.406 178.399 142.394C174.93 144.339 171.316 145.926 167.601 147.136C167.215 147.261 166.828 147.383 166.44 147.501C161.553 148.982 156.533 149.811 151.479 149.971C151.216 149.979 150.957 149.984 150.707 149.989C150.618 149.992 150.532 149.994 150.445 149.994C150.161 149.997 149.879 149.999 149.595 149.999C144.27 150.004 138.964 149.267 133.794 147.805C133.276 147.659 132.76 147.506 132.246 147.344C129.541 146.498 126.887 145.452 124.3 144.213C122.937 143.562 121.597 142.86 120.283 142.107C119.985 141.936 119.687 141.764 119.394 141.587C117.888 138.552 117.031 134.861 117.013 130.425C118.056 122.783 179.883 111.114 182.187 117.705Z" fill="#2F2E41"/>
<path opacity="0.2" d="M182.185 119.572C182.221 118.897 182.26 118.2 182.306 117.474C180.002 110.883 118.175 122.552 117.132 130.194C117.134 130.895 117.161 131.575 117.205 132.239C119.73 124.696 178.467 113.605 182.185 119.572Z" fill="black"/>
<path d="M115.475 118.219L120.55 115.312L116.321 102.232L115.206 95.636C115.061 94.779 114.723 93.9805 114.224 93.3204C113.726 92.6603 113.084 92.1616 112.365 91.8742C111.645 91.5868 110.873 91.5208 110.124 91.6827C109.375 91.8446 108.676 92.2288 108.098 92.7969C107.24 93.6387 106.702 94.8291 106.597 96.117C106.491 97.4048 106.826 98.6893 107.531 99.6994L111.669 105.623L115.475 118.219Z" fill="#FFB6B6"/>
<path d="M120.55 112.89L113.783 116.766L118.919 135.197C119.287 136.52 119.948 137.712 120.838 138.657C121.727 139.602 122.814 140.267 123.994 140.589C125.449 140.986 126.976 140.842 128.354 140.177C129.733 139.513 130.891 138.363 131.66 136.894L145.277 110.158C146.242 108.316 146.54 106.114 146.107 104.024C145.674 101.933 144.545 100.12 142.96 98.97C142.108 98.3517 141.152 97.9459 140.154 97.7791C139.155 97.6122 138.138 97.6879 137.167 98.0013C136.196 98.3147 135.293 98.8589 134.518 99.5982C133.743 100.338 133.112 101.256 132.667 102.293L124.356 122.579L120.55 112.89Z" fill="#3F3D56"/>
<path d="M47.6067 89.4074C54.6263 89.4074 60.3169 82.8889 60.3169 74.8479C60.3169 66.8069 54.6263 60.2883 47.6067 60.2883C40.587 60.2883 34.8965 66.8069 34.8965 74.8479C34.8965 82.8889 40.587 89.4074 47.6067 89.4074Z" fill="#A0616A"/>
<path d="M35.0491 64.8147C36.0825 63.2191 37.5679 62.0847 38.7041 60.5836C39.3275 59.76 39.8451 58.8268 40.5459 58.0894C41.8481 56.7195 43.6691 56.1581 45.436 56.0883C47.3725 56.0313 49.2935 56.4974 51.0435 57.4487C52.7935 58.4001 54.3234 59.81 55.5094 61.5645C56.433 60.9442 57.3566 60.3239 58.2802 59.7036C58.6451 60.8037 59.01 61.9038 59.3749 63.004C59.6743 62.7058 60.0563 62.5387 60.453 62.5324C60.8497 62.526 61.2356 62.6807 61.5423 62.9691C61.8489 63.2575 62.0565 63.661 62.1283 64.108C62.2001 64.555 62.1313 65.0167 61.9343 65.4112C62.1541 64.6331 63.1612 64.4681 63.7164 64.9821C64.2716 65.4961 64.4203 66.4106 64.3297 67.2217C64.216 68.1115 63.8726 68.9421 63.3435 69.6066C62.8145 70.2711 62.1241 70.7392 61.361 70.9506C60.1557 71.2582 58.7529 70.9351 57.7883 71.8181C57.0149 72.5259 56.7815 73.8149 55.9922 74.4994C55.0196 75.3428 53.645 74.9528 52.4361 75.1392C50.321 75.4653 48.6463 77.9433 48.9005 80.3706C48.7091 79.6047 48.508 78.8166 48.0737 78.1945C47.6393 77.5723 46.9078 77.1515 46.2416 77.3803C45.1405 77.7584 44.9604 79.4776 45.2272 80.7584C45.935 84.1553 48.6174 89.6459 48.6174 89.6459C45.1344 91.2197 40.985 89.7315 38.2976 86.7452C35.6103 83.7588 34.2107 79.5302 33.601 75.2985C33.0841 71.7102 33.1573 67.7355 35.0491 64.8147Z" fill="#2F2E41"/>
<path d="M163.757 84.3826C166.175 78.0319 164.805 72.1879 161.857 69.0877V69.0851C160.698 66.11 159.158 63.8142 157.395 63.2754C156.542 62.6481 155.715 61.9114 154.797 61.5366C154.37 61.3532 153.914 61.2709 153.458 61.2946C153.002 61.3183 152.555 61.4476 152.143 61.6746L151.675 61.5314C151.277 60.3679 150.812 60.3445 150.294 61.1097C148.298 60.0451 146.501 59.5688 144.901 59.5688C139.684 59.5688 136.598 64.6289 135.78 70.7458L140.141 72.0759L141.656 69.309L140.957 72.3258L143.363 73.0572C147.026 78.5208 142.643 91.1242 137.087 98.1365C138.409 97.7174 139.727 97.3634 141.038 97.0745L145.806 89.0679L142.852 96.3561C144.386 96.0984 146.342 96.3457 148.48 96.8428C149.201 95.7652 149.58 94.3284 149.207 93.0478C149.817 94.3984 150.237 95.8503 150.453 97.3504C154.965 98.6128 161.121 99.261 164.439 99.7399C167.119 98.7376 167.126 87.4177 163.757 84.3826Z" fill="#2F2E41"/>
<path d="M165.33 62.7804C167.101 67.3233 163.528 69.2774 160.254 69.2222C157.295 69.1723 154.781 66.7916 154.63 63.4069C154.558 61.7815 155.052 60.1897 156.004 58.9816C156.956 57.7735 158.288 57.0481 159.707 56.9651C162.661 56.792 164.124 59.6858 165.33 62.7804Z" fill="#2F2E41"/>
<path d="M83.1627 136.735L80.2451 131.16L89.9459 122.73L93.9792 117.852C94.5033 117.218 95.1633 116.753 95.8934 116.503C96.6235 116.253 97.3981 116.227 98.1398 116.427C98.8814 116.627 99.5642 117.047 100.12 117.644C100.676 118.242 101.085 118.996 101.306 119.831C101.635 121.068 101.531 122.404 101.016 123.555C100.501 124.706 99.6159 125.584 98.5472 126.002L92.2795 128.453L83.1627 136.735Z" fill="#A0616A"/>
<path d="M85.2712 136.551L80.7289 140.887L79.5041 142.056L79.361 142.191C79.0451 142.371 78.727 142.548 78.4066 142.722C77.4477 143.245 76.4767 143.743 75.4935 144.214C72.9066 145.453 70.2523 146.499 67.5472 147.345C67.0337 147.506 66.5179 147.66 65.9998 147.806C65.6839 147.894 65.3658 147.983 65.0477 148.066C64.8477 148.121 64.6455 148.173 64.4432 148.222C64.1978 148.285 63.9524 148.347 63.707 148.404C63.4502 148.467 63.1935 148.527 62.9367 148.584C62.2458 147.831 61.6957 146.925 61.3199 145.921C60.9441 144.917 60.7505 143.835 60.7507 142.743C60.7507 142.673 60.7507 142.6 60.753 142.527L61.4824 121.097L61.8051 111.599C61.8548 109.451 62.6359 107.41 63.9814 105.913C65.327 104.416 67.1303 103.581 69.0061 103.587C69.2242 103.587 69.4401 103.6 69.6537 103.623C69.8082 103.853 69.9513 104.089 70.0899 104.329C70.4672 104.969 70.9762 105.982 71.576 107.252C71.8237 107.775 72.085 108.343 72.36 108.944C72.5259 109.306 73.9574 114.423 75.3504 119.65L74.7368 125.108L73.6279 134.947L78.1771 131.527L81.3811 129.117L81.7605 129.843L82.749 131.733L84.6577 135.377L85.2712 136.551Z" fill="#3F3D56"/>
<path d="M82.7809 130.426C82.7787 130.868 82.7696 131.303 82.7491 131.733C82.7018 132.917 82.5818 134.097 82.3901 135.262C82.0765 137.219 81.517 139.114 80.7291 140.887C80.6245 141.124 80.5132 141.358 80.3996 141.587C80.1064 141.764 79.8088 141.936 79.5111 142.108C79.4611 142.137 79.4111 142.165 79.3611 142.191C78.0954 142.912 76.8063 143.586 75.4936 144.214C72.9067 145.453 70.2524 146.499 67.5474 147.345C67.0338 147.506 66.518 147.66 65.9999 147.806C64.9887 148.092 63.9677 148.352 62.9368 148.584C58.7408 149.528 54.4745 150.002 50.1982 150C49.9142 150 49.6324 149.997 49.3484 149.995C49.2621 149.995 49.1757 149.992 49.0871 149.99C48.8371 149.984 48.5781 149.979 48.3145 149.971C43.2611 149.811 38.2408 148.982 33.3536 147.501C32.965 147.384 32.578 147.263 32.1924 147.137C28.4773 145.926 24.8636 144.339 21.3944 142.394C17.5814 133.406 18.2972 128.606 17.6064 117.705C19.0244 113.647 43.0132 116.513 61.4826 121.097C66.4953 122.341 71.099 123.713 74.737 125.108C78.4954 126.548 81.2199 128.01 82.2879 129.385C82.5374 129.669 82.7088 130.031 82.7809 130.426Z" fill="#2F2E41"/>
<path opacity="0.2" d="M17.6075 119.572C17.5723 118.897 17.5328 118.2 17.4868 117.474C19.7909 110.883 81.6183 122.552 82.6613 130.194C82.6584 130.895 82.6323 131.575 82.5883 132.239C80.0625 124.696 21.3257 113.605 17.6075 119.572Z" fill="black"/>
</g>
<defs>
<clipPath id="clip0_26_132">
<rect width="200" height="150" fill="white"/>
</clipPath>
</defs>
</svg>
