<svg width="350" height="300" viewBox="0 0 350 300" fill="none" xmlns="http://www.w3.org/2000/svg">
<g clip-path="url(#clip0_80_324)">
<path d="M173.201 51.0003C179.065 51.0003 183.818 44.777 183.818 37.1002C183.818 29.4234 179.065 23.2002 173.201 23.2002C167.337 23.2002 162.583 29.4234 162.583 37.1002C162.583 44.777 167.337 51.0003 173.201 51.0003Z" fill="#FD6584"/>
<path d="M196.964 30.5183C196.664 29.233 196.084 28.0903 195.295 27.231C194.506 26.3717 193.542 25.8333 192.522 25.6821C192.498 25.6795 192.474 25.6795 192.451 25.6821C192.422 25.6704 192.393 25.6617 192.363 25.656C188.808 25.0522 184.855 26.5202 182.195 29.7166C181.207 30.8845 180.418 32.3103 179.877 33.9021C179.384 33.0203 178.734 32.3091 177.983 31.8302C177.233 31.3512 176.405 31.1189 175.57 31.1534C174.494 31.2466 173.466 31.7719 172.626 32.6579C171.786 33.5439 171.176 34.7474 170.878 36.1042C170.845 36.27 170.854 36.4452 170.903 36.6037C170.953 36.7623 171.04 36.8956 171.152 36.984C171.472 37.3421 171.852 37.5955 172.262 37.7232C173.14 37.9679 174.027 38.1918 174.914 38.3948C176.648 38.7905 178.391 39.1115 180.143 39.3579C181.3 39.5193 182.46 39.6477 183.623 39.7431C186.024 39.9409 188.438 39.9878 190.844 39.8889C192.037 39.8368 193.182 39.7848 194.272 39.0976C195.066 38.5864 195.744 37.8131 196.24 36.8539C196.707 35.9312 197.014 34.8858 197.139 33.7912C197.264 32.6966 197.204 31.5794 196.964 30.5183Z" fill="#E6E6E6"/>
<path d="M175.121 50.7692C175.1 50.1867 175.026 49.6098 174.898 49.0512C174.597 47.766 174.016 46.6237 173.226 45.7646C172.436 44.9054 171.472 44.3669 170.452 44.215C170.43 44.2124 170.407 44.2124 170.384 44.215C170.354 44.2038 170.324 44.1951 170.293 44.189C168.325 43.8734 166.329 44.1421 164.451 44.975C161.564 46.2401 159.031 48.7909 157.811 52.4351C157.317 51.5527 156.666 50.8411 155.915 50.3622C155.164 49.8832 154.335 49.6512 153.5 49.6864C152.424 49.7795 151.396 50.3049 150.556 51.1908C149.716 52.0768 149.106 53.2803 148.808 54.6372C148.777 54.8029 148.787 54.9773 148.836 55.1353C148.885 55.2933 148.971 55.4269 149.082 55.5169C149.402 55.874 149.782 56.1273 150.192 56.2562C151.074 56.5008 151.957 56.7247 152.848 56.9277C154.582 57.3234 156.323 57.6444 158.073 57.8908C161.628 58.3904 165.205 58.5678 168.778 58.4218C169.967 58.3697 171.116 58.3177 172.206 57.6305C172.998 57.1192 173.676 56.3457 174.17 55.3868C174.867 54.0269 175.201 52.4035 175.121 50.7692Z" fill="#E6E6E6"/>
<path d="M313.405 219.434C313.557 228.911 312.558 238.36 310.445 247.427C310.371 247.756 310.282 248.086 310.194 248.415H266.628C267.251 244.4 268.24 240.498 269.573 236.791C273.199 226.718 279.118 218.097 284.963 209.534C293.013 197.736 300.871 186.035 302.114 170.692C305.305 177.06 307.852 183.943 309.69 191.169C307.439 192.261 305.373 193.919 303.609 196.051C303.12 196.651 302.602 197.523 302.854 198.356C303.091 199.054 303.742 199.286 304.319 199.441C305.71 199.79 307.101 200.138 308.492 200.468C309.587 200.758 310.697 201.03 311.807 201.301C312.782 207.264 313.317 213.336 313.405 219.434Z" fill="#F2F2F2"/>
<path d="M350 213.157C343.015 218.717 338.576 227.318 334.95 236.946C331.796 237.888 328.883 239.891 326.501 242.758C325.998 243.359 325.48 244.23 325.746 245.063C325.968 245.761 326.634 245.993 327.211 246.148C328.587 246.497 329.993 246.846 331.369 247.175C331.236 247.582 331.103 248.008 330.97 248.415H284.8C286.896 244.715 289.217 241.242 291.741 238.031C292.288 237.314 292.85 236.636 293.427 235.939C299.313 228.976 306.071 223.392 313.405 219.434C324.958 213.111 337.592 210.944 350 213.157Z" fill="#F2F2F2"/>
<path d="M292.495 248.415H251.387C251.162 244.105 251.182 239.78 251.446 235.474C253.088 208.875 264.142 183.536 280.82 168.193C278.689 178.131 279.784 188.011 282.004 197.93C281.693 198.066 281.382 198.182 281.101 198.337C278.85 199.429 276.783 201.087 275.019 203.219C274.531 203.819 274.013 204.691 274.264 205.524C274.486 206.221 275.152 206.454 275.729 206.609C277.12 206.958 278.511 207.306 279.887 207.636C280.997 207.926 282.107 208.197 283.217 208.488C283.735 208.604 284.253 208.74 284.771 208.875C284.845 209.108 284.889 209.321 284.963 209.534C287.568 218.93 290.409 228.403 291.741 238.031C292.07 240.447 292.298 242.886 292.421 245.335C292.466 246.362 292.495 247.388 292.495 248.415Z" fill="#F2F2F2"/>
<path d="M68.4492 219.434C68.6017 228.911 67.6027 238.36 65.4896 247.427C65.4155 247.756 65.3267 248.086 65.238 248.415H21.6729C22.2956 244.4 23.2843 240.498 24.6177 236.791C28.2431 226.718 34.1623 218.097 40.0075 209.534C48.0576 197.736 55.9153 186.035 57.1584 170.692C60.3492 177.06 62.896 183.943 64.7349 191.169C62.4835 192.261 60.4173 193.919 58.653 196.051C58.1646 196.651 57.6466 197.523 57.8982 198.356C58.135 199.054 58.7861 199.286 59.3632 199.441C60.7542 199.79 62.1452 200.138 63.5362 200.468C64.6313 200.758 65.7411 201.03 66.851 201.301C67.8264 207.264 68.3616 213.336 68.4492 219.434Z" fill="#F2F2F2"/>
<path d="M105.044 213.157C98.0597 218.717 93.6203 227.318 89.9949 236.946C86.84 237.888 83.9274 239.891 81.5453 242.758C81.0421 243.359 80.5242 244.23 80.7906 245.063C81.0126 245.761 81.6785 245.993 82.2555 246.148C83.6317 246.497 85.0376 246.846 86.4138 247.175C86.2806 247.582 86.1474 248.008 86.0143 248.415H39.8447C41.9406 244.715 44.2616 241.242 46.785 238.031C47.3325 237.314 47.8948 236.636 48.4719 235.939C54.3574 228.976 61.1153 223.392 68.4491 219.434C80.0026 213.111 92.6367 210.944 105.044 213.157Z" fill="#F2F2F2"/>
<path d="M47.5398 248.415H6.4311C6.20661 244.105 6.22642 239.78 6.49035 235.474C8.1329 208.875 19.1869 183.536 35.8642 168.193C33.7333 178.131 34.8283 188.011 37.048 197.93C36.7373 198.066 36.4265 198.182 36.1454 198.337C33.894 199.429 31.8278 201.087 30.0634 203.219C29.5751 203.819 29.0572 204.691 29.3087 205.524C29.5306 206.221 30.1966 206.454 30.7737 206.609C32.1647 206.958 33.5557 207.306 34.9319 207.636C36.0418 207.926 37.1516 208.197 38.2614 208.488C38.7793 208.604 39.2973 208.74 39.8152 208.875C39.8892 209.108 39.9336 209.321 40.0076 209.534C42.612 218.93 45.4532 228.403 46.7851 238.031C47.1147 240.447 47.342 242.886 47.4658 245.335C47.5102 246.362 47.5398 247.388 47.5398 248.415Z" fill="#F2F2F2"/>
<path d="M200.581 225.82L237.312 230.089L237.706 230.136V24.9518C237.575 24.832 237.444 24.7123 237.312 24.5926C229.657 17.5827 221.376 11.8239 212.654 7.44441L210.777 41.3346L210.606 44.4373L208.749 78.0464L208.176 88.3854L200.649 224.623L200.581 225.82Z" fill="#E6E6E6"/>
<path d="M109.745 21.1307C109.482 21.3493 109.22 21.5679 108.958 21.797V230.136L109.745 230.042L146.079 225.82L146.011 224.623L138.483 88.3853L137.911 78.0465L136.054 44.4374L135.883 41.3346L133.914 5.79416C125.426 9.64617 117.313 14.7938 109.745 21.1307Z" fill="#E6E6E6"/>
<path d="M108.958 21.797C108.429 22.2447 107.9 22.7028 107.379 23.1661V232.978C107.379 238.221 109.753 242.615 112.926 243.734C113.445 243.918 113.98 244.01 114.517 244.01H232.541C233.077 244.011 233.61 243.918 234.127 243.734C235.307 243.305 236.376 242.467 237.221 241.308C238.833 239.052 239.714 236.067 239.679 232.978V26.8154C239.027 26.1855 238.37 25.5608 237.706 24.9517C237.575 24.832 237.444 24.7123 237.313 24.5925V232.978C237.314 233.654 237.252 234.327 237.13 234.983C236.569 238.08 234.72 240.35 232.541 240.35H114.517C111.884 240.35 109.745 237.044 109.745 232.978V21.1306C109.482 21.3493 109.22 21.5679 108.958 21.797Z" fill="#E6E6E6"/>
<path d="M238.496 41.3367H108.561V44.4389H238.496V41.3367Z" fill="#E6E6E6"/>
<path d="M198.7 1.7648C197.913 1.50971 197.125 1.27024 196.33 1.04639V85.2826H198.7V1.7648Z" fill="#E6E6E6"/>
<path d="M150.727 0C149.936 0.192617 149.144 0.390442 148.357 0.603883V85.2826H150.727V0Z" fill="#E6E6E6"/>
<path d="M83.0859 238.58C83.0854 240.36 83.3459 242.124 83.8534 243.775C84.0483 244.416 84.281 245.035 84.5493 245.629C84.8959 246.402 85.298 247.131 85.7502 247.805C86.7492 249.295 87.9797 250.489 89.3595 251.307C90.7392 252.125 92.2364 252.548 93.751 252.547H249.357C252.186 252.547 254.899 251.076 256.899 248.458C258.899 245.839 260.022 242.288 260.022 238.585C260.022 234.882 258.899 231.331 256.899 228.712C254.899 226.094 252.186 224.623 249.357 224.623H93.751C90.924 224.627 88.2135 226.098 86.2142 228.715C84.2148 231.331 83.0898 234.879 83.0859 238.58Z" fill="#E6E6E6"/>
<path d="M108.561 88.3865L237.706 88.3865V78.0459L108.561 78.0459V88.3865Z" fill="#E6E6E6"/>
<path d="M178.662 80.631H167.604C167.604 79.1227 168.062 77.6761 168.876 76.6095C169.691 75.5429 170.796 74.9437 171.948 74.9437H174.318C174.888 74.9437 175.453 75.0908 175.98 75.3766C176.507 75.6624 176.986 76.0814 177.39 76.6095C177.793 77.1376 178.113 77.7646 178.331 78.4546C178.55 79.1446 178.662 79.8842 178.662 80.631Z" fill="#E6E6E6"/>
<path d="M0 246.555C3.45453 251.914 7.19099 256.95 11.1821 261.626H331.923C335.914 256.95 339.65 251.914 343.105 246.555H0Z" fill="#3F3D56"/>
<path d="M157.746 196.157V249.549H186.317V196.157C186.318 195.773 186.224 195.399 186.05 195.09C185.876 194.781 185.631 194.553 185.351 194.439C185.219 194.382 185.08 194.354 184.941 194.356H159.125C158.944 194.356 158.765 194.402 158.598 194.492C158.431 194.582 158.279 194.715 158.15 194.882C158.022 195.05 157.921 195.248 157.851 195.467C157.782 195.686 157.746 195.92 157.746 196.157ZM168.896 214.503C168.903 213.45 169.228 212.444 169.799 211.704C170.37 210.963 171.142 210.547 171.946 210.547C172.75 210.547 173.521 210.963 174.092 211.704C174.664 212.444 174.988 213.45 174.996 214.503V220.698C174.992 221.753 174.669 222.764 174.097 223.508C173.526 224.252 172.752 224.67 171.946 224.67C171.14 224.67 170.366 224.252 169.795 223.508C169.223 222.764 168.9 221.753 168.896 220.698V214.503Z" fill="#2F2E41"/>
<path d="M157.658 247.841V252.99C157.659 253.257 157.74 253.512 157.883 253.701C158.027 253.89 158.222 253.998 158.426 254H185.637C185.841 253.998 186.036 253.891 186.18 253.702C186.324 253.513 186.405 253.257 186.405 252.99V247.841H157.658Z" fill="#3F3D56"/>
<path d="M112.799 115.716V213.201C112.8 214.444 113.177 215.635 113.848 216.513C114.519 217.392 115.429 217.886 116.378 217.887H226.727C227.676 217.886 228.586 217.392 229.257 216.513C229.928 215.635 230.305 214.444 230.306 213.201V115.716C230.304 114.475 229.926 113.285 229.255 112.408C228.584 111.531 227.675 111.038 226.727 111.036H116.378C115.43 111.038 114.521 111.531 113.85 112.408C113.179 113.285 112.801 114.475 112.799 115.716Z" fill="#3F3D56"/>
<path d="M115.388 116.929V211.999C115.389 212.663 115.59 213.299 115.949 213.768C116.307 214.237 116.793 214.502 117.3 214.503H225.809C226.316 214.502 226.802 214.237 227.16 213.768C227.519 213.299 227.72 212.663 227.721 211.999V116.929C227.721 116.265 227.52 115.627 227.161 115.157C226.803 114.686 226.316 114.421 225.809 114.42H117.3C116.793 114.421 116.306 114.686 115.948 115.157C115.589 115.627 115.388 116.265 115.388 116.929Z" fill="#6C63FF"/>
<path d="M137.513 255.213C137.624 255.394 137.764 255.54 137.924 255.64C138.084 255.74 138.259 255.792 138.436 255.791H202.991C203.168 255.79 203.342 255.738 203.501 255.639C203.661 255.539 203.801 255.395 203.912 255.215C204.023 255.036 204.103 254.826 204.144 254.601C204.186 254.377 204.188 254.143 204.152 253.916L203.15 247.685C203.109 247.431 203.019 247.194 202.89 246.997C202.761 246.8 202.596 246.648 202.41 246.555C202.276 246.486 202.133 246.451 201.989 246.451H139.434C139.29 246.451 139.147 246.486 139.012 246.555C138.827 246.648 138.662 246.8 138.533 246.997C138.404 247.194 138.314 247.431 138.273 247.685L137.271 253.916C137.235 254.143 137.238 254.376 137.28 254.6C137.322 254.825 137.402 255.034 137.513 255.213Z" fill="#2F2E41"/>
<path d="M199.736 249.135H201.336C201.443 249.135 201.53 249.021 201.53 248.881V247.828C201.53 247.687 201.443 247.573 201.336 247.573H199.736C199.629 247.573 199.542 247.687 199.542 247.828V248.881C199.542 249.021 199.629 249.135 199.736 249.135Z" fill="#3F3D56"/>
<path d="M195.76 249.135H197.36C197.467 249.135 197.554 249.021 197.554 248.881V247.828C197.554 247.687 197.467 247.573 197.36 247.573H195.76C195.652 247.573 195.565 247.687 195.565 247.828V248.881C195.565 249.021 195.652 249.135 195.76 249.135Z" fill="#3F3D56"/>
<path d="M191.783 249.135H193.383C193.49 249.135 193.577 249.021 193.577 248.881V247.828C193.577 247.687 193.49 247.573 193.383 247.573H191.783C191.676 247.573 191.589 247.687 191.589 247.828V248.881C191.589 249.021 191.676 249.135 191.783 249.135Z" fill="#3F3D56"/>
<path d="M187.806 249.135H189.406C189.514 249.135 189.601 249.021 189.601 248.881V247.828C189.601 247.687 189.514 247.573 189.406 247.573H187.806C187.699 247.573 187.612 247.687 187.612 247.828V248.881C187.612 249.021 187.699 249.135 187.806 249.135Z" fill="#3F3D56"/>
<path d="M183.83 249.135H185.43C185.537 249.135 185.624 249.021 185.624 248.881V247.828C185.624 247.687 185.537 247.573 185.43 247.573H183.83C183.723 247.573 183.636 247.687 183.636 247.828V248.881C183.636 249.021 183.723 249.135 183.83 249.135Z" fill="#3F3D56"/>
<path d="M179.853 249.135H181.453C181.561 249.135 181.647 249.021 181.647 248.881V247.828C181.647 247.687 181.561 247.573 181.453 247.573H179.853C179.746 247.573 179.659 247.687 179.659 247.828V248.881C179.659 249.021 179.746 249.135 179.853 249.135Z" fill="#3F3D56"/>
<path d="M175.877 249.135H177.477C177.584 249.135 177.671 249.021 177.671 248.881V247.828C177.671 247.687 177.584 247.573 177.477 247.573H175.877C175.77 247.573 175.683 247.687 175.683 247.828V248.881C175.683 249.021 175.77 249.135 175.877 249.135Z" fill="#3F3D56"/>
<path d="M171.9 249.135H173.5C173.607 249.135 173.694 249.021 173.694 248.881V247.828C173.694 247.687 173.607 247.573 173.5 247.573H171.9C171.793 247.573 171.706 247.687 171.706 247.828V248.881C171.706 249.021 171.793 249.135 171.9 249.135Z" fill="#3F3D56"/>
<path d="M167.924 249.135H169.524C169.631 249.135 169.718 249.021 169.718 248.881V247.828C169.718 247.687 169.631 247.573 169.524 247.573H167.924C167.816 247.573 167.729 247.687 167.729 247.828V248.881C167.729 249.021 167.816 249.135 167.924 249.135Z" fill="#3F3D56"/>
<path d="M163.947 249.135H165.547C165.654 249.135 165.741 249.021 165.741 248.881V247.828C165.741 247.687 165.654 247.573 165.547 247.573H163.947C163.84 247.573 163.753 247.687 163.753 247.828V248.881C163.753 249.021 163.84 249.135 163.947 249.135Z" fill="#3F3D56"/>
<path d="M159.97 249.135H161.571C161.678 249.135 161.765 249.021 161.765 248.881V247.828C161.765 247.687 161.678 247.573 161.571 247.573H159.97C159.863 247.573 159.776 247.687 159.776 247.828V248.881C159.776 249.021 159.863 249.135 159.97 249.135Z" fill="#3F3D56"/>
<path d="M155.994 249.135H157.594C157.701 249.135 157.788 249.021 157.788 248.881V247.828C157.788 247.687 157.701 247.573 157.594 247.573H155.994C155.887 247.573 155.8 247.687 155.8 247.828V248.881C155.8 249.021 155.887 249.135 155.994 249.135Z" fill="#3F3D56"/>
<path d="M152.017 249.135H153.617C153.725 249.135 153.812 249.021 153.812 248.881V247.828C153.812 247.687 153.725 247.573 153.617 247.573H152.017C151.91 247.573 151.823 247.687 151.823 247.828V248.881C151.823 249.021 151.91 249.135 152.017 249.135Z" fill="#3F3D56"/>
<path d="M148.041 249.135H149.641C149.748 249.135 149.835 249.021 149.835 248.881V247.828C149.835 247.687 149.748 247.573 149.641 247.573H148.041C147.934 247.573 147.847 247.687 147.847 247.828V248.881C147.847 249.021 147.934 249.135 148.041 249.135Z" fill="#3F3D56"/>
<path d="M144.064 249.135H145.664C145.771 249.135 145.858 249.021 145.858 248.881V247.828C145.858 247.687 145.771 247.573 145.664 247.573H144.064C143.957 247.573 143.87 247.687 143.87 247.828V248.881C143.87 249.021 143.957 249.135 144.064 249.135Z" fill="#3F3D56"/>
<path d="M140.088 249.135H141.688C141.795 249.135 141.882 249.021 141.882 248.881V247.828C141.882 247.687 141.795 247.573 141.688 247.573H140.088C139.98 247.573 139.894 247.687 139.894 247.828V248.881C139.894 249.021 139.98 249.135 140.088 249.135Z" fill="#3F3D56"/>
<path d="M199.783 251.738H201.383C201.49 251.738 201.577 251.624 201.577 251.484V250.431C201.577 250.29 201.49 250.176 201.383 250.176H199.783C199.676 250.176 199.589 250.29 199.589 250.431V251.484C199.589 251.624 199.676 251.738 199.783 251.738Z" fill="#3F3D56"/>
<path d="M195.806 251.738H197.406C197.514 251.738 197.601 251.624 197.601 251.484V250.431C197.601 250.29 197.514 250.176 197.406 250.176H195.806C195.699 250.176 195.612 250.29 195.612 250.431V251.484C195.612 251.624 195.699 251.738 195.806 251.738Z" fill="#3F3D56"/>
<path d="M191.83 251.738H193.43C193.537 251.738 193.624 251.624 193.624 251.484V250.431C193.624 250.29 193.537 250.176 193.43 250.176H191.83C191.723 250.176 191.636 250.29 191.636 250.431V251.484C191.636 251.624 191.723 251.738 191.83 251.738Z" fill="#3F3D56"/>
<path d="M187.853 251.738H189.453C189.561 251.738 189.647 251.624 189.647 251.484V250.431C189.647 250.29 189.561 250.176 189.453 250.176H187.853C187.746 250.176 187.659 250.29 187.659 250.431V251.484C187.659 251.624 187.746 251.738 187.853 251.738Z" fill="#3F3D56"/>
<path d="M183.877 251.738H185.477C185.584 251.738 185.671 251.624 185.671 251.484V250.431C185.671 250.29 185.584 250.176 185.477 250.176H183.877C183.77 250.176 183.683 250.29 183.683 250.431V251.484C183.683 251.624 183.77 251.738 183.877 251.738Z" fill="#3F3D56"/>
<path d="M179.9 251.738H181.5C181.607 251.738 181.694 251.624 181.694 251.484V250.431C181.694 250.29 181.607 250.176 181.5 250.176H179.9C179.793 250.176 179.706 250.29 179.706 250.431V251.484C179.706 251.624 179.793 251.738 179.9 251.738Z" fill="#3F3D56"/>
<path d="M175.924 251.738H177.524C177.631 251.738 177.718 251.624 177.718 251.484V250.431C177.718 250.29 177.631 250.176 177.524 250.176H175.924C175.816 250.176 175.729 250.29 175.729 250.431V251.484C175.729 251.624 175.816 251.738 175.924 251.738Z" fill="#3F3D56"/>
<path d="M171.948 251.738H173.548C173.655 251.738 173.742 251.624 173.742 251.484V250.431C173.742 250.29 173.655 250.176 173.548 250.176H171.948C171.84 250.176 171.753 250.29 171.753 250.431V251.484C171.753 251.624 171.84 251.738 171.948 251.738Z" fill="#3F3D56"/>
<path d="M167.971 251.738H169.571C169.678 251.738 169.765 251.624 169.765 251.484V250.431C169.765 250.29 169.678 250.176 169.571 250.176H167.971C167.864 250.176 167.777 250.29 167.777 250.431V251.484C167.777 251.624 167.864 251.738 167.971 251.738Z" fill="#3F3D56"/>
<path d="M163.994 251.738H165.594C165.702 251.738 165.789 251.624 165.789 251.484V250.431C165.789 250.29 165.702 250.176 165.594 250.176H163.994C163.887 250.176 163.8 250.29 163.8 250.431V251.484C163.8 251.624 163.887 251.738 163.994 251.738Z" fill="#3F3D56"/>
<path d="M160.018 251.738H161.618C161.725 251.738 161.812 251.624 161.812 251.484V250.431C161.812 250.29 161.725 250.176 161.618 250.176H160.018C159.911 250.176 159.824 250.29 159.824 250.431V251.484C159.824 251.624 159.911 251.738 160.018 251.738Z" fill="#3F3D56"/>
<path d="M156.041 251.738H157.641C157.749 251.738 157.835 251.624 157.835 251.484V250.431C157.835 250.29 157.749 250.176 157.641 250.176H156.041C155.934 250.176 155.847 250.29 155.847 250.431V251.484C155.847 251.624 155.934 251.738 156.041 251.738Z" fill="#3F3D56"/>
<path d="M152.065 251.738H153.665C153.772 251.738 153.859 251.624 153.859 251.484V250.431C153.859 250.29 153.772 250.176 153.665 250.176H152.065C151.958 250.176 151.871 250.29 151.871 250.431V251.484C151.871 251.624 151.958 251.738 152.065 251.738Z" fill="#3F3D56"/>
<path d="M148.088 251.738H149.688C149.795 251.738 149.882 251.624 149.882 251.484V250.431C149.882 250.29 149.795 250.176 149.688 250.176H148.088C147.981 250.176 147.894 250.29 147.894 250.431V251.484C147.894 251.624 147.981 251.738 148.088 251.738Z" fill="#3F3D56"/>
<path d="M144.112 251.738H145.712C145.819 251.738 145.906 251.624 145.906 251.484V250.431C145.906 250.29 145.819 250.176 145.712 250.176H144.112C144.004 250.176 143.917 250.29 143.917 250.431V251.484C143.917 251.624 144.004 251.738 144.112 251.738Z" fill="#3F3D56"/>
<path d="M140.135 251.738H141.735C141.842 251.738 141.929 251.624 141.929 251.484V250.431C141.929 250.29 141.842 250.176 141.735 250.176H140.135C140.028 250.176 139.941 250.29 139.941 250.431V251.484C139.941 251.624 140.028 251.738 140.135 251.738Z" fill="#3F3D56"/>
<path d="M166.778 254.862H182.296C182.403 254.862 182.49 254.748 182.49 254.608V253.554C182.49 253.414 182.403 253.3 182.296 253.3H166.778C166.67 253.3 166.584 253.414 166.584 253.554V254.608C166.584 254.748 166.67 254.862 166.778 254.862Z" fill="#3F3D56"/>
<path d="M122.753 127.516H224.283C224.389 127.513 224.489 127.456 224.563 127.357C224.637 127.258 224.678 127.126 224.678 126.988C224.678 126.849 224.637 126.717 224.563 126.618C224.489 126.519 224.389 126.462 224.283 126.459H122.753C122.647 126.462 122.547 126.519 122.473 126.618C122.399 126.717 122.358 126.849 122.358 126.988C122.358 127.126 122.399 127.258 122.473 127.357C122.547 127.456 122.647 127.513 122.753 127.516Z" fill="#3F3D56"/>
<path d="M217.372 123.76C218.679 123.76 219.738 122.342 219.738 120.593C219.738 118.844 218.679 117.427 217.372 117.427C216.065 117.427 215.006 118.844 215.006 120.593C215.006 122.342 216.065 123.76 217.372 123.76Z" fill="#3F3D56"/>
<path d="M209.198 123.76C210.505 123.76 211.564 122.342 211.564 120.593C211.564 118.844 210.505 117.427 209.198 117.427C207.891 117.427 206.832 118.844 206.832 120.593C206.832 122.342 207.891 123.76 209.198 123.76Z" fill="#3F3D56"/>
<path d="M201.024 123.76C202.331 123.76 203.39 122.342 203.39 120.593C203.39 118.844 202.331 117.427 201.024 117.427C199.717 117.427 198.658 118.844 198.658 120.593C198.658 122.342 199.717 123.76 201.024 123.76Z" fill="#3F3D56"/>
<path d="M127.242 118.788C127.241 118.862 127.252 118.937 127.274 119.006C127.296 119.075 127.328 119.138 127.368 119.191C127.408 119.245 127.456 119.287 127.509 119.316C127.561 119.345 127.618 119.36 127.675 119.36H133.481C133.596 119.357 133.705 119.295 133.785 119.187C133.865 119.08 133.91 118.935 133.91 118.785C133.91 118.635 133.865 118.49 133.785 118.383C133.705 118.275 133.596 118.213 133.481 118.21H127.675C127.559 118.212 127.449 118.273 127.367 118.382C127.286 118.49 127.241 118.636 127.242 118.788Z" fill="#3F3D56"/>
<path d="M127.242 120.948C127.241 121.023 127.252 121.097 127.274 121.166C127.296 121.236 127.328 121.299 127.368 121.352C127.408 121.405 127.456 121.447 127.509 121.476C127.561 121.505 127.618 121.52 127.675 121.521H133.481C133.596 121.517 133.705 121.455 133.785 121.348C133.866 121.24 133.911 121.096 133.911 120.945C133.911 120.795 133.866 120.651 133.785 120.543C133.705 120.436 133.596 120.374 133.481 120.37H127.675C127.559 120.372 127.449 120.434 127.367 120.542C127.286 120.65 127.241 120.796 127.242 120.948Z" fill="#3F3D56"/>
<path d="M127.242 123.103C127.241 123.255 127.286 123.401 127.367 123.509C127.449 123.618 127.559 123.679 127.675 123.681H133.481C133.596 123.678 133.705 123.616 133.785 123.508C133.865 123.401 133.91 123.256 133.91 123.106C133.91 122.956 133.865 122.811 133.785 122.704C133.705 122.596 133.596 122.534 133.481 122.531H127.675C127.618 122.531 127.561 122.546 127.509 122.575C127.456 122.604 127.408 122.646 127.368 122.699C127.328 122.753 127.296 122.816 127.274 122.885C127.252 122.954 127.241 123.028 127.242 123.103Z" fill="#3F3D56"/>
<path d="M129.036 139.8H126.95C126.317 139.8 125.805 140.471 125.805 141.3C125.805 142.128 126.317 142.799 126.95 142.799H129.036C129.669 142.799 130.181 142.128 130.181 141.3C130.181 140.471 129.669 139.8 129.036 139.8Z" fill="#E6E6E6"/>
<path d="M152.895 139.8H150.809C150.176 139.8 149.664 140.471 149.664 141.3C149.664 142.128 150.176 142.799 150.809 142.799H152.895C153.527 142.799 154.04 142.128 154.04 141.3C154.04 140.471 153.527 139.8 152.895 139.8Z" fill="#E6E6E6"/>
<path d="M159.655 139.8H157.569C156.937 139.8 156.424 140.471 156.424 141.3C156.424 142.128 156.937 142.799 157.569 142.799H159.655C160.288 142.799 160.8 142.128 160.8 141.3C160.8 140.471 160.288 139.8 159.655 139.8Z" fill="#E6E6E6"/>
<path d="M146.406 139.55H133.44C132.807 139.55 132.294 140.222 132.294 141.05C132.294 141.878 132.807 142.549 133.44 142.549H146.406C147.038 142.549 147.551 141.878 147.551 141.05C147.551 140.222 147.038 139.55 146.406 139.55Z" fill="#E6E6E6"/>
<path d="M178.218 139.55H165.252C164.619 139.55 164.106 140.222 164.106 141.05C164.106 141.878 164.619 142.549 165.252 142.549H178.218C178.85 142.549 179.363 141.878 179.363 141.05C179.363 140.222 178.85 139.55 178.218 139.55Z" fill="#E6E6E6"/>
<path d="M135.398 146.568H133.312C132.68 146.568 132.167 147.239 132.167 148.067C132.167 148.895 132.68 149.566 133.312 149.566H135.398C136.031 149.566 136.544 148.895 136.544 148.067C136.544 147.239 136.031 146.568 135.398 146.568Z" fill="#E6E6E6"/>
<path d="M159.258 146.568H157.172C156.539 146.568 156.026 147.239 156.026 148.067C156.026 148.895 156.539 149.566 157.172 149.566H159.258C159.89 149.566 160.403 148.895 160.403 148.067C160.403 147.239 159.89 146.568 159.258 146.568Z" fill="#E6E6E6"/>
<path d="M166.018 146.568H163.932C163.299 146.568 162.787 147.239 162.787 148.067C162.787 148.895 163.299 149.566 163.932 149.566H166.018C166.651 149.566 167.163 148.895 167.163 148.067C167.163 147.239 166.651 146.568 166.018 146.568Z" fill="#E6E6E6"/>
<path d="M152.768 146.318H139.802C139.169 146.318 138.657 146.989 138.657 147.817C138.657 148.645 139.169 149.316 139.802 149.316H152.768C153.4 149.316 153.913 148.645 153.913 147.817C153.913 146.989 153.4 146.318 152.768 146.318Z" fill="#E6E6E6"/>
<path d="M184.58 146.318H171.614C170.982 146.318 170.469 146.989 170.469 147.817C170.469 148.645 170.982 149.316 171.614 149.316H184.58C185.213 149.316 185.726 148.645 185.726 147.817C185.726 146.989 185.213 146.318 184.58 146.318Z" fill="#E6E6E6"/>
<path d="M141.761 153.336H139.675C139.042 153.336 138.529 154.007 138.529 154.835C138.529 155.663 139.042 156.334 139.675 156.334H141.761C142.393 156.334 142.906 155.663 142.906 154.835C142.906 154.007 142.393 153.336 141.761 153.336Z" fill="#E6E6E6"/>
<path d="M165.62 153.336H163.534C162.901 153.336 162.389 154.007 162.389 154.835C162.389 155.663 162.901 156.334 163.534 156.334H165.62C166.253 156.334 166.765 155.663 166.765 154.835C166.765 154.007 166.253 153.336 165.62 153.336Z" fill="#E6E6E6"/>
<path d="M172.38 153.336H170.294C169.662 153.336 169.149 154.007 169.149 154.835C169.149 155.663 169.662 156.334 170.294 156.334H172.38C173.013 156.334 173.526 155.663 173.526 154.835C173.526 154.007 173.013 153.336 172.38 153.336Z" fill="#E6E6E6"/>
<path d="M159.13 153.086H146.164C145.532 153.086 145.019 153.757 145.019 154.585C145.019 155.413 145.532 156.084 146.164 156.084H159.13C159.763 156.084 160.275 155.413 160.275 154.585C160.275 153.757 159.763 153.086 159.13 153.086Z" fill="#E6E6E6"/>
<path d="M190.943 153.086H177.977C177.344 153.086 176.832 153.757 176.832 154.585C176.832 155.413 177.344 156.084 177.977 156.084H190.943C191.575 156.084 192.088 155.413 192.088 154.585C192.088 153.757 191.575 153.086 190.943 153.086Z" fill="#E6E6E6"/>
<path d="M148.123 160.103H146.037C145.405 160.103 144.892 160.774 144.892 161.602C144.892 162.43 145.405 163.102 146.037 163.102H148.123C148.756 163.102 149.269 162.43 149.269 161.602C149.269 160.774 148.756 160.103 148.123 160.103Z" fill="#E6E6E6"/>
<path d="M171.982 160.103H169.896C169.264 160.103 168.751 160.774 168.751 161.602C168.751 162.43 169.264 163.102 169.896 163.102H171.982C172.615 163.102 173.128 162.43 173.128 161.602C173.128 160.774 172.615 160.103 171.982 160.103Z" fill="#E6E6E6"/>
<path d="M178.743 160.103H176.656C176.024 160.103 175.511 160.774 175.511 161.602C175.511 162.43 176.024 163.102 176.656 163.102H178.743C179.375 163.102 179.888 162.43 179.888 161.602C179.888 160.774 179.375 160.103 178.743 160.103Z" fill="#E6E6E6"/>
<path d="M165.493 159.853H152.527C151.895 159.853 151.382 160.524 151.382 161.352C151.382 162.18 151.895 162.852 152.527 162.852H165.493C166.125 162.852 166.638 162.18 166.638 161.352C166.638 160.524 166.125 159.853 165.493 159.853Z" fill="#E6E6E6"/>
<path d="M152.895 187.014H150.809C150.176 187.014 149.664 187.685 149.664 188.513C149.664 189.341 150.176 190.013 150.809 190.013H152.895C153.527 190.013 154.04 189.341 154.04 188.513C154.04 187.685 153.527 187.014 152.895 187.014Z" fill="#E6E6E6"/>
<path d="M159.655 187.014H157.569C156.937 187.014 156.424 187.685 156.424 188.513C156.424 189.341 156.937 190.013 157.569 190.013H159.655C160.288 190.013 160.8 189.341 160.8 188.513C160.8 187.685 160.288 187.014 159.655 187.014Z" fill="#E6E6E6"/>
<path d="M178.218 187.264H165.252C164.619 187.264 164.106 187.935 164.106 188.763C164.106 189.591 164.619 190.263 165.252 190.263H178.218C178.85 190.263 179.363 189.591 179.363 188.763C179.363 187.935 178.85 187.264 178.218 187.264Z" fill="#E6E6E6"/>
<path d="M129.036 187.014H126.95C126.317 187.014 125.805 187.685 125.805 188.513C125.805 189.341 126.317 190.013 126.95 190.013H129.036C129.669 190.013 130.181 189.341 130.181 188.513C130.181 187.685 129.669 187.014 129.036 187.014Z" fill="#E6E6E6"/>
<path d="M146.406 187.264H133.44C132.807 187.264 132.294 187.935 132.294 188.763C132.294 189.591 132.807 190.263 133.44 190.263H146.406C147.038 190.263 147.551 189.591 147.551 188.763C147.551 187.935 147.038 187.264 146.406 187.264Z" fill="#E6E6E6"/>
<path d="M135.398 180.247H133.312C132.68 180.247 132.167 180.918 132.167 181.746C132.167 182.574 132.68 183.245 133.312 183.245H135.398C136.031 183.245 136.544 182.574 136.544 181.746C136.544 180.918 136.031 180.247 135.398 180.247Z" fill="#E6E6E6"/>
<path d="M159.258 180.247H157.172C156.539 180.247 156.026 180.918 156.026 181.746C156.026 182.574 156.539 183.245 157.172 183.245H159.258C159.89 183.245 160.403 182.574 160.403 181.746C160.403 180.918 159.89 180.247 159.258 180.247Z" fill="#E6E6E6"/>
<path d="M166.018 180.247H163.932C163.299 180.247 162.787 180.918 162.787 181.746C162.787 182.574 163.299 183.245 163.932 183.245H166.018C166.651 183.245 167.163 182.574 167.163 181.746C167.163 180.918 166.651 180.247 166.018 180.247Z" fill="#E6E6E6"/>
<path d="M152.768 180.496H139.802C139.169 180.496 138.657 181.168 138.657 181.996C138.657 182.824 139.169 183.495 139.802 183.495H152.768C153.4 183.495 153.913 182.824 153.913 181.996C153.913 181.168 153.4 180.496 152.768 180.496Z" fill="#E6E6E6"/>
<path d="M141.761 173.479H139.675C139.042 173.479 138.529 174.15 138.529 174.978C138.529 175.806 139.042 176.477 139.675 176.477H141.761C142.393 176.477 142.906 175.806 142.906 174.978C142.906 174.15 142.393 173.479 141.761 173.479Z" fill="#E6E6E6"/>
<path d="M165.62 173.479H163.534C162.901 173.479 162.389 174.15 162.389 174.978C162.389 175.806 162.901 176.477 163.534 176.477H165.62C166.253 176.477 166.765 175.806 166.765 174.978C166.765 174.15 166.253 173.479 165.62 173.479Z" fill="#E6E6E6"/>
<path d="M172.38 173.479H170.294C169.662 173.479 169.149 174.15 169.149 174.978C169.149 175.806 169.662 176.477 170.294 176.477H172.38C173.013 176.477 173.526 175.806 173.526 174.978C173.526 174.15 173.013 173.479 172.38 173.479Z" fill="#E6E6E6"/>
<path d="M159.13 173.729H146.164C145.532 173.729 145.019 174.4 145.019 175.228C145.019 176.056 145.532 176.727 146.164 176.727H159.13C159.763 176.727 160.275 176.056 160.275 175.228C160.275 174.4 159.763 173.729 159.13 173.729Z" fill="#E6E6E6"/>
<path d="M148.123 166.711H146.037C145.405 166.711 144.892 167.382 144.892 168.211C144.892 169.039 145.405 169.71 146.037 169.71H148.123C148.756 169.71 149.269 169.039 149.269 168.211C149.269 167.382 148.756 166.711 148.123 166.711Z" fill="#E6E6E6"/>
<path d="M171.982 166.711H169.896C169.264 166.711 168.751 167.382 168.751 168.211C168.751 169.039 169.264 169.71 169.896 169.71H171.982C172.615 169.71 173.128 169.039 173.128 168.211C173.128 167.382 172.615 166.711 171.982 166.711Z" fill="#E6E6E6"/>
<path d="M178.743 166.711H176.656C176.024 166.711 175.511 167.382 175.511 168.211C175.511 169.039 176.024 169.71 176.656 169.71H178.743C179.375 169.71 179.888 169.039 179.888 168.211C179.888 167.382 179.375 166.711 178.743 166.711Z" fill="#E6E6E6"/>
<path d="M165.493 166.961H152.527C151.895 166.961 151.382 167.632 151.382 168.46C151.382 169.288 151.895 169.96 152.527 169.96H165.493C166.125 169.96 166.638 169.288 166.638 168.46C166.638 167.632 166.125 166.961 165.493 166.961Z" fill="#E6E6E6"/>
<path d="M139.144 284.216C139.057 284.273 138.969 284.33 138.882 284.382C138.329 284.742 137.772 285.096 137.211 285.444C135.533 286.491 133.834 287.485 132.113 288.427C127.586 290.906 122.941 292.998 118.208 294.69C117.412 288.198 116.641 272.888 115.901 261.627C115.762 259.509 115.623 257.536 115.484 255.792C115.351 253.502 115.1 251.227 114.732 248.982C114.696 248.807 114.644 248.637 114.577 248.477C114.652 249.378 114.732 252.064 114.808 255.792C114.847 257.536 114.883 259.509 114.923 261.627C115.11 272.466 115.305 287.214 115.499 295.611C114.947 295.788 114.39 295.965 113.833 296.132C113.483 296.241 113.129 296.345 112.776 296.444C112.346 296.569 111.917 296.694 111.487 296.809C111.038 296.934 110.588 297.053 110.139 297.168C102.796 299.056 95.33 300.005 87.8465 300C87.3495 300 86.8564 299.995 86.3593 299.99C86.2082 299.99 86.0571 299.984 85.902 299.979C85.4646 299.969 85.0113 299.958 84.55 299.943C75.7065 299.623 66.921 297.965 58.3684 295.002L58.7143 261.627L58.774 255.792L58.7978 253.579C58.6009 254.291 58.483 255.036 58.4479 255.792C58.3087 257.213 58.1656 259.228 58.0224 261.627C57.4776 270.873 56.9169 285.788 56.3364 294.274C49.4609 291.712 44.4346 289.375 38.1516 285.262C37.909 285.106 37.6625 284.945 37.4199 284.783C37.4637 284.382 37.5114 283.981 37.5551 283.57C38.2669 277.094 37.4279 268.666 38.2152 261.627C38.8157 256.198 39.436 250.981 40.0604 246.556C40.8159 241.231 41.5833 237.045 42.3429 235.01C43.2177 232.662 44.0926 230.351 44.9396 228.138C45.3054 227.185 45.6647 226.25 46.0172 225.332C46.2081 224.838 46.399 224.348 46.5859 223.869C47.4369 221.688 48.2401 219.673 48.9758 217.888C49.4927 216.633 49.9699 215.498 50.4073 214.504C50.9203 213.333 51.3736 212.364 51.7474 211.63C54.5084 206.151 58.6164 202.072 63.3908 200.068L63.5101 200.026L63.6254 200.089L63.7566 200.167L71.3359 196.538L74.7199 185.872L92.1014 184.471L94.9089 187.267L96.3444 188.698L97.8754 190.224L100.691 193.03L101.49 193.352L102.679 193.831L110.811 197.101L110.895 197.054L111.014 197.095C115.359 198.916 119.162 202.465 121.894 207.247C122.164 207.705 122.415 208.179 122.657 208.658C123.317 209.938 124.208 211.963 125.258 214.504C125.691 215.55 126.149 216.685 126.63 217.888C126.92 218.611 129.425 228.846 131.863 239.299C134.142 249.087 136.36 259.066 136.651 261.627C136.702 262.101 136.758 262.58 136.81 263.054C137.14 266.016 137.466 268.999 137.78 271.909C138.245 276.225 138.699 280.389 139.132 284.112C139.136 284.148 139.14 284.179 139.144 284.216Z" fill="#3F3D56"/>
<path opacity="0.2" d="M120.724 246.532L117.345 229.461L114.361 244.192L120.724 246.532Z" fill="black"/>
<path d="M6.29482 246.334C6.47001 247.002 6.80235 247.58 7.2441 247.985C7.68586 248.39 8.2143 248.602 8.75356 248.589L19.2882 248.234C19.8314 248.22 20.3566 247.977 20.7853 247.54C21.2139 247.103 21.5231 246.496 21.6665 245.81L23.1572 224.941C23.6861 225.255 24.2619 225.41 24.8425 225.394C25.8611 225.361 26.8278 224.799 27.53 223.832C28.2322 222.866 28.6123 221.574 28.5867 220.24C28.5612 218.907 28.132 217.641 27.3937 216.722C26.6553 215.802 25.6683 215.305 24.6497 215.338C24.4176 215.337 24.1862 215.369 23.9592 215.432C23.7125 215.083 23.4125 214.805 23.0787 214.616C22.7449 214.428 22.3846 214.333 22.0211 214.338L5.81641 214.885C5.68199 214.892 5.54825 214.914 5.4167 214.95C5.06133 215.037 4.72428 215.222 4.42823 215.494C4.13217 215.766 3.88399 216.117 3.70038 216.525C3.51677 216.932 3.402 217.387 3.36379 217.857C3.32558 218.328 3.36482 218.804 3.47886 219.253L6.29482 246.334ZM23.4629 223.524L24.5237 218.551C24.6444 217.977 24.6472 217.371 24.5318 216.794C24.5833 216.794 24.6287 216.762 24.6802 216.762C25.4076 216.742 26.1112 217.101 26.6368 217.759C27.1625 218.418 27.4672 219.322 27.4843 220.274C27.5013 221.227 27.2292 222.149 26.7277 222.839C26.2262 223.529 25.5361 223.93 24.8089 223.955C24.3386 223.974 23.8733 223.825 23.4629 223.524Z" fill="#2F2E41"/>
<path d="M5.4165 214.95C5.76174 217.535 9.64321 219.351 14.3104 219.035C18.6022 218.777 22.1114 216.804 22.7543 214.465C22.5163 214.373 22.2689 214.33 22.0209 214.338L5.81622 214.885C5.6818 214.892 5.54806 214.914 5.4165 214.95Z" fill="#3F3D56"/>
<path d="M15.1655 234.867C15.1868 234.86 15.2071 234.848 15.2255 234.832L17.5133 232.872C17.5409 232.848 17.5637 232.816 17.5794 232.778C17.5951 232.74 17.6034 232.698 17.6034 232.654C17.6034 232.611 17.5952 232.569 17.5795 232.531C17.5638 232.493 17.5411 232.46 17.5134 232.437L15.1355 230.398C15.1137 230.379 15.0892 230.366 15.0635 230.359C15.0379 230.353 15.0114 230.353 14.9858 230.36C14.9602 230.367 14.9358 230.38 14.9142 230.399C14.8925 230.419 14.874 230.443 14.8597 230.472C14.8453 230.501 14.8354 230.533 14.8306 230.566C14.8257 230.6 14.826 230.635 14.8314 230.668C14.8368 230.702 14.8472 230.733 14.862 230.762C14.8768 230.79 14.8957 230.814 14.9176 230.833L17.0415 232.654L15.0079 234.397C14.9685 234.43 14.9395 234.481 14.9261 234.54C14.9127 234.599 14.9157 234.663 14.9346 234.719C14.9535 234.776 14.9871 234.821 15.0294 234.848C15.0717 234.875 15.1199 234.882 15.1655 234.867Z" fill="#6C63FF"/>
<path d="M11.5524 235.085C11.5908 235.072 11.6254 235.045 11.6518 235.006C11.6782 234.968 11.6952 234.919 11.7006 234.868C11.706 234.817 11.6995 234.764 11.6821 234.718C11.6646 234.671 11.6369 234.633 11.6025 234.607L9.49375 233.024L11.532 231.042C11.5529 231.022 11.5706 230.996 11.584 230.967C11.5974 230.938 11.6062 230.905 11.61 230.871C11.6138 230.838 11.6125 230.803 11.6062 230.77C11.5998 230.737 11.5885 230.706 11.5729 230.678C11.5574 230.651 11.5379 230.628 11.5155 230.61C11.4931 230.593 11.4683 230.581 11.4424 230.576C11.4166 230.571 11.3903 230.573 11.365 230.581C11.3397 230.589 11.3159 230.604 11.295 230.625L9.01298 232.844C8.98646 232.869 8.96526 232.903 8.95129 232.943C8.93732 232.982 8.93102 233.025 8.93296 233.068C8.9349 233.111 8.94502 233.153 8.96241 233.19C8.97979 233.226 9.00389 233.257 9.03253 233.278L11.4046 235.058C11.4494 235.092 11.5024 235.102 11.5524 235.085Z" fill="#6C63FF"/>
<path d="M14.9381 236.585C14.9573 236.579 14.9757 236.568 14.9926 236.555C15.0149 236.537 15.0343 236.514 15.0498 236.486C15.0652 236.458 15.0763 236.427 15.0825 236.394C15.0887 236.361 15.0898 236.326 15.0858 236.292C15.0818 236.259 15.0728 236.226 15.0592 236.197L11.8161 229.217C11.7885 229.158 11.7443 229.116 11.6932 229.1C11.642 229.084 11.5881 229.095 11.5432 229.131C11.4983 229.167 11.466 229.224 11.4535 229.291C11.441 229.358 11.4492 229.429 11.4763 229.488L14.7194 236.468C14.7415 236.515 14.7747 236.552 14.8141 236.573C14.8534 236.595 14.8969 236.598 14.9381 236.585Z" fill="#6C63FF"/>
<path d="M312.218 284.782C311.976 284.943 311.729 285.105 311.487 285.261C305.204 289.374 300.177 291.711 293.302 294.272C292.721 285.787 292.161 270.872 291.616 261.626C291.473 259.226 291.329 257.212 291.19 255.791C291.155 255.035 291.037 254.29 290.84 253.578L290.864 255.791L290.924 261.626L291.27 295.001C282.717 297.964 273.932 299.621 265.088 299.942C264.627 299.957 264.174 299.968 263.736 299.978C263.581 299.983 263.43 299.988 263.279 299.988C262.782 299.994 262.289 299.999 261.792 299.999C252.472 300.008 243.187 298.534 234.139 295.61C234.334 287.213 234.528 272.465 234.715 261.626C234.755 259.508 234.791 257.535 234.831 255.791C234.906 252.063 234.986 249.377 235.061 248.476C234.994 248.636 234.942 248.805 234.906 248.981C234.538 251.226 234.287 253.501 234.155 255.791C234.015 257.535 233.876 259.508 233.737 261.626C232.997 272.887 232.226 288.197 231.431 294.689C226.697 292.997 222.052 290.905 217.525 288.426C215.139 287.125 212.795 285.721 210.494 284.215C210.932 280.466 211.389 276.265 211.858 271.908C212.224 268.529 212.602 265.057 212.987 261.626C213.584 256.327 233.848 199.099 238.624 197.094L238.744 197.053L238.827 197.1L246.959 193.83L248.148 193.351L248.947 193.029L251.763 190.223L253.294 188.697L254.729 187.266L257.537 184.47L274.918 185.87L278.302 196.537L285.882 200.166L286.013 200.088L286.128 200.025L286.247 200.067C291.022 202.071 295.13 206.15 297.891 211.629C298.265 212.363 298.718 213.331 299.231 214.503C299.668 215.497 300.145 216.632 300.662 217.887C301.398 219.672 302.201 221.687 303.052 223.868C303.239 224.347 303.43 224.836 303.621 225.331C303.975 226.247 304.334 227.183 304.699 228.137C305.546 230.349 306.42 232.661 307.295 235.009C308.055 237.044 308.822 241.23 309.578 246.555C310.202 250.98 310.822 256.197 311.423 261.626C312.21 268.665 311.371 277.093 312.083 283.569C312.127 283.98 312.175 284.381 312.218 284.782Z" fill="#3F3D56"/>
<path d="M261.241 180.641C272.406 180.641 281.457 168.792 281.457 154.176C281.457 139.56 272.406 127.711 261.241 127.711C250.077 127.711 241.026 139.56 241.026 154.176C241.026 168.792 250.077 180.641 261.241 180.641Z" fill="#FFB6B6"/>
<path opacity="0.2" d="M228.914 246.532L232.292 229.461L235.276 244.192L228.914 246.532Z" fill="black"/>
<path d="M318.827 235.41C317.618 257.212 318.871 266.811 312.198 284.787C306.127 288.677 299.803 291.852 293.302 294.272C292.626 294.522 291.949 294.765 291.27 295.001C282.717 297.964 273.932 299.621 265.088 299.942C264.627 299.957 264.174 299.968 263.736 299.978C263.581 299.983 263.43 299.988 263.279 299.988C262.782 299.994 262.289 299.999 261.792 299.999C252.472 300.008 243.187 298.534 234.139 295.61C233.232 295.319 232.329 295.012 231.431 294.689C226.697 292.997 222.052 290.905 217.525 288.426C215.139 287.125 212.795 285.721 210.494 284.215C209.973 283.871 209.452 283.527 208.939 283.173C206.303 277.103 204.804 269.722 204.772 260.851C206.597 245.566 314.795 222.228 318.827 235.41Z" fill="#2F2E41"/>
<path opacity="0.2" d="M318.824 239.143C318.886 237.794 318.955 236.399 319.035 234.947C315.003 221.766 206.805 245.104 204.98 260.389C204.985 261.79 205.031 263.15 205.108 264.478C209.528 249.392 312.317 227.211 318.824 239.143Z" fill="black"/>
<path d="M202.081 236.438L210.962 230.625L203.562 204.465L201.611 191.272C201.358 189.558 200.765 187.961 199.893 186.641C199.02 185.321 197.898 184.323 196.639 183.748C195.38 183.174 194.027 183.042 192.717 183.365C191.407 183.689 190.184 184.458 189.172 185.594C187.671 187.277 186.729 189.658 186.544 192.234C186.359 194.81 186.946 197.379 188.18 199.399L195.421 211.247L202.081 236.438Z" fill="#FFB6B6"/>
<path d="M210.963 225.78L199.121 233.531L208.108 270.393C208.753 273.041 209.91 275.424 211.466 277.314C213.022 279.203 214.925 280.535 216.989 281.178C219.535 281.972 222.208 281.683 224.62 280.354C227.033 279.025 229.059 276.725 230.405 273.787L254.235 220.316C255.923 216.631 256.445 212.228 255.687 208.047C254.93 203.866 252.953 200.239 250.18 197.94C248.689 196.703 247.015 195.892 245.269 195.558C243.522 195.224 241.741 195.376 240.042 196.003C238.343 196.629 236.764 197.718 235.407 199.196C234.05 200.675 232.947 202.511 232.168 204.585L217.623 245.158L210.963 225.78Z" fill="#3F3D56"/>
<path d="M83.3117 178.815C95.5961 178.815 105.555 165.778 105.555 149.696C105.555 133.614 95.5961 120.577 83.3117 120.577C71.0273 120.577 61.0688 133.614 61.0688 149.696C61.0688 165.778 71.0273 178.815 83.3117 178.815Z" fill="#A0616A"/>
<path d="M61.336 129.629C63.1445 126.438 65.7439 124.169 67.7321 121.167C68.8231 119.52 69.7289 117.654 70.9554 116.179C73.2341 113.439 76.4209 112.316 79.513 112.177C82.9018 112.063 86.2636 112.995 89.3261 114.897C92.3887 116.8 95.066 119.62 97.1415 123.129C98.7578 121.888 100.374 120.648 101.99 119.407C102.629 121.607 103.267 123.808 103.906 126.008C104.43 125.412 105.098 125.077 105.793 125.065C106.487 125.052 107.162 125.361 107.699 125.938C108.236 126.515 108.599 127.322 108.725 128.216C108.85 129.11 108.73 130.033 108.385 130.822C108.77 129.266 110.532 128.936 111.504 129.964C112.475 130.992 112.735 132.821 112.577 134.443C112.378 136.223 111.777 137.884 110.851 139.213C109.925 140.542 108.717 141.478 107.382 141.901C105.273 142.516 102.818 141.87 101.13 143.636C99.7761 145.052 99.3675 147.63 97.9864 148.999C96.2844 150.686 93.8788 149.906 91.7632 150.278C88.0618 150.931 85.131 155.887 85.5758 160.741C85.2409 159.209 84.889 157.633 84.1289 156.389C83.3688 155.145 82.0886 154.303 80.9228 154.761C78.9959 155.517 78.6806 158.955 79.1477 161.517C80.3863 168.31 85.0804 179.292 85.0804 179.292C78.9853 182.439 71.7237 179.463 67.0208 173.49C62.3181 167.518 59.8688 159.06 58.8018 150.597C57.8971 143.42 58.0253 135.471 61.336 129.629Z" fill="#2F2E41"/>
<path d="M286.575 168.765C290.807 156.064 288.409 144.376 283.251 138.175V138.17C281.223 132.22 278.526 127.628 275.441 126.551C273.949 125.296 272.502 123.823 270.895 123.073C270.147 122.706 269.35 122.542 268.552 122.589C267.753 122.637 266.971 122.895 266.251 123.349L265.432 123.063C264.736 120.736 263.921 120.689 263.014 122.219C259.523 120.09 256.377 119.138 253.578 119.138C244.447 119.138 239.047 129.258 237.616 141.492L245.247 144.152L247.899 138.618L246.674 144.652L250.885 146.114C257.296 157.042 249.625 182.248 239.902 196.273C242.217 195.435 244.522 194.727 246.817 194.149L255.16 178.136L249.991 192.712C252.675 192.197 256.099 192.691 259.841 193.686C261.101 191.53 261.765 188.657 261.113 186.095C262.179 188.797 262.915 191.701 263.292 194.701C271.19 197.226 281.962 198.522 287.768 199.48C292.459 197.475 292.471 174.835 286.575 168.765Z" fill="#2F2E41"/>
<path d="M289.328 125.561C292.428 134.647 286.173 138.555 280.444 138.444C275.267 138.345 270.867 133.583 270.603 126.814C270.476 123.563 271.34 120.379 273.006 117.963C274.673 115.547 277.004 114.096 279.487 113.93C284.658 113.584 287.217 119.372 289.328 125.561Z" fill="#2F2E41"/>
<path d="M145.534 273.469L140.429 262.32L157.405 245.46L164.463 235.703C165.38 234.436 166.535 233.506 167.813 233.006C169.091 232.506 170.446 232.453 171.744 232.854C173.042 233.255 174.237 234.094 175.21 235.289C176.182 236.484 176.898 237.991 177.286 239.662C177.861 242.137 177.678 244.808 176.777 247.11C175.876 249.413 174.327 251.167 172.457 252.003L161.489 256.905L145.534 273.469Z" fill="#A0616A"/>
<path d="M149.225 273.101L141.276 281.774L139.132 284.112L138.882 284.382C138.329 284.742 137.772 285.096 137.212 285.444C135.534 286.491 133.834 287.485 132.114 288.427C127.587 290.906 122.942 292.998 118.208 294.69C117.309 295.013 116.406 295.32 115.5 295.611C114.947 295.788 114.39 295.965 113.834 296.132C113.484 296.241 113.13 296.345 112.776 296.444C112.346 296.569 111.917 296.694 111.487 296.809C111.038 296.934 110.589 297.053 110.139 297.168C108.93 295.662 107.968 293.85 107.31 291.841C106.652 289.833 106.314 287.671 106.314 285.486C106.314 285.345 106.314 285.2 106.318 285.054L107.594 242.194L108.159 223.198C108.246 218.902 109.613 214.821 111.968 211.827C114.322 208.833 117.478 207.163 120.761 207.174C121.143 207.174 121.52 207.2 121.894 207.247C122.165 207.705 122.415 208.179 122.658 208.658C123.318 209.938 124.208 211.963 125.258 214.504C125.692 215.55 126.149 216.685 126.63 217.888C126.92 218.611 129.426 228.846 131.863 239.3L130.79 250.216L128.849 269.894L136.81 263.054L142.417 258.233L143.081 259.686L144.811 263.465L148.151 270.753L149.225 273.101Z" fill="#3F3D56"/>
<path d="M144.866 260.852C144.862 261.737 144.847 262.606 144.811 263.465C144.728 265.835 144.518 268.194 144.182 270.524C143.634 274.438 142.654 278.228 141.276 281.774C141.093 282.248 140.898 282.717 140.699 283.175C140.186 283.529 139.665 283.872 139.144 284.216C139.057 284.273 138.969 284.33 138.882 284.382C136.667 285.824 134.411 287.173 132.114 288.427C127.587 290.906 122.941 292.998 118.208 294.69C117.309 295.013 116.406 295.32 115.5 295.612C113.73 296.184 111.943 296.703 110.139 297.168C102.796 299.057 95.3301 300.005 87.8467 300C87.3496 300 86.8565 299.995 86.3595 299.99C86.2083 299.99 86.0572 299.984 85.9022 299.979C85.4647 299.969 85.0114 299.958 84.5501 299.943C75.7066 299.623 66.9211 297.965 58.3685 295.002C57.6885 294.768 57.0112 294.525 56.3365 294.274C49.835 291.853 43.5111 288.679 37.4399 284.788C30.7673 266.813 32.0199 257.213 30.811 235.411C33.2924 227.295 75.2728 233.026 107.594 242.194C116.366 244.682 124.423 247.426 130.789 250.216C137.367 253.095 142.135 256.021 144.004 258.77C144.44 259.339 144.74 260.062 144.866 260.852Z" fill="#2F2E41"/>
<path opacity="0.2" d="M30.8133 239.143C30.7516 237.794 30.6826 236.399 30.6021 234.947C34.6343 221.766 142.832 245.104 144.657 260.389C144.652 261.79 144.607 263.15 144.53 264.478C140.109 249.392 37.32 227.211 30.8133 239.143Z" fill="black"/>
</g>
<defs>
<clipPath id="clip0_80_324">
<rect width="350" height="300" fill="white"/>
</clipPath>
</defs>
</svg>
