<svg width="350" height="300" viewBox="0 0 350 300" fill="none" xmlns="http://www.w3.org/2000/svg">
<g clip-path="url(#clip0_80_219)">
<path d="M203.874 52.8865C210.434 52.8865 215.752 46.6196 215.752 38.8889C215.752 31.1583 210.434 24.8913 203.874 24.8913C197.315 24.8913 191.997 31.1583 191.997 38.8889C191.997 46.6196 197.315 52.8865 203.874 52.8865Z" fill="#F2F2F2"/>
<path d="M296.01 260.627C313.664 244.779 322.096 218.15 316.817 192.747C316.686 192.116 316.548 191.486 316.402 190.858C312.902 175.779 304.244 161.447 291.625 156.629C281.03 152.584 269.464 155.695 258.41 154.086C236.711 150.928 219.888 130.236 208.051 108.572C196.213 86.9075 187.116 62.6573 171.387 44.7593C145.46 15.2576 103.167 8.90581 71.0219 28.1092C38.8765 47.3127 18.4002 89.9172 19.2735 132.378C20.1468 174.839 41.5355 215.434 72.5972 236.973C84.0081 244.885 97.2058 250.49 110.34 248.529C121.737 246.827 132.092 239.61 143.435 237.468C161.269 234.099 178.989 243.602 194.413 254.675C209.838 265.749 224.737 278.874 242.266 284.008C259.285 288.992 280.371 274.665 296.01 260.627Z" fill="#F2F2F2"/>
<path d="M270.645 29.0009C270.258 28.6968 269.867 28.4085 269.48 28.1149C258.293 19.6829 246.302 12.8329 233.755 7.70629L230.846 55.0032H212.404V0.802055C211.243 0.518966 210.073 0.251604 208.903 -3.05176e-05V55.0032H186.986C174.921 55.0032 163.35 49.3546 154.818 39.3C146.287 29.2455 141.494 15.6086 141.494 1.38926C140.319 1.68808 139.154 2.00782 137.988 2.34858V55.0032H120.137L117.366 9.90286C104.473 15.7305 92.232 23.394 80.9168 32.723C80.7211 32.8803 80.5254 33.0428 80.3341 33.2001C79.351 34.0126 78.3813 34.8409 77.416 35.6797V216.118H130.026L129.096 200.941L123.981 117.613H226.999L221.883 200.941L220.953 216.118H272.98V30.8253C272.206 30.2067 271.428 29.5985 270.645 29.0009ZM137.988 103.852H123.136L120.391 59.1342H137.988V103.852ZM208.903 103.852H183.957V102.966C183.957 102.54 183.886 102.118 183.747 101.725C183.609 101.331 183.406 100.974 183.15 100.673C182.894 100.372 182.591 100.134 182.257 99.9711C181.923 99.8086 181.565 99.7253 181.203 99.726H170.359C169.997 99.7258 169.64 99.8095 169.306 99.9723C168.973 100.135 168.67 100.374 168.414 100.675C168.159 100.975 167.957 101.333 167.818 101.726C167.68 102.119 167.609 102.54 167.609 102.966V103.852H141.494V59.1342H208.903V103.852ZM212.404 103.852V59.1342H230.593L227.848 103.852H212.404Z" fill="#3F3D56"/>
<path d="M0 227.672C3.86434 233.069 8.04406 238.14 12.5086 242.849L337.491 243.373C341.956 238.664 346.136 233.593 350 228.197L0 227.672Z" fill="#3F3D56"/>
<path d="M220.381 179.076V224.005C220.382 224.578 220.575 225.127 220.918 225.531C221.262 225.936 221.728 226.164 222.214 226.164H278.709C279.195 226.164 279.661 225.936 280.004 225.531C280.348 225.127 280.541 224.578 280.541 224.005V179.076C280.54 178.504 280.346 177.955 280.003 177.551C279.66 177.147 279.194 176.919 278.709 176.919H222.214C221.728 176.919 221.263 177.147 220.919 177.551C220.576 177.955 220.383 178.504 220.381 179.076Z" fill="#3F3D56"/>
<path d="M221.707 179.635V223.451C221.707 223.757 221.81 224.05 221.994 224.266C222.177 224.483 222.426 224.604 222.686 224.605H278.238C278.498 224.604 278.747 224.483 278.93 224.266C279.114 224.05 279.217 223.757 279.218 223.451V179.635C279.218 179.328 279.115 179.035 278.931 178.818C278.747 178.601 278.498 178.479 278.238 178.478H222.686C222.426 178.479 222.177 178.601 221.993 178.818C221.81 179.035 221.707 179.328 221.707 179.635Z" fill="#6C63FF"/>
<path d="M219.2 232.767C219.303 232.92 219.435 233.044 219.585 233.128C219.735 233.213 219.899 233.256 220.064 233.255H280.558C280.723 233.255 280.886 233.211 281.036 233.127C281.185 233.043 281.317 232.921 281.421 232.769C281.525 232.618 281.599 232.441 281.638 232.252C281.677 232.062 281.68 231.865 281.646 231.674L280.707 226.417C280.668 226.203 280.584 226.003 280.463 225.837C280.342 225.671 280.187 225.542 280.014 225.464C279.888 225.406 279.754 225.376 279.619 225.376H221C220.865 225.376 220.731 225.406 220.605 225.464C220.431 225.542 220.277 225.671 220.155 225.837C220.034 226.003 219.951 226.203 219.912 226.417L218.973 231.674C218.939 231.865 218.942 232.062 218.982 232.251C219.021 232.44 219.096 232.616 219.2 232.767Z" fill="#2F2E41"/>
<path d="M277.542 227.641H278.971C279.091 227.641 279.188 227.526 279.188 227.385V226.579C279.188 226.438 279.091 226.323 278.971 226.323H277.542C277.423 226.323 277.325 226.438 277.325 226.579V227.385C277.325 227.526 277.423 227.641 277.542 227.641Z" fill="#3F3D56"/>
<path d="M273.816 227.641H275.245C275.365 227.641 275.462 227.526 275.462 227.385V226.579C275.462 226.438 275.365 226.323 275.245 226.323H273.816C273.696 226.323 273.599 226.438 273.599 226.579V227.385C273.599 227.526 273.696 227.641 273.816 227.641Z" fill="#3F3D56"/>
<path d="M270.09 227.641H271.519C271.639 227.641 271.736 227.526 271.736 227.385V226.579C271.736 226.438 271.639 226.323 271.519 226.323H270.09C269.97 226.323 269.873 226.438 269.873 226.579V227.385C269.873 227.526 269.97 227.641 270.09 227.641Z" fill="#3F3D56"/>
<path d="M266.364 227.641H267.793C267.913 227.641 268.01 227.526 268.01 227.385V226.579C268.01 226.438 267.913 226.323 267.793 226.323H266.364C266.244 226.323 266.147 226.438 266.147 226.579V227.385C266.147 227.526 266.244 227.641 266.364 227.641Z" fill="#3F3D56"/>
<path d="M262.638 227.641H264.067C264.186 227.641 264.284 227.526 264.284 227.385V226.579C264.284 226.438 264.186 226.323 264.067 226.323H262.638C262.518 226.323 262.421 226.438 262.421 226.579V227.385C262.421 227.526 262.518 227.641 262.638 227.641Z" fill="#3F3D56"/>
<path d="M258.911 227.641H260.34C260.46 227.641 260.557 227.526 260.557 227.385V226.579C260.557 226.438 260.46 226.323 260.34 226.323H258.911C258.791 226.323 258.694 226.438 258.694 226.579V227.385C258.694 227.526 258.791 227.641 258.911 227.641Z" fill="#3F3D56"/>
<path d="M255.185 227.641H256.614C256.734 227.641 256.831 227.526 256.831 227.385V226.579C256.831 226.438 256.734 226.323 256.614 226.323H255.185C255.065 226.323 254.968 226.438 254.968 226.579V227.385C254.968 227.526 255.065 227.641 255.185 227.641Z" fill="#3F3D56"/>
<path d="M251.458 227.641H252.887C253.007 227.641 253.104 227.526 253.104 227.385V226.579C253.104 226.438 253.007 226.323 252.887 226.323H251.458C251.339 226.323 251.241 226.438 251.241 226.579V227.385C251.241 227.526 251.339 227.641 251.458 227.641Z" fill="#3F3D56"/>
<path d="M247.732 227.641H249.161C249.281 227.641 249.378 227.526 249.378 227.385V226.579C249.378 226.438 249.281 226.323 249.161 226.323H247.732C247.613 226.323 247.515 226.438 247.515 226.579V227.385C247.515 227.526 247.613 227.641 247.732 227.641Z" fill="#3F3D56"/>
<path d="M244.006 227.641H245.435C245.555 227.641 245.652 227.526 245.652 227.385V226.579C245.652 226.438 245.555 226.323 245.435 226.323H244.006C243.886 226.323 243.789 226.438 243.789 226.579V227.385C243.789 227.526 243.886 227.641 244.006 227.641Z" fill="#3F3D56"/>
<path d="M240.28 227.641H241.709C241.829 227.641 241.926 227.526 241.926 227.385V226.579C241.926 226.438 241.829 226.323 241.709 226.323H240.28C240.16 226.323 240.063 226.438 240.063 226.579V227.385C240.063 227.526 240.16 227.641 240.28 227.641Z" fill="#3F3D56"/>
<path d="M236.553 227.641H237.982C238.102 227.641 238.199 227.526 238.199 227.385V226.579C238.199 226.438 238.102 226.323 237.982 226.323H236.553C236.433 226.323 236.336 226.438 236.336 226.579V227.385C236.336 227.526 236.433 227.641 236.553 227.641Z" fill="#3F3D56"/>
<path d="M232.827 227.641H234.255C234.375 227.641 234.473 227.526 234.473 227.385V226.579C234.473 226.438 234.375 226.323 234.255 226.323H232.827C232.707 226.323 232.61 226.438 232.61 226.579V227.385C232.61 227.526 232.707 227.641 232.827 227.641Z" fill="#3F3D56"/>
<path d="M229.101 227.641H230.529C230.649 227.641 230.747 227.526 230.747 227.385V226.579C230.747 226.438 230.649 226.323 230.529 226.323H229.101C228.981 226.323 228.883 226.438 228.883 226.579V227.385C228.883 227.526 228.981 227.641 229.101 227.641Z" fill="#3F3D56"/>
<path d="M225.375 227.641H226.803C226.923 227.641 227.021 227.526 227.021 227.385V226.579C227.021 226.438 226.923 226.323 226.803 226.323H225.375C225.255 226.323 225.157 226.438 225.157 226.579V227.385C225.157 227.526 225.255 227.641 225.375 227.641Z" fill="#3F3D56"/>
<path d="M221.648 227.641H223.077C223.197 227.641 223.294 227.526 223.294 227.385V226.579C223.294 226.438 223.197 226.323 223.077 226.323H221.648C221.528 226.323 221.431 226.438 221.431 226.579V227.385C221.431 227.526 221.528 227.641 221.648 227.641Z" fill="#3F3D56"/>
<path d="M277.587 229.836H279.016C279.136 229.836 279.233 229.722 279.233 229.58V228.775C279.233 228.634 279.136 228.519 279.016 228.519H277.587C277.467 228.519 277.37 228.634 277.37 228.775V229.58C277.37 229.722 277.467 229.836 277.587 229.836Z" fill="#3F3D56"/>
<path d="M273.86 229.836H275.289C275.409 229.836 275.506 229.722 275.506 229.58V228.775C275.506 228.634 275.409 228.519 275.289 228.519H273.86C273.74 228.519 273.643 228.634 273.643 228.775V229.58C273.643 229.722 273.74 229.836 273.86 229.836Z" fill="#3F3D56"/>
<path d="M270.134 229.836H271.563C271.683 229.836 271.78 229.722 271.78 229.58V228.775C271.78 228.634 271.683 228.519 271.563 228.519H270.134C270.014 228.519 269.917 228.634 269.917 228.775V229.58C269.917 229.722 270.014 229.836 270.134 229.836Z" fill="#3F3D56"/>
<path d="M266.408 229.836H267.837C267.956 229.836 268.054 229.722 268.054 229.58V228.775C268.054 228.634 267.956 228.519 267.837 228.519H266.408C266.288 228.519 266.191 228.634 266.191 228.775V229.58C266.191 229.722 266.288 229.836 266.408 229.836Z" fill="#3F3D56"/>
<path d="M262.682 229.836H264.11C264.23 229.836 264.328 229.722 264.328 229.58V228.775C264.328 228.634 264.23 228.519 264.11 228.519H262.682C262.562 228.519 262.464 228.634 262.464 228.775V229.58C262.464 229.722 262.562 229.836 262.682 229.836Z" fill="#3F3D56"/>
<path d="M258.955 229.836H260.384C260.504 229.836 260.601 229.722 260.601 229.58V228.775C260.601 228.634 260.504 228.519 260.384 228.519H258.955C258.835 228.519 258.738 228.634 258.738 228.775V229.58C258.738 229.722 258.835 229.836 258.955 229.836Z" fill="#3F3D56"/>
<path d="M255.229 229.836H256.658C256.778 229.836 256.875 229.722 256.875 229.58V228.775C256.875 228.634 256.778 228.519 256.658 228.519H255.229C255.109 228.519 255.012 228.634 255.012 228.775V229.58C255.012 229.722 255.109 229.836 255.229 229.836Z" fill="#3F3D56"/>
<path d="M251.502 229.836H252.931C253.051 229.836 253.148 229.722 253.148 229.58V228.775C253.148 228.634 253.051 228.519 252.931 228.519H251.502C251.382 228.519 251.285 228.634 251.285 228.775V229.58C251.285 229.722 251.382 229.836 251.502 229.836Z" fill="#3F3D56"/>
<path d="M247.776 229.836H249.205C249.325 229.836 249.422 229.722 249.422 229.58V228.775C249.422 228.634 249.325 228.519 249.205 228.519H247.776C247.656 228.519 247.559 228.634 247.559 228.775V229.58C247.559 229.722 247.656 229.836 247.776 229.836Z" fill="#3F3D56"/>
<path d="M244.05 229.836H245.479C245.599 229.836 245.696 229.722 245.696 229.58V228.775C245.696 228.634 245.599 228.519 245.479 228.519H244.05C243.93 228.519 243.833 228.634 243.833 228.775V229.58C243.833 229.722 243.93 229.836 244.05 229.836Z" fill="#3F3D56"/>
<path d="M240.324 229.836H241.753C241.873 229.836 241.97 229.722 241.97 229.58V228.775C241.97 228.634 241.873 228.519 241.753 228.519H240.324C240.204 228.519 240.107 228.634 240.107 228.775V229.58C240.107 229.722 240.204 229.836 240.324 229.836Z" fill="#3F3D56"/>
<path d="M236.597 229.836H238.026C238.146 229.836 238.243 229.722 238.243 229.58V228.775C238.243 228.634 238.146 228.519 238.026 228.519H236.597C236.477 228.519 236.38 228.634 236.38 228.775V229.58C236.38 229.722 236.477 229.836 236.597 229.836Z" fill="#3F3D56"/>
<path d="M232.871 229.836H234.3C234.42 229.836 234.517 229.722 234.517 229.58V228.775C234.517 228.634 234.42 228.519 234.3 228.519H232.871C232.751 228.519 232.654 228.634 232.654 228.775V229.58C232.654 229.722 232.751 229.836 232.871 229.836Z" fill="#3F3D56"/>
<path d="M229.145 229.836H230.573C230.693 229.836 230.791 229.722 230.791 229.58V228.775C230.791 228.634 230.693 228.519 230.573 228.519H229.145C229.025 228.519 228.927 228.634 228.927 228.775V229.58C228.927 229.722 229.025 229.836 229.145 229.836Z" fill="#3F3D56"/>
<path d="M225.418 229.836H226.847C226.967 229.836 227.064 229.722 227.064 229.58V228.775C227.064 228.634 226.967 228.519 226.847 228.519H225.418C225.299 228.519 225.201 228.634 225.201 228.775V229.58C225.201 229.722 225.299 229.836 225.418 229.836Z" fill="#3F3D56"/>
<path d="M221.692 229.836H223.121C223.241 229.836 223.338 229.722 223.338 229.58V228.775C223.338 228.634 223.241 228.519 223.121 228.519H221.692C221.572 228.519 221.475 228.634 221.475 228.775V229.58C221.475 229.722 221.572 229.836 221.692 229.836Z" fill="#3F3D56"/>
<path d="M246.659 232.471H261.13C261.249 232.471 261.347 232.357 261.347 232.215V231.41C261.347 231.268 261.249 231.154 261.13 231.154H246.659C246.539 231.154 246.441 231.268 246.441 231.41V232.215C246.441 232.357 246.539 232.471 246.659 232.471Z" fill="#3F3D56"/>
<path d="M231.327 188.064H230.062C229.678 188.064 229.367 188.43 229.367 188.882C229.367 189.334 229.678 189.701 230.062 189.701H231.327C231.71 189.701 232.021 189.334 232.021 188.882C232.021 188.43 231.71 188.064 231.327 188.064Z" fill="white"/>
<path d="M245.794 188.064H244.529C244.145 188.064 243.834 188.43 243.834 188.882C243.834 189.334 244.145 189.701 244.529 189.701H245.794C246.177 189.701 246.488 189.334 246.488 188.882C246.488 188.43 246.177 188.064 245.794 188.064Z" fill="white"/>
<path d="M249.893 188.064H248.628C248.245 188.064 247.934 188.43 247.934 188.882C247.934 189.334 248.245 189.701 248.628 189.701H249.893C250.276 189.701 250.587 189.334 250.587 188.882C250.587 188.43 250.276 188.064 249.893 188.064Z" fill="white"/>
<path d="M241.859 187.928H233.997C233.614 187.928 233.303 188.294 233.303 188.746C233.303 189.198 233.614 189.564 233.997 189.564H241.859C242.243 189.564 242.553 189.198 242.553 188.746C242.553 188.294 242.243 187.928 241.859 187.928Z" fill="white"/>
<path d="M261.149 187.928H253.287C252.903 187.928 252.592 188.294 252.592 188.746C252.592 189.198 252.903 189.564 253.287 189.564H261.149C261.532 189.564 261.843 189.198 261.843 188.746C261.843 188.294 261.532 187.928 261.149 187.928Z" fill="white"/>
<path d="M235.184 191.758H233.92C233.536 191.758 233.225 192.125 233.225 192.577C233.225 193.029 233.536 193.395 233.92 193.395H235.184C235.568 193.395 235.879 193.029 235.879 192.577C235.879 192.125 235.568 191.758 235.184 191.758Z" fill="white"/>
<path d="M249.652 191.758H248.387C248.003 191.758 247.692 192.125 247.692 192.577C247.692 193.029 248.003 193.395 248.387 193.395H249.652C250.035 193.395 250.346 193.029 250.346 192.577C250.346 192.125 250.035 191.758 249.652 191.758Z" fill="white"/>
<path d="M253.751 191.758H252.486C252.102 191.758 251.792 192.125 251.792 192.577C251.792 193.029 252.102 193.395 252.486 193.395H253.751C254.134 193.395 254.445 193.029 254.445 192.577C254.445 192.125 254.134 191.758 253.751 191.758Z" fill="white"/>
<path d="M245.717 191.622H237.855C237.472 191.622 237.161 191.988 237.161 192.44C237.161 192.892 237.472 193.258 237.855 193.258H245.717C246.1 193.258 246.411 192.892 246.411 192.44C246.411 191.988 246.1 191.622 245.717 191.622Z" fill="white"/>
<path d="M265.006 191.622H257.145C256.761 191.622 256.45 191.988 256.45 192.44C256.45 192.892 256.761 193.258 257.145 193.258H265.006C265.39 193.258 265.701 192.892 265.701 192.44C265.701 191.988 265.39 191.622 265.006 191.622Z" fill="white"/>
<path d="M239.043 195.452H237.778C237.394 195.452 237.083 195.819 237.083 196.271C237.083 196.723 237.394 197.089 237.778 197.089H239.043C239.426 197.089 239.737 196.723 239.737 196.271C239.737 195.819 239.426 195.452 239.043 195.452Z" fill="white"/>
<path d="M253.51 195.452H252.245C251.861 195.452 251.55 195.819 251.55 196.271C251.55 196.723 251.861 197.089 252.245 197.089H253.51C253.893 197.089 254.204 196.723 254.204 196.271C254.204 195.819 253.893 195.452 253.51 195.452Z" fill="white"/>
<path d="M257.609 195.452H256.344C255.96 195.452 255.649 195.819 255.649 196.271C255.649 196.723 255.96 197.089 256.344 197.089H257.609C257.992 197.089 258.303 196.723 258.303 196.271C258.303 195.819 257.992 195.452 257.609 195.452Z" fill="white"/>
<path d="M249.575 195.316H241.713C241.329 195.316 241.019 195.682 241.019 196.134C241.019 196.586 241.329 196.953 241.713 196.953H249.575C249.958 196.953 250.269 196.586 250.269 196.134C250.269 195.682 249.958 195.316 249.575 195.316Z" fill="white"/>
<path d="M268.864 195.316H261.003C260.619 195.316 260.308 195.682 260.308 196.134C260.308 196.586 260.619 196.953 261.003 196.953H268.864C269.248 196.953 269.559 196.586 269.559 196.134C269.559 195.682 269.248 195.316 268.864 195.316Z" fill="white"/>
<path d="M242.901 199.146H241.636C241.252 199.146 240.941 199.513 240.941 199.965C240.941 200.417 241.252 200.783 241.636 200.783H242.901C243.284 200.783 243.595 200.417 243.595 199.965C243.595 199.513 243.284 199.146 242.901 199.146Z" fill="white"/>
<path d="M257.368 199.146H256.103C255.719 199.146 255.408 199.513 255.408 199.965C255.408 200.417 255.719 200.783 256.103 200.783H257.368C257.751 200.783 258.062 200.417 258.062 199.965C258.062 199.513 257.751 199.146 257.368 199.146Z" fill="white"/>
<path d="M261.467 199.146H260.202C259.818 199.146 259.507 199.513 259.507 199.965C259.507 200.417 259.818 200.783 260.202 200.783H261.467C261.85 200.783 262.161 200.417 262.161 199.965C262.161 199.513 261.85 199.146 261.467 199.146Z" fill="white"/>
<path d="M253.433 199.01H245.571C245.187 199.01 244.876 199.376 244.876 199.828C244.876 200.28 245.187 200.647 245.571 200.647H253.433C253.816 200.647 254.127 200.28 254.127 199.828C254.127 199.376 253.816 199.01 253.433 199.01Z" fill="white"/>
<path d="M245.794 213.836H244.529C244.145 213.836 243.834 214.202 243.834 214.654C243.834 215.106 244.145 215.473 244.529 215.473H245.794C246.177 215.473 246.488 215.106 246.488 214.654C246.488 214.202 246.177 213.836 245.794 213.836Z" fill="white"/>
<path d="M249.893 213.836H248.628C248.245 213.836 247.934 214.202 247.934 214.654C247.934 215.106 248.245 215.473 248.628 215.473H249.893C250.276 215.473 250.587 215.106 250.587 214.654C250.587 214.202 250.276 213.836 249.893 213.836Z" fill="white"/>
<path d="M261.149 213.972H253.287C252.903 213.972 252.592 214.339 252.592 214.791C252.592 215.243 252.903 215.609 253.287 215.609H261.149C261.532 215.609 261.843 215.243 261.843 214.791C261.843 214.339 261.532 213.972 261.149 213.972Z" fill="white"/>
<path d="M231.327 213.836H230.062C229.678 213.836 229.367 214.202 229.367 214.654C229.367 215.106 229.678 215.473 230.062 215.473H231.327C231.71 215.473 232.021 215.106 232.021 214.654C232.021 214.202 231.71 213.836 231.327 213.836Z" fill="white"/>
<path d="M241.859 213.972H233.997C233.614 213.972 233.303 214.339 233.303 214.791C233.303 215.243 233.614 215.609 233.997 215.609H241.859C242.243 215.609 242.553 215.243 242.553 214.791C242.553 214.339 242.243 213.972 241.859 213.972Z" fill="white"/>
<path d="M235.184 210.142H233.92C233.536 210.142 233.225 210.508 233.225 210.96C233.225 211.412 233.536 211.779 233.92 211.779H235.184C235.568 211.779 235.879 211.412 235.879 210.96C235.879 210.508 235.568 210.142 235.184 210.142Z" fill="white"/>
<path d="M249.652 210.142H248.387C248.003 210.142 247.692 210.508 247.692 210.96C247.692 211.412 248.003 211.779 248.387 211.779H249.652C250.035 211.779 250.346 211.412 250.346 210.96C250.346 210.508 250.035 210.142 249.652 210.142Z" fill="white"/>
<path d="M253.751 210.142H252.486C252.102 210.142 251.792 210.508 251.792 210.96C251.792 211.412 252.102 211.779 252.486 211.779H253.751C254.134 211.779 254.445 211.412 254.445 210.96C254.445 210.508 254.134 210.142 253.751 210.142Z" fill="white"/>
<path d="M245.717 210.278H237.855C237.472 210.278 237.161 210.645 237.161 211.097C237.161 211.549 237.472 211.915 237.855 211.915H245.717C246.1 211.915 246.411 211.549 246.411 211.097C246.411 210.645 246.1 210.278 245.717 210.278Z" fill="white"/>
<path d="M239.043 206.448H237.778C237.394 206.448 237.083 206.814 237.083 207.266C237.083 207.718 237.394 208.084 237.778 208.084H239.043C239.426 208.084 239.737 207.718 239.737 207.266C239.737 206.814 239.426 206.448 239.043 206.448Z" fill="white"/>
<path d="M253.51 206.448H252.245C251.861 206.448 251.55 206.814 251.55 207.266C251.55 207.718 251.861 208.084 252.245 208.084H253.51C253.893 208.084 254.204 207.718 254.204 207.266C254.204 206.814 253.893 206.448 253.51 206.448Z" fill="white"/>
<path d="M257.609 206.448H256.344C255.96 206.448 255.649 206.814 255.649 207.266C255.649 207.718 255.96 208.084 256.344 208.084H257.609C257.992 208.084 258.303 207.718 258.303 207.266C258.303 206.814 257.992 206.448 257.609 206.448Z" fill="white"/>
<path d="M249.575 206.584H241.713C241.329 206.584 241.019 206.95 241.019 207.402C241.019 207.854 241.329 208.221 241.713 208.221H249.575C249.958 208.221 250.269 207.854 250.269 207.402C250.269 206.95 249.958 206.584 249.575 206.584Z" fill="white"/>
<path d="M242.901 202.754H241.636C241.252 202.754 240.941 203.12 240.941 203.572C240.941 204.024 241.252 204.39 241.636 204.39H242.901C243.284 204.39 243.595 204.024 243.595 203.572C243.595 203.12 243.284 202.754 242.901 202.754Z" fill="white"/>
<path d="M257.368 202.754H256.103C255.719 202.754 255.408 203.12 255.408 203.572C255.408 204.024 255.719 204.39 256.103 204.39H257.368C257.751 204.39 258.062 204.024 258.062 203.572C258.062 203.12 257.751 202.754 257.368 202.754Z" fill="white"/>
<path d="M261.467 202.754H260.202C259.818 202.754 259.507 203.12 259.507 203.572C259.507 204.024 259.818 204.39 260.202 204.39H261.467C261.85 204.39 262.161 204.024 262.161 203.572C262.161 203.12 261.85 202.754 261.467 202.754Z" fill="white"/>
<path d="M253.433 202.89H245.571C245.187 202.89 244.876 203.256 244.876 203.708C244.876 204.16 245.187 204.527 245.571 204.527H253.433C253.816 204.527 254.127 204.16 254.127 203.708C254.127 203.256 253.816 202.89 253.433 202.89Z" fill="white"/>
<path d="M224.602 257.13L218.664 246.067L237.303 228.556L244.996 218.511C245.996 217.206 247.268 216.233 248.687 215.69C250.106 215.146 251.62 215.05 253.08 215.413C254.54 215.775 255.893 216.582 257.005 217.754C258.117 218.926 258.949 220.422 259.417 222.091C260.11 224.565 259.961 227.259 259.001 229.606C258.041 231.952 256.344 233.767 254.27 234.668L242.104 239.95L224.602 257.13Z" fill="#FFB6B6"/>
<path d="M85.269 176.921V230.687H117.23V176.921C117.231 176.534 117.126 176.157 116.931 175.846C116.737 175.535 116.463 175.305 116.149 175.191C116.001 175.133 115.846 175.105 115.691 175.107H86.8126C86.6102 175.106 86.4096 175.153 86.2225 175.244C86.0353 175.335 85.8652 175.468 85.7218 175.637C85.5785 175.805 85.4647 176.005 85.387 176.226C85.3093 176.446 85.2692 176.682 85.269 176.921ZM97.742 195.395C97.7504 194.335 98.1135 193.322 98.7524 192.576C99.3914 191.83 100.254 191.411 101.154 191.411C102.053 191.411 102.916 191.83 103.555 192.576C104.194 193.322 104.557 194.335 104.566 195.395V201.633C104.561 202.696 104.2 203.714 103.56 204.463C102.921 205.213 102.056 205.634 101.154 205.634C100.252 205.634 99.3868 205.213 98.7475 204.463C98.1081 203.714 97.7466 202.696 97.742 201.633V195.395Z" fill="#2F2E41"/>
<path d="M85.1714 228.967V234.152C85.1721 234.42 85.2626 234.678 85.4234 234.868C85.5841 235.059 85.802 235.167 86.0299 235.169H116.47C116.698 235.168 116.916 235.06 117.077 234.869C117.238 234.679 117.328 234.421 117.328 234.152V228.967H85.1714Z" fill="#3F3D56"/>
<path d="M34.9902 95.9153V194.084C34.9911 195.335 35.4131 196.535 36.1637 197.419C36.9144 198.304 37.9322 198.801 38.9937 198.802H162.434C163.495 198.801 164.513 198.304 165.264 197.419C166.014 196.535 166.436 195.335 166.437 194.084V95.9153C166.435 94.6653 166.012 93.4675 165.261 92.5842C164.511 91.7008 163.494 91.204 162.434 91.2024H38.9937C37.9331 91.204 36.9163 91.7009 36.1659 92.5842C35.4155 93.4675 34.9928 94.6654 34.9902 95.9153Z" fill="#3F3D56"/>
<path d="M37.8862 97.1367V192.873C37.8872 193.542 38.1129 194.182 38.514 194.655C38.915 195.128 39.4587 195.394 40.0259 195.395H161.406C161.973 195.394 162.517 195.128 162.918 194.655C163.319 194.182 163.545 193.542 163.546 192.873V97.1367C163.546 96.4675 163.321 95.8256 162.919 95.3519C162.518 94.8782 161.974 94.6113 161.406 94.6099H40.0259C39.458 94.6113 38.9138 94.8782 38.5127 95.3519C38.1116 95.8256 37.8863 96.4675 37.8862 97.1367Z" fill="white"/>
<path d="M60.412 234.818C60.5356 235 60.6926 235.147 60.8714 235.248C61.0501 235.349 61.2459 235.401 61.4441 235.4H133.658C133.855 235.399 134.05 235.347 134.228 235.247C134.406 235.147 134.563 235.001 134.688 234.82C134.812 234.639 134.901 234.428 134.947 234.202C134.994 233.976 134.997 233.74 134.956 233.512L133.835 227.237C133.789 226.981 133.689 226.743 133.544 226.544C133.4 226.346 133.216 226.193 133.008 226.1C132.858 226.03 132.698 225.995 132.537 225.995H62.5606C62.3992 225.995 62.2393 226.03 62.0891 226.1C61.8816 226.193 61.6972 226.346 61.5527 226.544C61.4082 226.743 61.3081 226.981 61.2617 227.237L60.1407 233.512C60.1008 233.74 60.1045 233.975 60.1514 234.201C60.1984 234.427 60.2874 234.638 60.412 234.818Z" fill="#2F2E41"/>
<path d="M157.467 107.798H43.8919C43.7739 107.795 43.6615 107.738 43.579 107.638C43.4964 107.539 43.4502 107.405 43.4502 107.266C43.4502 107.127 43.4964 106.993 43.579 106.893C43.6615 106.794 43.7739 106.737 43.8919 106.733H157.467C157.585 106.737 157.697 106.794 157.78 106.893C157.863 106.993 157.909 107.127 157.909 107.266C157.909 107.405 157.863 107.539 157.78 107.638C157.697 107.738 157.585 107.795 157.467 107.798Z" fill="#3F3D56"/>
<path d="M51.623 104.016C53.0848 104.016 54.2699 102.588 54.2699 100.827C54.2699 99.0655 53.0848 97.6378 51.623 97.6378C50.1611 97.6378 48.9761 99.0655 48.9761 100.827C48.9761 102.588 50.1611 104.016 51.623 104.016Z" fill="#3F3D56"/>
<path d="M60.767 104.016C62.2289 104.016 63.414 102.588 63.414 100.827C63.414 99.0655 62.2289 97.6378 60.767 97.6378C59.3052 97.6378 58.1201 99.0655 58.1201 100.827C58.1201 102.588 59.3052 104.016 60.767 104.016Z" fill="#3F3D56"/>
<path d="M69.9106 104.016C71.3724 104.016 72.5575 102.588 72.5575 100.827C72.5575 99.0655 71.3724 97.6378 69.9106 97.6378C68.4487 97.6378 67.2637 99.0655 67.2637 100.827C67.2637 102.588 68.4487 104.016 69.9106 104.016Z" fill="#3F3D56"/>
<path d="M151.961 98.4264H145.466C145.338 98.4299 145.216 98.4925 145.126 98.6007C145.036 98.709 144.986 98.8543 144.986 99.0057C144.986 99.157 145.036 99.3024 145.126 99.4106C145.216 99.5189 145.338 99.5814 145.466 99.585H151.961C152.09 99.5828 152.213 99.5208 152.304 99.4124C152.394 99.304 152.445 99.1579 152.445 99.0057C152.445 98.8534 152.394 98.7073 152.304 98.5989C152.213 98.4905 152.09 98.4285 151.961 98.4264Z" fill="#3F3D56"/>
<path d="M151.961 100.602H145.466C145.338 100.605 145.215 100.668 145.126 100.776C145.036 100.884 144.985 101.03 144.985 101.181C144.985 101.333 145.036 101.478 145.126 101.586C145.215 101.695 145.338 101.757 145.466 101.761H151.961C152.09 101.759 152.214 101.697 152.304 101.588C152.395 101.48 152.446 101.334 152.446 101.181C152.446 101.029 152.395 100.883 152.304 100.774C152.214 100.666 152.09 100.604 151.961 100.602Z" fill="#3F3D56"/>
<path d="M151.961 102.778H145.466C145.338 102.781 145.216 102.844 145.126 102.952C145.036 103.06 144.986 103.205 144.986 103.357C144.986 103.508 145.036 103.654 145.126 103.762C145.216 103.87 145.338 103.933 145.466 103.936H151.961C152.09 103.934 152.213 103.872 152.304 103.764C152.394 103.655 152.445 103.509 152.445 103.357C152.445 103.205 152.394 103.058 152.304 102.95C152.213 102.842 152.09 102.78 151.961 102.778Z" fill="#3F3D56"/>
<path d="M308.531 231.243C308.727 231.915 309.099 232.497 309.593 232.905C310.087 233.313 310.679 233.526 311.282 233.513L323.066 233.156C323.674 233.142 324.261 232.896 324.741 232.456C325.22 232.016 325.566 231.405 325.727 230.714L327.394 209.699C327.986 210.015 328.63 210.171 329.279 210.156C329.844 210.139 330.399 209.991 330.915 209.721C331.431 209.452 331.897 209.065 332.286 208.583C332.675 208.101 332.979 207.533 333.182 206.912C333.385 206.292 333.482 205.63 333.468 204.965C333.454 204.3 333.328 203.645 333.1 203.037C332.871 202.429 332.542 201.88 332.133 201.422C331.724 200.964 331.243 200.605 330.716 200.366C330.189 200.127 329.628 200.012 329.064 200.029C328.804 200.028 328.545 200.06 328.291 200.124C328.015 199.772 327.68 199.492 327.306 199.302C326.933 199.112 326.53 199.016 326.123 199.021L307.996 199.573C307.846 199.579 307.696 199.601 307.549 199.638C307.152 199.726 306.775 199.912 306.443 200.186C306.112 200.459 305.835 200.813 305.629 201.224C305.424 201.634 305.295 202.092 305.253 202.566C305.21 203.04 305.254 203.519 305.381 203.971L308.531 231.243ZM327.736 208.272L328.923 203.264C329.058 202.686 329.061 202.075 328.932 201.495C328.989 201.495 329.04 201.463 329.098 201.463C329.912 201.443 330.699 201.804 331.287 202.467C331.875 203.13 332.216 204.041 332.235 205C332.254 205.959 331.949 206.887 331.388 207.582C330.827 208.277 330.055 208.681 329.242 208.706C328.716 208.725 328.195 208.575 327.736 208.272Z" fill="#2F2E41"/>
<path d="M307.549 199.638C307.935 202.241 312.277 204.07 317.498 203.752C322.299 203.491 326.224 201.505 326.943 199.15C326.677 199.057 326.4 199.014 326.123 199.021L307.996 199.573C307.846 199.579 307.696 199.601 307.549 199.638Z" fill="#3F3D56"/>
<path d="M318.455 219.695C318.479 219.687 318.501 219.676 318.522 219.66L321.081 217.686C321.112 217.662 321.137 217.629 321.155 217.591C321.173 217.553 321.182 217.51 321.182 217.466C321.182 217.423 321.173 217.38 321.155 217.342C321.137 217.304 321.112 217.271 321.081 217.247L318.421 215.194C318.397 215.175 318.369 215.162 318.341 215.155C318.312 215.149 318.282 215.149 318.254 215.156C318.225 215.163 318.198 215.176 318.174 215.196C318.149 215.215 318.129 215.24 318.113 215.269C318.097 215.298 318.085 215.33 318.08 215.364C318.075 215.398 318.075 215.433 318.081 215.466C318.087 215.5 318.099 215.532 318.115 215.561C318.132 215.589 318.153 215.613 318.177 215.632L320.553 217.466L318.278 219.221C318.234 219.255 318.202 219.306 318.187 219.366C318.172 219.425 318.175 219.489 318.196 219.546C318.218 219.603 318.255 219.649 318.302 219.676C318.35 219.703 318.404 219.71 318.455 219.695Z" fill="#6C63FF"/>
<path d="M314.413 219.914C314.455 219.901 314.494 219.874 314.524 219.835C314.553 219.796 314.572 219.748 314.578 219.696C314.584 219.644 314.577 219.591 314.558 219.545C314.538 219.498 314.507 219.459 314.469 219.433L312.11 217.839L314.39 215.843C314.413 215.822 314.433 215.797 314.448 215.767C314.463 215.738 314.473 215.705 314.477 215.671C314.481 215.637 314.48 215.602 314.473 215.569C314.466 215.536 314.453 215.504 314.435 215.477C314.418 215.449 314.396 215.426 314.371 215.408C314.346 215.39 314.318 215.379 314.29 215.374C314.261 215.369 314.231 215.37 314.203 215.379C314.175 215.387 314.148 215.402 314.125 215.423L311.572 217.657C311.542 217.683 311.518 217.717 311.503 217.757C311.487 217.796 311.48 217.84 311.482 217.883C311.484 217.926 311.496 217.968 311.515 218.005C311.535 218.042 311.562 218.073 311.594 218.095L314.247 219.887C314.297 219.921 314.357 219.931 314.413 219.914Z" fill="#6C63FF"/>
<path d="M318.2 221.425C318.222 221.418 318.242 221.408 318.261 221.394C318.286 221.376 318.308 221.353 318.325 221.325C318.342 221.297 318.355 221.266 318.362 221.232C318.369 221.199 318.37 221.164 318.365 221.13C318.361 221.096 318.351 221.063 318.336 221.034L314.708 214.005C314.677 213.946 314.628 213.903 314.57 213.887C314.513 213.87 314.453 213.882 314.402 213.918C314.352 213.954 314.316 214.012 314.302 214.08C314.288 214.147 314.297 214.218 314.328 214.278L317.955 221.307C317.98 221.355 318.017 221.392 318.061 221.413C318.105 221.434 318.154 221.438 318.2 221.425Z" fill="#6C63FF"/>
<path d="M114.249 136.736H94.5921C93.7902 136.736 93.1401 137.502 93.1401 138.447V140.71C93.1401 141.655 93.7902 142.422 94.5921 142.422H114.249C115.051 142.422 115.701 141.655 115.701 140.71V138.447C115.701 137.502 115.051 136.736 114.249 136.736Z" fill="#6C63FF"/>
<path d="M125.708 148.107H83.1341C82.3322 148.107 81.6821 148.873 81.6821 149.819V152.082C81.6821 153.027 82.3322 153.793 83.1341 153.793H125.708C126.51 153.793 127.16 153.027 127.16 152.082V149.819C127.16 148.873 126.51 148.107 125.708 148.107Z" fill="#E6E6E6"/>
<path d="M125.708 159.479H83.1341C82.3322 159.479 81.6821 160.245 81.6821 161.19V163.453C81.6821 164.398 82.3322 165.165 83.1341 165.165H125.708C126.51 165.165 127.16 164.398 127.16 163.453V161.19C127.16 160.245 126.51 159.479 125.708 159.479Z" fill="#E6E6E6"/>
<path d="M129.316 197.557L129.413 197.916L129.418 197.928L132.32 208.328L135.659 220.313L141.942 242.835L142.003 246.333V246.345L142.469 274.489L141.175 278.304L142.632 284.56C142.632 284.56 141.962 275.104 138.369 280.534C136.334 283.62 133.954 286.777 132.001 289.738C134.848 291.095 137.74 292.323 140.678 293.422C141.312 293.661 141.952 293.888 142.591 294.115C142.728 294.163 142.865 294.211 143.002 294.259C152.742 297.653 162.81 299.561 172.962 299.934C173.49 299.952 174.007 299.964 174.51 299.976C174.687 299.982 174.86 299.988 175.032 299.988C175.601 299.994 176.164 300 176.732 300C177.879 300 179.021 299.98 180.157 299.94C188.571 299.661 196.935 298.328 205.108 295.963C205.053 291.986 204.9 287.34 204.682 282.376C204.581 279.942 202.302 277.305 202.165 274.757C202.069 272.843 204.114 271.043 204.007 269.1C203.317 257.133 202.455 261.727 201.815 253.252C201.749 252.421 201.688 251.626 201.632 250.866C201.221 245.424 200.937 242.021 200.937 242.021L203.667 221.742L207.955 189.903L207.625 189.263L207.255 189.047L184.638 175.855L183.41 172.147C183.052 171.079 182.432 170.161 181.628 169.512C180.824 168.863 179.873 168.512 178.899 168.505L164 168.433C163.227 168.429 162.464 168.642 161.775 169.055C161.086 169.468 160.49 170.069 160.037 170.807L156.003 177.392L129.316 197.557Z" fill="#3F3D56"/>
<path d="M145.377 237.823L142.003 246.333L139.699 252.146L135.736 276.6L133.752 279.082L132.052 270.296L114.26 274.951C113.676 271.13 114.103 275.081 113.743 270.888C113.845 270.769 113.951 270.649 114.058 270.53C114.342 270.219 114.58 269.926 114.575 269.645C114.372 255.184 114.981 230.575 120.066 215.666C120.862 213.232 121.912 210.923 123.192 208.794C123.293 208.633 123.39 208.472 123.486 208.31C125.831 204.441 127.312 200.631 129.413 197.922V197.916C129.426 197.904 129.438 197.89 129.449 197.874C129.456 197.87 129.463 197.864 129.469 197.856L143.901 188.838L144.52 209.339L144.961 224.074L145.377 237.823Z" fill="#3F3D56"/>
<path d="M197.416 240.24L201.631 250.869L203.102 254.571L207.064 279.022L209.042 281.498L210.745 272.714L211.546 272.521L225.984 268.996L230.193 284.748C231.141 282.885 231.515 280.694 231.251 278.544C230.986 276.394 230.1 274.418 228.742 272.95C228.455 272.643 228.215 272.345 228.222 272.063C228.462 255.055 227.579 223.998 219.607 211.216C217.075 207.16 215.556 203.12 213.346 200.297C213.339 200.289 213.339 200.281 213.332 200.281L207.954 189.902L207.625 189.265L207.256 189.047L197.416 240.24Z" fill="#3F3D56"/>
<path d="M171.88 163.436C182.827 163.436 191.701 152.978 191.701 140.077C191.701 127.176 182.827 116.718 171.88 116.718C160.934 116.718 152.06 127.176 152.06 140.077C152.06 152.978 160.934 163.436 171.88 163.436Z" fill="#FFB6B6"/>
<path d="M198.67 123.761C198.517 123.567 198.331 123.412 198.126 123.305C197.92 123.198 197.698 123.141 197.474 123.137L197.772 122.162C197.869 121.855 197.895 121.523 197.848 121.2C197.8 120.877 197.681 120.574 197.502 120.323C197.322 120.073 197.09 119.883 196.828 119.773C196.566 119.663 196.283 119.637 196.01 119.698L194.925 119.944L195.027 119.09C195.066 118.771 195.035 118.447 194.935 118.147C194.835 117.848 194.671 117.584 194.459 117.382C194.247 117.18 193.994 117.047 193.724 116.995C193.455 116.943 193.179 116.975 192.923 117.087C192.69 117.195 192.44 117.24 192.191 117.219C191.941 117.199 191.699 117.112 191.482 116.967C191.263 116.825 191.074 116.63 190.926 116.394C190.779 116.157 190.677 115.886 190.628 115.598L190.25 113.449L190.21 113.334C188.368 109.716 184.827 107.085 180.494 106.12C176.638 105.255 172.683 105.695 168.871 106.11C167.359 106.277 165.651 106.466 164.227 107.494C163.017 108.374 161.994 110.136 162.203 111.913C158.444 110.555 154.414 113.265 152.417 116.683C150.05 120.752 149.663 125.847 149.601 129.831C149.432 139.257 151.082 146.969 154.494 152.756C154.743 153.176 154.806 154.051 155.299 154.345L155.197 154.151C155.749 154.476 156.309 155 156.1 155.561C155.5 157.176 159.49 160.746 162.301 161.925C167.43 164.08 174.249 163.896 179.044 163.121L179.213 161.784C180.944 161.506 182.163 160.976 182.505 160.148C183.11 159.54 183.626 158.995 184.075 158.492L184.08 158.486C184.089 158.476 184.106 158.46 184.115 158.45C186.282 156.001 186.784 154.607 187.011 152.484C187.229 150.403 186.842 148.29 186.446 146.387C194.782 147.907 183.163 135.923 190.93 133.606C191.019 133.574 191.11 133.547 191.201 133.527C191.428 133.464 191.655 133.401 191.873 133.328C192.924 132.992 193.93 132.486 194.862 131.824C197.033 130.267 197.749 128.201 198.87 125.873C199.032 125.542 199.1 125.158 199.064 124.778C199.028 124.398 198.89 124.042 198.67 123.761Z" fill="#2F2E41"/>
<path d="M241.983 241.903C241.979 242.821 241.97 244.105 241.934 245.694C241.93 245.914 241.926 246.139 241.921 246.37C241.863 249.29 241.805 251.738 241.712 254.459C241.708 254.648 241.703 254.831 241.694 255.02C241.57 258.815 241.374 263.235 241.036 270.233C240.409 283.161 239.314 272.01 238.216 276.545C238.162 276.77 238.105 277.038 238.051 277.352C237.885 278.494 237.604 279.608 237.215 280.671C236.632 281.08 236.032 281.473 235.44 281.866C233.754 282.972 232.042 284.036 230.316 285.048C229.346 285.614 228.372 286.17 227.393 286.705C227.237 286.789 227.086 286.873 226.935 286.951C221.924 289.683 216.759 292.006 211.477 293.903C210.445 294.27 209.418 294.626 208.377 294.956C207.291 295.313 206.206 295.648 205.107 295.963C196.934 298.328 188.57 299.661 180.157 299.942C179.022 299.984 177.879 299.999 176.732 299.999C176.162 299.999 175.602 299.994 175.032 299.989C174.859 299.989 174.685 299.984 174.512 299.979C174.009 299.963 173.489 299.952 172.964 299.937C162.812 299.563 152.744 297.655 143.005 294.259L142.591 294.118C141.95 293.887 141.314 293.661 140.678 293.42C137.742 292.325 134.849 291.098 132 289.74C129.824 288.707 127.674 287.599 125.55 286.416C125.53 286.41 125.512 286.4 125.496 286.385C125.051 286.144 124.602 285.892 124.157 285.635C124.099 285.599 124.037 285.562 123.975 285.525C122.316 284.571 120.674 283.572 119.051 282.527C117.685 278.831 115.763 278.123 114.571 274.873C114.224 273.907 113.973 272.897 113.824 271.864C113.824 271.853 113.819 271.843 113.819 271.827C113.944 273.777 113.29 268.367 113.815 271.806C113.811 271.743 113.806 271.675 113.802 271.596C113.788 271.407 113.771 271.177 113.744 270.888C112.218 253.332 112.316 233.253 111.653 216.708C111.609 215.639 111.563 214.615 111.515 213.636C111.502 213.311 111.484 212.991 111.466 212.677C111.497 212.583 111.533 212.483 111.573 212.389C111.582 212.361 111.592 212.335 111.604 212.31C111.617 212.277 111.632 212.246 111.649 212.216C111.658 212.2 111.671 212.179 111.68 212.163C111.686 212.145 111.694 212.128 111.702 212.111C111.742 212.037 111.787 211.959 111.836 211.885C111.858 211.854 111.876 211.828 111.898 211.801C111.913 211.775 111.931 211.75 111.951 211.728C111.965 211.703 111.981 211.68 112 211.66C112.018 211.639 112.036 211.613 112.058 211.587C112.067 211.57 112.08 211.556 112.094 211.545C112.129 211.497 112.167 211.453 112.209 211.414C112.368 211.241 112.537 211.084 112.716 210.942C112.779 210.895 112.845 210.847 112.908 210.795C113.356 210.479 113.828 210.212 114.318 209.998C114.487 209.925 114.656 209.857 114.838 209.783C114.905 209.762 114.967 209.736 115.034 209.71C115.132 209.673 115.23 209.636 115.332 209.61C115.839 209.432 116.386 209.28 116.978 209.138C117.049 209.123 117.125 209.107 117.2 209.086C117.307 209.06 117.418 209.039 117.529 209.018C117.681 208.986 117.836 208.955 117.992 208.923C119.313 208.677 120.812 208.494 122.467 208.373C122.623 208.362 122.778 208.352 122.934 208.342C123.116 208.331 123.299 208.321 123.486 208.31C123.641 208.3 123.801 208.294 123.962 208.289C124.117 208.279 124.277 208.273 124.442 208.268C124.891 208.252 125.354 208.237 125.825 208.226C127.169 208.195 128.583 208.205 130.069 208.242C130.759 208.263 131.461 208.284 132.182 208.321C132.231 208.321 132.275 208.326 132.32 208.326C132.947 208.352 133.579 208.383 134.228 208.425C134.682 208.452 135.14 208.478 135.598 208.509C136.03 208.541 136.466 208.572 136.906 208.609C137.249 208.63 137.591 208.661 137.938 208.688C138.232 208.714 138.525 208.74 138.819 208.761L139.219 208.792C139.437 208.813 139.655 208.829 139.877 208.855C140.367 208.902 140.856 208.95 141.354 208.997C141.848 209.049 142.351 209.102 142.853 209.154C143.356 209.207 143.863 209.264 144.37 209.322C144.424 209.327 144.473 209.332 144.522 209.338C144.984 209.395 145.447 209.448 145.914 209.505C146.021 209.516 146.132 209.526 146.239 209.542C146.684 209.595 147.138 209.656 147.587 209.713C147.725 209.73 147.862 209.747 148.001 209.765C148.353 209.81 148.7 209.849 149.054 209.898C149.521 209.961 149.997 210.019 150.46 210.092C150.82 210.14 151.181 210.187 151.541 210.239C152.106 210.318 152.68 210.402 153.253 210.491C153.471 210.522 153.689 210.554 153.907 210.59C155.544 210.832 157.199 211.099 158.881 211.377C161.429 211.801 164.018 212.263 166.625 212.761C169.236 213.259 171.862 213.785 174.503 214.339C175.17 214.48 175.837 214.622 176.509 214.769C176.812 214.837 177.114 214.905 177.417 214.973C177.933 215.083 178.449 215.199 178.965 215.314C179.481 215.429 179.997 215.545 180.513 215.665C181.126 215.807 181.745 215.948 182.359 216.09C186.402 217.033 190.423 218.04 194.347 219.094C194.992 219.267 195.637 219.445 196.277 219.618C197.558 219.969 198.828 220.326 200.085 220.687C200.432 220.782 200.774 220.881 201.117 220.981C201.971 221.233 202.825 221.484 203.666 221.741L203.813 221.788C204.431 221.966 205.036 222.15 205.641 222.339C207.069 222.779 208.473 223.225 209.853 223.675C210.77 223.974 211.676 224.277 212.571 224.582C213.91 225.038 215.222 225.5 216.499 225.966C216.815 226.082 217.131 226.197 217.442 226.307C218.376 226.648 219.297 226.994 220.191 227.34C220.903 227.613 221.597 227.89 222.282 228.168C222.967 228.446 223.639 228.724 224.297 229.002C224.72 229.18 225.138 229.369 225.556 229.547C226.156 229.809 226.748 230.071 227.326 230.333C227.504 230.412 227.678 230.496 227.851 230.574C227.962 230.632 228.069 230.679 228.176 230.732C228.385 230.831 228.599 230.926 228.803 231.025C229.012 231.12 229.217 231.219 229.421 231.324C229.622 231.418 229.826 231.518 230.022 231.618C230.222 231.712 230.418 231.812 230.614 231.917C230.778 231.995 230.938 232.079 231.094 232.163C231.41 232.325 231.726 232.488 232.033 232.656C232.184 232.74 232.335 232.818 232.486 232.902L232.833 233.091C232.882 233.122 232.931 233.148 232.98 233.175C233.091 233.238 233.207 233.306 233.318 233.369C233.576 233.51 233.83 233.662 234.079 233.804C234.412 234.003 234.737 234.202 235.049 234.396C235.364 234.595 235.671 234.795 235.965 234.989C236.014 235.02 236.058 235.051 236.107 235.083C236.174 235.125 236.241 235.172 236.307 235.214C236.534 235.366 236.752 235.523 236.97 235.675C237.397 235.985 237.802 236.289 238.18 236.593C238.265 236.661 238.345 236.729 238.429 236.792C238.709 237.028 238.976 237.258 239.225 237.494C239.225 237.5 239.225 237.5 239.23 237.5C239.314 237.573 239.394 237.652 239.475 237.725C239.541 237.798 239.612 237.861 239.679 237.935C239.91 238.171 240.124 238.396 240.32 238.627C240.385 238.698 240.448 238.773 240.507 238.852C240.532 238.877 240.556 238.906 240.578 238.936C240.667 239.041 240.747 239.146 240.822 239.251C240.834 239.265 240.845 239.281 240.854 239.298C240.96 239.445 241.058 239.591 241.152 239.738C241.196 239.812 241.245 239.885 241.285 239.958C241.338 240.047 241.392 240.142 241.436 240.231C241.476 240.304 241.512 240.383 241.547 240.456C241.642 240.645 241.722 240.844 241.788 241.049C241.838 241.188 241.878 241.332 241.908 241.479C241.941 241.618 241.967 241.76 241.983 241.903Z" fill="#2F2E41"/>
<path opacity="0.2" d="M241.984 241.903C241.979 242.821 241.97 244.105 241.935 245.694C241.93 245.914 241.921 246.139 241.917 246.37C241.872 248.598 241.806 251.35 241.712 254.459C241.708 254.648 241.703 254.831 241.694 255.02C241.57 258.815 241.374 263.235 241.036 270.233C240.409 283.161 239.315 272.01 238.216 276.545C235.164 274.333 231.819 272.016 228.243 269.636C227.598 269.206 226.947 268.774 226.29 268.341C219.137 263.638 211.148 258.71 202.807 253.83C202.478 253.636 202.145 253.442 201.816 253.253C182.71 242.123 161.857 231.298 144.962 224.074C141.701 222.679 138.588 221.421 135.661 220.315C129.495 217.993 124.166 216.368 120.065 215.665C115.795 214.931 112.845 215.193 111.653 216.708C111.609 215.639 111.563 214.615 111.515 213.636C111.497 213.311 111.48 212.991 111.462 212.677C111.489 212.591 111.525 212.508 111.56 212.425C111.565 212.413 111.568 212.401 111.573 212.389C111.582 212.361 111.592 212.335 111.604 212.31C111.617 212.277 111.632 212.246 111.649 212.216C111.663 212.178 111.681 212.143 111.702 212.111C111.742 212.037 111.787 211.959 111.836 211.885C111.872 211.83 111.91 211.778 111.951 211.728C111.965 211.703 111.981 211.68 112 211.66C112.018 211.639 112.036 211.613 112.058 211.587C112.067 211.57 112.08 211.556 112.094 211.545C112.129 211.497 112.167 211.453 112.209 211.414C112.368 211.241 112.537 211.084 112.716 210.942C112.779 210.895 112.845 210.847 112.908 210.795C113.356 210.479 113.828 210.212 114.318 209.998C114.487 209.925 114.656 209.857 114.838 209.783C114.905 209.762 114.967 209.736 115.034 209.71C115.132 209.673 115.23 209.636 115.332 209.61C115.839 209.432 116.386 209.28 116.978 209.138C117.156 209.096 117.343 209.054 117.529 209.018C117.681 208.986 117.836 208.955 117.992 208.923C119.313 208.677 120.812 208.493 122.467 208.373C122.623 208.362 122.778 208.352 122.934 208.341C123.116 208.331 123.299 208.32 123.486 208.31C123.641 208.3 123.801 208.294 123.962 208.289C124.117 208.279 124.277 208.273 124.442 208.268C124.891 208.252 125.354 208.237 125.825 208.226C127.169 208.2 128.583 208.21 130.069 208.247C130.759 208.263 131.461 208.289 132.182 208.326C132.227 208.326 132.275 208.331 132.32 208.331C132.947 208.352 133.583 208.389 134.228 208.425C134.682 208.452 135.14 208.478 135.598 208.509C136.03 208.541 136.466 208.572 136.906 208.609C137.249 208.63 137.591 208.661 137.938 208.687C138.232 208.714 138.525 208.74 138.819 208.761C139.17 208.792 139.522 208.824 139.878 208.855C140.367 208.902 140.856 208.95 141.354 208.997C141.848 209.049 142.351 209.102 142.853 209.154C143.356 209.206 143.863 209.264 144.37 209.322C144.424 209.327 144.473 209.332 144.522 209.338C144.984 209.395 145.447 209.448 145.914 209.505C148.503 209.815 151.167 210.176 153.907 210.59C155.544 210.837 157.202 211.101 158.881 211.382C161.429 211.807 164.018 212.268 166.625 212.761C169.236 213.259 171.862 213.785 174.503 214.339C175.17 214.48 175.837 214.622 176.509 214.769C177.328 214.947 178.146 215.129 178.965 215.314C179.481 215.429 179.997 215.545 180.513 215.665C181.126 215.807 181.745 215.948 182.359 216.09C186.402 217.033 190.423 218.04 194.347 219.094C194.992 219.267 195.637 219.445 196.277 219.618C197.558 219.969 198.828 220.326 200.085 220.687C200.432 220.787 200.775 220.887 201.117 220.986C201.976 221.238 202.825 221.489 203.666 221.741V221.746C203.715 221.757 203.764 221.772 203.813 221.788C204.427 221.972 205.036 222.155 205.641 222.344C207.069 222.784 208.473 223.228 209.854 223.675C210.77 223.979 211.677 224.278 212.571 224.582C213.91 225.044 215.223 225.505 216.499 225.966C216.815 226.082 217.131 226.197 217.442 226.307C218.376 226.653 219.293 226.997 220.191 227.34C220.903 227.612 221.597 227.89 222.282 228.168C222.967 228.446 223.639 228.724 224.297 229.002C224.724 229.18 225.142 229.363 225.556 229.542C226.161 229.804 226.748 230.066 227.326 230.333C227.504 230.412 227.678 230.496 227.851 230.574C228.176 230.721 228.492 230.873 228.803 231.025C229.012 231.12 229.217 231.219 229.422 231.324C229.622 231.418 229.826 231.518 230.022 231.618C230.222 231.712 230.418 231.812 230.614 231.917C230.778 231.995 230.938 232.079 231.094 232.163C231.41 232.325 231.726 232.488 232.033 232.656C232.184 232.74 232.335 232.818 232.486 232.902L232.833 233.091C232.882 233.122 232.931 233.148 232.98 233.175C233.358 233.384 233.723 233.594 234.079 233.804C234.412 234.003 234.737 234.202 235.049 234.396C235.418 234.627 235.769 234.852 236.107 235.083C236.174 235.125 236.241 235.172 236.307 235.214C236.534 235.366 236.752 235.523 236.97 235.675C237.397 235.985 237.802 236.289 238.18 236.593C238.554 236.897 238.901 237.196 239.226 237.494C239.226 237.5 239.226 237.5 239.23 237.5C239.386 237.646 239.537 237.793 239.679 237.935C239.911 238.171 240.124 238.396 240.32 238.627C240.385 238.698 240.448 238.773 240.507 238.852C240.533 238.877 240.556 238.906 240.578 238.936C240.671 239.057 240.765 239.177 240.854 239.298C240.96 239.445 241.058 239.591 241.152 239.738C241.196 239.812 241.245 239.885 241.285 239.958C241.339 240.047 241.392 240.142 241.436 240.231C241.476 240.304 241.512 240.383 241.548 240.456C241.642 240.645 241.722 240.843 241.788 241.049C241.836 241.188 241.877 241.332 241.908 241.479C241.942 241.618 241.967 241.76 241.984 241.903Z" fill="black"/>
</g>
<defs>
<clipPath id="clip0_80_219">
<rect width="350" height="300" fill="white"/>
</clipPath>
</defs>
</svg>
