<svg width="200" height="150" viewBox="0 0 200 150" fill="none" xmlns="http://www.w3.org/2000/svg">
<g clip-path="url(#clip0_26_255)">
<path d="M116.5 26.4433C120.248 26.4433 123.287 23.3098 123.287 19.4445C123.287 15.5791 120.248 12.4457 116.5 12.4457C112.751 12.4457 109.713 15.5791 109.713 19.4445C109.713 23.3098 112.751 26.4433 116.5 26.4433Z" fill="#F2F2F2"/>
<path d="M169.149 130.313C179.237 122.39 184.055 109.075 181.039 96.3734C180.964 96.0578 180.884 95.743 180.801 95.4288C178.801 87.8893 173.854 80.7237 166.643 78.3147C160.588 76.2919 153.979 77.8474 147.663 77.043C135.263 75.4639 125.65 65.1181 118.886 54.2859C112.122 43.4537 106.924 31.3286 97.9355 22.3797C83.1202 7.62878 58.9528 4.4529 40.5839 14.0546C22.2151 23.6564 10.5144 44.9586 11.0134 66.189C11.5124 87.4194 23.7346 107.717 41.4841 118.486C48.0046 122.442 55.5462 125.245 63.0515 124.264C69.5638 123.413 75.4811 119.805 81.9628 118.734C92.1534 117.05 102.279 121.801 111.093 127.338C119.907 132.874 128.421 139.437 138.437 142.004C148.163 144.496 160.212 137.332 169.149 130.313Z" fill="#F2F2F2"/>
<path d="M154.654 14.5004C154.433 14.3484 154.21 14.2042 153.988 14.0574C147.596 9.84143 140.744 6.4164 133.575 3.8531L131.912 27.5015H121.374V0.400989C120.71 0.259445 120.042 0.125764 119.373 -5.34058e-05V27.5015H106.849C99.9548 27.5015 93.3427 24.6772 88.4675 19.65C83.5924 14.6227 80.8535 7.80424 80.8535 0.694594C80.1825 0.844002 79.5165 1.00387 78.8505 1.17425V27.5015H68.65L67.0664 4.95139C59.6987 7.86519 52.7041 11.697 46.2382 16.3615C46.1264 16.4401 46.0146 16.5214 45.9053 16.6C45.3435 17.0063 44.7894 17.4204 44.2378 17.8398V108.059H74.3006L73.7693 100.47L70.8462 58.8065H129.714L126.79 100.47L126.259 108.059H155.989V15.4126C155.547 15.1033 155.102 14.7992 154.654 14.5004ZM78.8506 51.9258H70.3632L68.7949 29.567H78.8506V51.9258ZM119.373 51.9258H105.118V51.4829C105.118 51.2699 105.078 51.0591 104.999 50.8623C104.919 50.6656 104.803 50.4869 104.657 50.3365C104.511 50.186 104.338 50.0668 104.147 49.9855C103.956 49.9043 103.751 49.8626 103.545 49.863H97.3478C97.1415 49.8629 96.9372 49.9047 96.7465 49.9861C96.5559 50.0675 96.3827 50.1868 96.2368 50.3372C96.091 50.4877 95.9752 50.6663 95.8963 50.8629C95.8174 51.0594 95.7768 51.2701 95.7769 51.4829V51.9258H80.8536V29.567H119.373V51.9258ZM121.374 51.9258V29.567H131.767L130.199 51.9258H121.374Z" fill="#3F3D56"/>
<path d="M0 113.836C2.20819 116.534 4.5966 119.07 7.14776 121.425L192.852 121.687C195.403 119.332 197.792 116.796 200 114.098L0 113.836Z" fill="#3F3D56"/>
<path d="M125.932 89.5378V112.003C125.932 112.289 126.043 112.563 126.239 112.766C126.435 112.968 126.702 113.082 126.979 113.082H159.262C159.54 113.082 159.806 112.968 160.002 112.766C160.199 112.563 160.309 112.289 160.309 112.003V89.5378C160.308 89.2518 160.198 88.9777 160.002 88.7755C159.805 88.5734 159.54 88.4597 159.262 88.4593H126.979C126.702 88.4597 126.436 88.5734 126.24 88.7755C126.043 88.9777 125.933 89.2518 125.932 89.5378Z" fill="#3F3D56"/>
<path d="M126.689 89.8173V111.725C126.69 111.878 126.749 112.025 126.854 112.133C126.959 112.241 127.101 112.302 127.249 112.302H158.993C159.142 112.302 159.284 112.241 159.389 112.133C159.494 112.025 159.553 111.878 159.553 111.725V89.8173C159.553 89.6642 159.494 89.5173 159.389 89.4089C159.284 89.3005 159.142 89.2394 158.993 89.2391H127.249C127.101 89.2394 126.958 89.3005 126.853 89.4089C126.748 89.5173 126.689 89.6642 126.689 89.8173Z" fill="#6C63FF"/>
<path d="M125.257 116.384C125.316 116.46 125.391 116.522 125.477 116.564C125.562 116.606 125.656 116.628 125.751 116.627H160.319C160.413 116.627 160.506 116.605 160.592 116.563C160.677 116.521 160.752 116.46 160.812 116.385C160.871 116.309 160.914 116.221 160.936 116.126C160.958 116.031 160.96 115.932 160.94 115.837L160.404 113.209C160.381 113.101 160.334 113.002 160.264 112.918C160.195 112.835 160.107 112.771 160.008 112.732C159.936 112.703 159.859 112.688 159.782 112.688H126.286C126.208 112.688 126.132 112.703 126.06 112.732C125.96 112.771 125.872 112.835 125.803 112.918C125.734 113.002 125.686 113.101 125.664 113.209L125.127 115.837C125.108 115.932 125.11 116.031 125.132 116.125C125.155 116.22 125.197 116.308 125.257 116.384Z" fill="#2F2E41"/>
<path d="M158.596 113.82H159.412C159.481 113.82 159.536 113.763 159.536 113.692V113.29C159.536 113.219 159.481 113.162 159.412 113.162H158.596C158.527 113.162 158.472 113.219 158.472 113.29V113.692C158.472 113.763 158.527 113.82 158.596 113.82Z" fill="#3F3D56"/>
<path d="M156.467 113.82H157.283C157.352 113.82 157.407 113.763 157.407 113.692V113.29C157.407 113.219 157.352 113.162 157.283 113.162H156.467C156.398 113.162 156.343 113.219 156.343 113.29V113.692C156.343 113.763 156.398 113.82 156.467 113.82Z" fill="#3F3D56"/>
<path d="M154.337 113.82H155.154C155.222 113.82 155.278 113.763 155.278 113.692V113.29C155.278 113.219 155.222 113.162 155.154 113.162H154.337C154.269 113.162 154.213 113.219 154.213 113.29V113.692C154.213 113.763 154.269 113.82 154.337 113.82Z" fill="#3F3D56"/>
<path d="M152.208 113.82H153.024C153.093 113.82 153.148 113.763 153.148 113.692V113.29C153.148 113.219 153.093 113.162 153.024 113.162H152.208C152.139 113.162 152.084 113.219 152.084 113.29V113.692C152.084 113.763 152.139 113.82 152.208 113.82Z" fill="#3F3D56"/>
<path d="M150.078 113.82H150.895C150.963 113.82 151.019 113.763 151.019 113.692V113.29C151.019 113.219 150.963 113.162 150.895 113.162H150.078C150.01 113.162 149.954 113.219 149.954 113.29V113.692C149.954 113.763 150.01 113.82 150.078 113.82Z" fill="#3F3D56"/>
<path d="M147.949 113.82H148.766C148.834 113.82 148.89 113.763 148.89 113.692V113.29C148.89 113.219 148.834 113.162 148.766 113.162H147.949C147.881 113.162 147.825 113.219 147.825 113.29V113.692C147.825 113.763 147.881 113.82 147.949 113.82Z" fill="#3F3D56"/>
<path d="M145.82 113.82H146.636C146.705 113.82 146.76 113.763 146.76 113.692V113.29C146.76 113.219 146.705 113.162 146.636 113.162H145.82C145.751 113.162 145.696 113.219 145.696 113.29V113.692C145.696 113.763 145.751 113.82 145.82 113.82Z" fill="#3F3D56"/>
<path d="M143.691 113.82H144.507C144.576 113.82 144.631 113.763 144.631 113.692V113.29C144.631 113.219 144.576 113.162 144.507 113.162H143.691C143.622 113.162 143.566 113.219 143.566 113.29V113.692C143.566 113.763 143.622 113.82 143.691 113.82Z" fill="#3F3D56"/>
<path d="M141.561 113.82H142.378C142.446 113.82 142.502 113.763 142.502 113.692V113.29C142.502 113.219 142.446 113.162 142.378 113.162H141.561C141.493 113.162 141.437 113.219 141.437 113.29V113.692C141.437 113.763 141.493 113.82 141.561 113.82Z" fill="#3F3D56"/>
<path d="M139.432 113.82H140.248C140.317 113.82 140.373 113.763 140.373 113.692V113.29C140.373 113.219 140.317 113.162 140.248 113.162H139.432C139.363 113.162 139.308 113.219 139.308 113.29V113.692C139.308 113.763 139.363 113.82 139.432 113.82Z" fill="#3F3D56"/>
<path d="M137.303 113.82H138.119C138.188 113.82 138.243 113.763 138.243 113.692V113.29C138.243 113.219 138.188 113.162 138.119 113.162H137.303C137.234 113.162 137.179 113.219 137.179 113.29V113.692C137.179 113.763 137.234 113.82 137.303 113.82Z" fill="#3F3D56"/>
<path d="M135.173 113.82H135.99C136.058 113.82 136.114 113.763 136.114 113.692V113.29C136.114 113.219 136.058 113.162 135.99 113.162H135.173C135.105 113.162 135.049 113.219 135.049 113.29V113.692C135.049 113.763 135.105 113.82 135.173 113.82Z" fill="#3F3D56"/>
<path d="M133.044 113.82H133.861C133.929 113.82 133.985 113.763 133.985 113.692V113.29C133.985 113.219 133.929 113.162 133.861 113.162H133.044C132.976 113.162 132.92 113.219 132.92 113.29V113.692C132.92 113.763 132.976 113.82 133.044 113.82Z" fill="#3F3D56"/>
<path d="M130.915 113.82H131.731C131.8 113.82 131.855 113.763 131.855 113.692V113.29C131.855 113.219 131.8 113.162 131.731 113.162H130.915C130.846 113.162 130.791 113.219 130.791 113.29V113.692C130.791 113.763 130.846 113.82 130.915 113.82Z" fill="#3F3D56"/>
<path d="M128.785 113.82H129.602C129.67 113.82 129.726 113.763 129.726 113.692V113.29C129.726 113.219 129.67 113.162 129.602 113.162H128.785C128.717 113.162 128.661 113.219 128.661 113.29V113.692C128.661 113.763 128.717 113.82 128.785 113.82Z" fill="#3F3D56"/>
<path d="M126.656 113.82H127.472C127.541 113.82 127.596 113.763 127.596 113.692V113.29C127.596 113.219 127.541 113.162 127.472 113.162H126.656C126.587 113.162 126.532 113.219 126.532 113.29V113.692C126.532 113.763 126.587 113.82 126.656 113.82Z" fill="#3F3D56"/>
<path d="M158.621 114.918H159.437C159.506 114.918 159.562 114.861 159.562 114.79V114.387C159.562 114.317 159.506 114.259 159.437 114.259H158.621C158.552 114.259 158.497 114.317 158.497 114.387V114.79C158.497 114.861 158.552 114.918 158.621 114.918Z" fill="#3F3D56"/>
<path d="M156.492 114.918H157.308C157.377 114.918 157.432 114.861 157.432 114.79V114.387C157.432 114.317 157.377 114.259 157.308 114.259H156.492C156.423 114.259 156.368 114.317 156.368 114.387V114.79C156.368 114.861 156.423 114.918 156.492 114.918Z" fill="#3F3D56"/>
<path d="M154.362 114.918H155.179C155.247 114.918 155.303 114.861 155.303 114.79V114.387C155.303 114.317 155.247 114.259 155.179 114.259H154.362C154.294 114.259 154.238 114.317 154.238 114.387V114.79C154.238 114.861 154.294 114.918 154.362 114.918Z" fill="#3F3D56"/>
<path d="M152.233 114.918H153.049C153.118 114.918 153.174 114.861 153.174 114.79V114.387C153.174 114.317 153.118 114.259 153.049 114.259H152.233C152.164 114.259 152.109 114.317 152.109 114.387V114.79C152.109 114.861 152.164 114.918 152.233 114.918Z" fill="#3F3D56"/>
<path d="M150.104 114.918H150.92C150.989 114.918 151.044 114.861 151.044 114.79V114.387C151.044 114.317 150.989 114.259 150.92 114.259H150.104C150.035 114.259 149.98 114.317 149.98 114.387V114.79C149.98 114.861 150.035 114.918 150.104 114.918Z" fill="#3F3D56"/>
<path d="M147.974 114.918H148.791C148.859 114.918 148.915 114.861 148.915 114.79V114.387C148.915 114.317 148.859 114.259 148.791 114.259H147.974C147.906 114.259 147.85 114.317 147.85 114.387V114.79C147.85 114.861 147.906 114.918 147.974 114.918Z" fill="#3F3D56"/>
<path d="M145.845 114.918H146.662C146.73 114.918 146.786 114.861 146.786 114.79V114.387C146.786 114.317 146.73 114.259 146.662 114.259H145.845C145.777 114.259 145.721 114.317 145.721 114.387V114.79C145.721 114.861 145.777 114.918 145.845 114.918Z" fill="#3F3D56"/>
<path d="M143.716 114.918H144.532C144.601 114.918 144.656 114.861 144.656 114.79V114.387C144.656 114.317 144.601 114.259 144.532 114.259H143.716C143.647 114.259 143.592 114.317 143.592 114.387V114.79C143.592 114.861 143.647 114.918 143.716 114.918Z" fill="#3F3D56"/>
<path d="M141.586 114.918H142.403C142.471 114.918 142.527 114.861 142.527 114.79V114.387C142.527 114.317 142.471 114.259 142.403 114.259H141.586C141.518 114.259 141.462 114.317 141.462 114.387V114.79C141.462 114.861 141.518 114.918 141.586 114.918Z" fill="#3F3D56"/>
<path d="M139.457 114.918H140.274C140.342 114.918 140.398 114.861 140.398 114.79V114.387C140.398 114.317 140.342 114.259 140.274 114.259H139.457C139.389 114.259 139.333 114.317 139.333 114.387V114.79C139.333 114.861 139.389 114.918 139.457 114.918Z" fill="#3F3D56"/>
<path d="M137.328 114.918H138.144C138.213 114.918 138.268 114.861 138.268 114.79V114.387C138.268 114.317 138.213 114.259 138.144 114.259H137.328C137.259 114.259 137.204 114.317 137.204 114.387V114.79C137.204 114.861 137.259 114.918 137.328 114.918Z" fill="#3F3D56"/>
<path d="M135.198 114.918H136.015C136.083 114.918 136.139 114.861 136.139 114.79V114.387C136.139 114.317 136.083 114.259 136.015 114.259H135.198C135.13 114.259 135.074 114.317 135.074 114.387V114.79C135.074 114.861 135.13 114.918 135.198 114.918Z" fill="#3F3D56"/>
<path d="M133.069 114.918H133.886C133.954 114.918 134.01 114.861 134.01 114.79V114.387C134.01 114.317 133.954 114.259 133.886 114.259H133.069C133.001 114.259 132.945 114.317 132.945 114.387V114.79C132.945 114.861 133.001 114.918 133.069 114.918Z" fill="#3F3D56"/>
<path d="M130.94 114.918H131.756C131.825 114.918 131.88 114.861 131.88 114.79V114.387C131.88 114.317 131.825 114.259 131.756 114.259H130.94C130.871 114.259 130.816 114.317 130.816 114.387V114.79C130.816 114.861 130.871 114.918 130.94 114.918Z" fill="#3F3D56"/>
<path d="M128.81 114.918H129.627C129.695 114.918 129.751 114.861 129.751 114.79V114.387C129.751 114.317 129.695 114.259 129.627 114.259H128.81C128.742 114.259 128.686 114.317 128.686 114.387V114.79C128.686 114.861 128.742 114.918 128.81 114.918Z" fill="#3F3D56"/>
<path d="M126.681 114.918H127.498C127.566 114.918 127.622 114.861 127.622 114.79V114.387C127.622 114.317 127.566 114.259 127.498 114.259H126.681C126.613 114.259 126.557 114.317 126.557 114.387V114.79C126.557 114.861 126.613 114.918 126.681 114.918Z" fill="#3F3D56"/>
<path d="M140.948 116.236H149.217C149.285 116.236 149.341 116.178 149.341 116.108V115.705C149.341 115.634 149.285 115.577 149.217 115.577H140.948C140.879 115.577 140.824 115.634 140.824 115.705V116.108C140.824 116.178 140.879 116.236 140.948 116.236Z" fill="#3F3D56"/>
<path d="M132.187 94.032H131.464C131.245 94.032 131.067 94.2152 131.067 94.4412C131.067 94.6672 131.245 94.8504 131.464 94.8504H132.187C132.406 94.8504 132.584 94.6672 132.584 94.4412C132.584 94.2152 132.406 94.032 132.187 94.032Z" fill="white"/>
<path d="M140.454 94.032H139.731C139.512 94.032 139.334 94.2152 139.334 94.4412C139.334 94.6672 139.512 94.8504 139.731 94.8504H140.454C140.673 94.8504 140.85 94.6672 140.85 94.4412C140.85 94.2152 140.673 94.032 140.454 94.032Z" fill="white"/>
<path d="M142.796 94.032H142.073C141.854 94.032 141.676 94.2152 141.676 94.4412C141.676 94.6672 141.854 94.8504 142.073 94.8504H142.796C143.015 94.8504 143.193 94.6672 143.193 94.4412C143.193 94.2152 143.015 94.032 142.796 94.032Z" fill="white"/>
<path d="M138.205 93.9638H133.712C133.493 93.9638 133.316 94.147 133.316 94.373C133.316 94.599 133.493 94.7822 133.712 94.7822H138.205C138.424 94.7822 138.602 94.599 138.602 94.373C138.602 94.147 138.424 93.9638 138.205 93.9638Z" fill="white"/>
<path d="M149.228 93.9638H144.735C144.516 93.9638 144.338 94.147 144.338 94.373C144.338 94.599 144.516 94.7822 144.735 94.7822H149.228C149.447 94.7822 149.625 94.599 149.625 94.373C149.625 94.147 149.447 93.9638 149.228 93.9638Z" fill="white"/>
<path d="M134.391 95.8791H133.669C133.449 95.8791 133.272 96.0623 133.272 96.2883C133.272 96.5143 133.449 96.6975 133.669 96.6975H134.391C134.611 96.6975 134.788 96.5143 134.788 96.2883C134.788 96.0623 134.611 95.8791 134.391 95.8791Z" fill="white"/>
<path d="M142.658 95.8791H141.935C141.716 95.8791 141.539 96.0623 141.539 96.2883C141.539 96.5143 141.716 96.6975 141.935 96.6975H142.658C142.877 96.6975 143.055 96.5143 143.055 96.2883C143.055 96.0623 142.877 95.8791 142.658 95.8791Z" fill="white"/>
<path d="M145 95.8791H144.278C144.059 95.8791 143.881 96.0623 143.881 96.2883C143.881 96.5143 144.059 96.6975 144.278 96.6975H145C145.22 96.6975 145.397 96.5143 145.397 96.2883C145.397 96.0623 145.22 95.8791 145 95.8791Z" fill="white"/>
<path d="M140.41 95.8109H135.917C135.698 95.8109 135.52 95.9941 135.52 96.2201C135.52 96.4461 135.698 96.6293 135.917 96.6293H140.41C140.629 96.6293 140.806 96.4461 140.806 96.2201C140.806 95.9941 140.629 95.8109 140.41 95.8109Z" fill="white"/>
<path d="M151.432 95.8109H146.94C146.721 95.8109 146.543 95.9941 146.543 96.2201C146.543 96.4461 146.721 96.6293 146.94 96.6293H151.432C151.651 96.6293 151.829 96.4461 151.829 96.2201C151.829 95.9941 151.651 95.8109 151.432 95.8109Z" fill="white"/>
<path d="M136.596 97.7262H135.873C135.654 97.7262 135.476 97.9094 135.476 98.1354C135.476 98.3613 135.654 98.5445 135.873 98.5445H136.596C136.815 98.5445 136.993 98.3613 136.993 98.1354C136.993 97.9094 136.815 97.7262 136.596 97.7262Z" fill="white"/>
<path d="M144.863 97.7262H144.14C143.921 97.7262 143.743 97.9094 143.743 98.1354C143.743 98.3613 143.921 98.5445 144.14 98.5445H144.863C145.082 98.5445 145.26 98.3613 145.26 98.1354C145.26 97.9094 145.082 97.7262 144.863 97.7262Z" fill="white"/>
<path d="M147.205 97.7262H146.482C146.263 97.7262 146.085 97.9094 146.085 98.1354C146.085 98.3613 146.263 98.5445 146.482 98.5445H147.205C147.424 98.5445 147.602 98.3613 147.602 98.1354C147.602 97.9094 147.424 97.7262 147.205 97.7262Z" fill="white"/>
<path d="M142.614 97.6579H138.122C137.902 97.6579 137.725 97.8411 137.725 98.0671C137.725 98.2931 137.902 98.4763 138.122 98.4763H142.614C142.833 98.4763 143.011 98.2931 143.011 98.0671C143.011 97.8411 142.833 97.6579 142.614 97.6579Z" fill="white"/>
<path d="M153.637 97.6579H149.144C148.925 97.6579 148.747 97.8411 148.747 98.0671C148.747 98.2931 148.925 98.4763 149.144 98.4763H153.637C153.856 98.4763 154.033 98.2931 154.033 98.0671C154.033 97.8411 153.856 97.6579 153.637 97.6579Z" fill="white"/>
<path d="M138.8 99.5732H138.077C137.858 99.5732 137.681 99.7564 137.681 99.9824C137.681 100.208 137.858 100.392 138.077 100.392H138.8C139.019 100.392 139.197 100.208 139.197 99.9824C139.197 99.7564 139.019 99.5732 138.8 99.5732Z" fill="white"/>
<path d="M147.067 99.5732H146.344C146.125 99.5732 145.948 99.7564 145.948 99.9824C145.948 100.208 146.125 100.392 146.344 100.392H147.067C147.286 100.392 147.464 100.208 147.464 99.9824C147.464 99.7564 147.286 99.5732 147.067 99.5732Z" fill="white"/>
<path d="M149.41 99.5732H148.687C148.468 99.5732 148.29 99.7564 148.29 99.9824C148.29 100.208 148.468 100.392 148.687 100.392H149.41C149.629 100.392 149.806 100.208 149.806 99.9824C149.806 99.7564 149.629 99.5732 149.41 99.5732Z" fill="white"/>
<path d="M144.819 99.505H140.326C140.107 99.505 139.929 99.6882 139.929 99.9142C139.929 100.14 140.107 100.323 140.326 100.323H144.819C145.038 100.323 145.215 100.14 145.215 99.9142C145.215 99.6882 145.038 99.505 144.819 99.505Z" fill="white"/>
<path d="M140.454 106.918H139.731C139.512 106.918 139.334 107.101 139.334 107.327C139.334 107.553 139.512 107.736 139.731 107.736H140.454C140.673 107.736 140.85 107.553 140.85 107.327C140.85 107.101 140.673 106.918 140.454 106.918Z" fill="white"/>
<path d="M142.796 106.918H142.073C141.854 106.918 141.676 107.101 141.676 107.327C141.676 107.553 141.854 107.736 142.073 107.736H142.796C143.015 107.736 143.193 107.553 143.193 107.327C143.193 107.101 143.015 106.918 142.796 106.918Z" fill="white"/>
<path d="M149.228 106.986H144.735C144.516 106.986 144.338 107.169 144.338 107.395C144.338 107.621 144.516 107.805 144.735 107.805H149.228C149.447 107.805 149.625 107.621 149.625 107.395C149.625 107.169 149.447 106.986 149.228 106.986Z" fill="white"/>
<path d="M132.187 106.918H131.464C131.245 106.918 131.067 107.101 131.067 107.327C131.067 107.553 131.245 107.736 131.464 107.736H132.187C132.406 107.736 132.584 107.553 132.584 107.327C132.584 107.101 132.406 106.918 132.187 106.918Z" fill="white"/>
<path d="M138.205 106.986H133.712C133.493 106.986 133.316 107.169 133.316 107.395C133.316 107.621 133.493 107.805 133.712 107.805H138.205C138.424 107.805 138.602 107.621 138.602 107.395C138.602 107.169 138.424 106.986 138.205 106.986Z" fill="white"/>
<path d="M134.391 105.071H133.669C133.449 105.071 133.272 105.254 133.272 105.48C133.272 105.706 133.449 105.889 133.669 105.889H134.391C134.611 105.889 134.788 105.706 134.788 105.48C134.788 105.254 134.611 105.071 134.391 105.071Z" fill="white"/>
<path d="M142.658 105.071H141.935C141.716 105.071 141.539 105.254 141.539 105.48C141.539 105.706 141.716 105.889 141.935 105.889H142.658C142.877 105.889 143.055 105.706 143.055 105.48C143.055 105.254 142.877 105.071 142.658 105.071Z" fill="white"/>
<path d="M145 105.071H144.278C144.059 105.071 143.881 105.254 143.881 105.48C143.881 105.706 144.059 105.889 144.278 105.889H145C145.22 105.889 145.397 105.706 145.397 105.48C145.397 105.254 145.22 105.071 145 105.071Z" fill="white"/>
<path d="M140.41 105.139H135.917C135.698 105.139 135.52 105.322 135.52 105.548C135.52 105.774 135.698 105.957 135.917 105.957H140.41C140.629 105.957 140.806 105.774 140.806 105.548C140.806 105.322 140.629 105.139 140.41 105.139Z" fill="white"/>
<path d="M136.596 103.224H135.873C135.654 103.224 135.476 103.407 135.476 103.633C135.476 103.859 135.654 104.042 135.873 104.042H136.596C136.815 104.042 136.993 103.859 136.993 103.633C136.993 103.407 136.815 103.224 136.596 103.224Z" fill="white"/>
<path d="M144.863 103.224H144.14C143.921 103.224 143.743 103.407 143.743 103.633C143.743 103.859 143.921 104.042 144.14 104.042H144.863C145.082 104.042 145.26 103.859 145.26 103.633C145.26 103.407 145.082 103.224 144.863 103.224Z" fill="white"/>
<path d="M147.205 103.224H146.482C146.263 103.224 146.085 103.407 146.085 103.633C146.085 103.859 146.263 104.042 146.482 104.042H147.205C147.424 104.042 147.602 103.859 147.602 103.633C147.602 103.407 147.424 103.224 147.205 103.224Z" fill="white"/>
<path d="M142.614 103.292H138.122C137.902 103.292 137.725 103.475 137.725 103.701C137.725 103.927 137.902 104.11 138.122 104.11H142.614C142.833 104.11 143.011 103.927 143.011 103.701C143.011 103.475 142.833 103.292 142.614 103.292Z" fill="white"/>
<path d="M138.8 101.377H138.077C137.858 101.377 137.681 101.56 137.681 101.786C137.681 102.012 137.858 102.195 138.077 102.195H138.8C139.019 102.195 139.197 102.012 139.197 101.786C139.197 101.56 139.019 101.377 138.8 101.377Z" fill="white"/>
<path d="M147.067 101.377H146.344C146.125 101.377 145.948 101.56 145.948 101.786C145.948 102.012 146.125 102.195 146.344 102.195H147.067C147.286 102.195 147.464 102.012 147.464 101.786C147.464 101.56 147.286 101.377 147.067 101.377Z" fill="white"/>
<path d="M149.41 101.377H148.687C148.468 101.377 148.29 101.56 148.29 101.786C148.29 102.012 148.468 102.195 148.687 102.195H149.41C149.629 102.195 149.806 102.012 149.806 101.786C149.806 101.56 149.629 101.377 149.41 101.377Z" fill="white"/>
<path d="M144.819 101.445H140.326C140.107 101.445 139.929 101.628 139.929 101.854C139.929 102.08 140.107 102.263 140.326 102.263H144.819C145.038 102.263 145.215 102.08 145.215 101.854C145.215 101.628 145.038 101.445 144.819 101.445Z" fill="white"/>
<path d="M128.344 128.565L124.95 123.034L135.601 114.278L139.998 109.256C140.569 108.603 141.296 108.117 142.107 107.845C142.917 107.573 143.783 107.525 144.617 107.706C145.451 107.887 146.225 108.291 146.86 108.877C147.495 109.463 147.971 110.211 148.238 111.045C148.634 112.282 148.549 113.629 148 114.803C147.452 115.976 146.482 116.884 145.297 117.334L138.345 119.975L128.344 128.565Z" fill="#FFB6B6"/>
<path d="M48.7253 88.4604V115.343H66.9887V88.4604C66.989 88.267 66.9292 88.0786 66.818 87.923C66.7069 87.7673 66.5502 87.6524 66.3711 87.5954C66.2866 87.5666 66.1982 87.5524 66.1092 87.5534H49.6074C49.4917 87.5532 49.3771 87.5765 49.2702 87.6219C49.1632 87.6674 49.066 87.7342 48.9841 87.8184C48.9022 87.9026 48.8371 88.0027 48.7928 88.1128C48.7484 88.223 48.7255 88.3411 48.7253 88.4604ZM55.8528 97.6974C55.8575 97.1675 56.065 96.6609 56.4301 96.2879C56.7953 95.9148 57.2884 95.7056 57.8024 95.7056C58.3163 95.7056 58.8095 95.9148 59.1746 96.2879C59.5397 96.6609 59.7472 97.1675 59.752 97.6974V100.817C59.7494 101.348 59.5428 101.857 59.1775 102.232C58.8121 102.606 58.3177 102.817 57.8024 102.817C57.287 102.817 56.7926 102.606 56.4273 102.232C56.062 101.857 55.8554 101.348 55.8528 100.817V97.6974Z" fill="#2F2E41"/>
<path d="M48.6694 114.484V117.076C48.6698 117.21 48.7216 117.339 48.8134 117.434C48.9053 117.529 49.0298 117.583 49.16 117.584H66.5541C66.6844 117.584 66.8092 117.53 66.9012 117.435C66.9931 117.339 67.0447 117.21 67.0447 117.076V114.484H48.6694Z" fill="#3F3D56"/>
<path d="M19.9944 47.9576V97.0421C19.9949 97.6677 20.236 98.2674 20.665 98.7097C21.0939 99.152 21.6755 99.4007 22.2821 99.4012H92.8192C93.4258 99.4007 94.0074 99.152 94.4363 98.7097C94.8652 98.2674 95.1064 97.6677 95.1069 97.0421V47.9576C95.1054 47.3327 94.8639 46.7338 94.4351 46.2921C94.0063 45.8504 93.4252 45.602 92.8192 45.6012H22.2821C21.676 45.602 21.095 45.8504 20.6662 46.2921C20.2374 46.7338 19.9958 47.3327 19.9944 47.9576Z" fill="#3F3D56"/>
<path d="M21.6492 48.5684V96.4366C21.6497 96.7709 21.7787 97.0912 22.0079 97.3275C22.2371 97.5638 22.5477 97.6969 22.8718 97.6974H92.232C92.5561 97.6969 92.8668 97.5638 93.0959 97.3275C93.3251 97.0912 93.4541 96.7709 93.4547 96.4366V48.5684C93.4546 48.2337 93.3259 47.9128 93.0967 47.676C92.8675 47.4391 92.5565 47.3057 92.232 47.3049H22.8718C22.5473 47.3057 22.2364 47.4391 22.0072 47.676C21.7779 47.9128 21.6492 48.2337 21.6492 48.5684Z" fill="white"/>
<path d="M34.5213 117.409C34.5919 117.5 34.6816 117.574 34.7838 117.624C34.8859 117.675 34.9978 117.7 35.111 117.7H76.3759C76.4887 117.7 76.6001 117.674 76.702 117.623C76.8038 117.573 76.8935 117.5 76.9646 117.41C77.0357 117.32 77.0864 117.214 77.1129 117.101C77.1395 116.988 77.1412 116.87 77.1181 116.756L76.4775 113.619C76.451 113.491 76.3938 113.372 76.3112 113.272C76.2287 113.173 76.1233 113.096 76.0048 113.05C75.9189 113.015 75.8275 112.997 75.7353 112.997H35.749C35.6568 112.997 35.5654 113.015 35.4796 113.05C35.361 113.096 35.2557 113.173 35.1731 113.272C35.0905 113.372 35.0334 113.491 35.0068 113.619L34.3663 116.756C34.3435 116.87 34.3456 116.988 34.3724 117.101C34.3992 117.213 34.4501 117.319 34.5213 117.409Z" fill="#2F2E41"/>
<path d="M89.9811 53.899H25.081C25.0136 53.8975 24.9494 53.8688 24.9022 53.819C24.855 53.7693 24.8286 53.7025 24.8286 53.6329C24.8286 53.5633 24.855 53.4965 24.9022 53.4467C24.9494 53.397 25.0136 53.3683 25.081 53.3667H89.9811C90.0486 53.3683 90.1128 53.397 90.1599 53.4467C90.2071 53.4965 90.2335 53.5633 90.2335 53.6329C90.2335 53.7025 90.2071 53.7693 90.1599 53.819C90.1128 53.8688 90.0486 53.8975 89.9811 53.899Z" fill="#3F3D56"/>
<path d="M29.4989 52.0079C30.3342 52.0079 31.0114 51.294 31.0114 50.4134C31.0114 49.5328 30.3342 48.8189 29.4989 48.8189C28.6635 48.8189 27.9863 49.5328 27.9863 50.4134C27.9863 51.294 28.6635 52.0079 29.4989 52.0079Z" fill="#3F3D56"/>
<path d="M34.724 52.0079C35.5593 52.0079 36.2365 51.294 36.2365 50.4134C36.2365 49.5328 35.5593 48.8189 34.724 48.8189C33.8886 48.8189 33.2114 49.5328 33.2114 50.4134C33.2114 51.294 33.8886 52.0079 34.724 52.0079Z" fill="#3F3D56"/>
<path d="M39.949 52.0079C40.7844 52.0079 41.4616 51.294 41.4616 50.4134C41.4616 49.5328 40.7844 48.8189 39.949 48.8189C39.1137 48.8189 38.4365 49.5328 38.4365 50.4134C38.4365 51.294 39.1137 52.0079 39.949 52.0079Z" fill="#3F3D56"/>
<path d="M86.8347 49.2132H83.1235C83.0502 49.215 82.9804 49.2462 82.9291 49.3004C82.8778 49.3545 82.8491 49.4272 82.8491 49.5028C82.8491 49.5785 82.8778 49.6512 82.9291 49.7053C82.9804 49.7594 83.0502 49.7907 83.1235 49.7925H86.8347C86.9085 49.7914 86.9789 49.7604 87.0307 49.7062C87.0826 49.652 87.1116 49.579 87.1116 49.5028C87.1116 49.4267 87.0826 49.3537 87.0307 49.2995C86.9789 49.2453 86.9085 49.2143 86.8347 49.2132Z" fill="#3F3D56"/>
<path d="M86.8348 50.301H83.1236C83.0502 50.3027 82.9803 50.3339 82.929 50.3881C82.8776 50.4422 82.8489 50.5149 82.8489 50.5906C82.8489 50.6664 82.8776 50.7391 82.929 50.7932C82.9803 50.8474 83.0502 50.8786 83.1236 50.8803H86.8348C86.9087 50.8794 86.9793 50.8484 87.0312 50.7942C87.0831 50.74 87.1123 50.6669 87.1123 50.5906C87.1123 50.5144 87.0831 50.4413 87.0312 50.3871C86.9793 50.3328 86.9087 50.3019 86.8348 50.301Z" fill="#3F3D56"/>
<path d="M86.8347 51.3888H83.1235C83.0502 51.3905 82.9804 51.4218 82.9291 51.476C82.8778 51.5301 82.8491 51.6027 82.8491 51.6784C82.8491 51.7541 82.8778 51.8268 82.9291 51.8809C82.9804 51.935 83.0502 51.9663 83.1235 51.9681H86.8347C86.9085 51.967 86.9789 51.936 87.0307 51.8818C87.0826 51.8276 87.1116 51.7545 87.1116 51.6784C87.1116 51.6023 87.0826 51.5292 87.0307 51.475C86.9789 51.4208 86.9085 51.3898 86.8347 51.3888Z" fill="#3F3D56"/>
<path d="M176.304 115.621C176.416 115.958 176.628 116.249 176.91 116.452C177.193 116.656 177.53 116.763 177.875 116.757L184.609 116.578C184.956 116.571 185.292 116.448 185.566 116.228C185.84 116.008 186.038 115.703 186.129 115.357L187.082 104.849C187.42 105.007 187.788 105.085 188.16 105.078C188.482 105.069 188.8 104.996 189.094 104.861C189.389 104.726 189.655 104.532 189.877 104.291C190.1 104.05 190.274 103.767 190.39 103.456C190.505 103.146 190.561 102.815 190.553 102.483C190.545 102.15 190.473 101.823 190.342 101.519C190.212 101.215 190.024 100.94 189.79 100.711C189.557 100.482 189.281 100.302 188.98 100.183C188.679 100.063 188.359 100.006 188.036 100.014C187.888 100.014 187.74 100.03 187.595 100.062C187.437 99.8858 187.245 99.7459 187.032 99.6509C186.819 99.556 186.588 99.5082 186.356 99.5106L175.998 99.7864C175.912 99.7897 175.826 99.8006 175.742 99.8191C175.515 99.8628 175.3 99.9561 175.11 100.093C174.921 100.23 174.762 100.407 174.645 100.612C174.528 100.817 174.454 101.046 174.43 101.283C174.406 101.52 174.431 101.759 174.504 101.985L176.304 115.621ZM187.278 104.136L187.956 101.632C188.033 101.343 188.035 101.038 187.961 100.748C187.994 100.747 188.023 100.731 188.056 100.731C188.521 100.721 188.97 100.902 189.306 101.234C189.642 101.565 189.837 102.02 189.848 102.5C189.859 102.979 189.685 103.444 189.365 103.791C189.044 104.138 188.603 104.34 188.138 104.353C187.837 104.363 187.54 104.288 187.278 104.136Z" fill="#2F2E41"/>
<path d="M175.742 99.8191C175.963 101.12 178.444 102.035 181.427 101.876C184.171 101.746 186.414 100.752 186.825 99.575C186.673 99.5286 186.515 99.5069 186.356 99.5106L175.998 99.7864C175.912 99.7897 175.826 99.8006 175.742 99.8191Z" fill="#3F3D56"/>
<path d="M181.974 109.847C181.988 109.844 182.001 109.838 182.012 109.83L183.475 108.843C183.493 108.831 183.507 108.815 183.517 108.796C183.527 108.776 183.532 108.755 183.532 108.733C183.532 108.711 183.527 108.69 183.517 108.671C183.507 108.652 183.493 108.636 183.475 108.624L181.955 107.597C181.941 107.587 181.925 107.581 181.909 107.578C181.893 107.574 181.876 107.574 181.859 107.578C181.843 107.581 181.827 107.588 181.813 107.598C181.8 107.608 181.788 107.62 181.779 107.634C181.769 107.649 181.763 107.665 181.76 107.682C181.757 107.699 181.757 107.716 181.761 107.733C181.764 107.75 181.771 107.766 181.78 107.78C181.79 107.795 181.802 107.807 181.816 107.816L183.173 108.733L181.873 109.611C181.848 109.628 181.83 109.653 181.821 109.683C181.813 109.713 181.814 109.745 181.827 109.773C181.839 109.801 181.86 109.824 181.887 109.838C181.914 109.852 181.945 109.855 181.974 109.847Z" fill="#6C63FF"/>
<path d="M179.664 109.957C179.689 109.951 179.711 109.937 179.728 109.917C179.745 109.898 179.756 109.874 179.759 109.848C179.763 109.822 179.758 109.796 179.747 109.772C179.736 109.749 179.718 109.729 179.696 109.716L178.348 108.919L179.651 107.922C179.665 107.911 179.676 107.898 179.685 107.884C179.693 107.869 179.699 107.852 179.701 107.835C179.704 107.818 179.703 107.801 179.699 107.784C179.695 107.768 179.687 107.752 179.677 107.738C179.668 107.724 179.655 107.713 179.641 107.704C179.626 107.695 179.611 107.689 179.594 107.687C179.578 107.684 179.561 107.685 179.545 107.689C179.528 107.694 179.513 107.701 179.5 107.711L178.041 108.829C178.024 108.842 178.011 108.859 178.002 108.878C177.993 108.898 177.989 108.92 177.99 108.941C177.991 108.963 177.998 108.984 178.009 109.003C178.02 109.021 178.035 109.037 178.054 109.047L179.57 109.944C179.599 109.961 179.632 109.965 179.664 109.957Z" fill="#6C63FF"/>
<path d="M181.829 110.712C181.841 110.709 181.853 110.704 181.863 110.697C181.878 110.688 181.89 110.676 181.9 110.663C181.91 110.649 181.917 110.633 181.921 110.616C181.925 110.599 181.926 110.582 181.923 110.565C181.921 110.548 181.915 110.532 181.906 110.517L179.833 107.002C179.815 106.973 179.787 106.952 179.754 106.943C179.722 106.935 179.687 106.941 179.658 106.959C179.63 106.977 179.609 107.006 179.601 107.04C179.593 107.074 179.598 107.109 179.616 107.139L181.689 110.653C181.703 110.677 181.724 110.696 181.749 110.707C181.775 110.717 181.802 110.719 181.829 110.712Z" fill="#6C63FF"/>
<path d="M65.2854 68.3679H54.0526C53.5944 68.3679 53.2229 68.751 53.2229 69.2235V70.3552C53.2229 70.8277 53.5944 71.2108 54.0526 71.2108H65.2854C65.7436 71.2108 66.1151 70.8277 66.1151 70.3552V69.2235C66.1151 68.751 65.7436 68.3679 65.2854 68.3679Z" fill="#6C63FF"/>
<path d="M71.833 74.0536H47.5053C47.047 74.0536 46.6755 74.4367 46.6755 74.9093V76.0409C46.6755 76.5134 47.047 76.8965 47.5053 76.8965H71.833C72.2913 76.8965 72.6627 76.5134 72.6627 76.0409V74.9093C72.6627 74.4367 72.2913 74.0536 71.833 74.0536Z" fill="#E6E6E6"/>
<path d="M71.833 79.7394H47.5053C47.047 79.7394 46.6755 80.1225 46.6755 80.595V81.7267C46.6755 82.1992 47.047 82.5823 47.5053 82.5823H71.833C72.2913 82.5823 72.6627 82.1992 72.6627 81.7267V80.595C72.6627 80.1225 72.2913 79.7394 71.833 79.7394Z" fill="#E6E6E6"/>
<path d="M73.8953 98.7787L73.9504 98.9581L73.9533 98.9641L75.6119 104.164L77.5199 110.156L81.1097 121.417L81.1445 123.167V123.173L81.4112 137.244L80.6718 139.152L81.504 142.28C81.504 142.28 81.1213 137.552 79.0683 140.267C77.9055 141.81 76.5456 143.389 75.4292 144.869C77.0559 145.548 78.7088 146.162 80.3877 146.711C80.7501 146.83 81.1155 146.944 81.4809 147.058C81.5591 147.082 81.6374 147.106 81.7157 147.129C87.2811 148.827 93.0347 149.78 98.8355 149.967C99.1371 149.976 99.4328 149.982 99.7199 149.988C99.8214 149.991 99.92 149.994 100.019 149.994C100.343 149.997 100.665 150 100.99 150C101.645 150 102.298 149.99 102.947 149.97C107.755 149.83 112.534 149.164 117.205 147.982C117.173 145.993 117.086 143.67 116.961 141.188C116.903 139.971 115.602 138.652 115.523 137.378C115.468 136.422 116.637 135.522 116.576 134.55C116.181 128.566 115.688 130.863 115.323 126.626C115.285 126.211 115.251 125.813 115.219 125.433C114.984 122.712 114.821 121.011 114.821 121.011L116.382 110.871L118.832 94.9513L118.643 94.6313L118.432 94.5237L105.508 87.9274L104.806 86.0735C104.601 85.5394 104.247 85.0805 103.787 84.756C103.328 84.4315 102.785 84.2561 102.228 84.2524L93.7146 84.2166C93.2728 84.2145 92.8369 84.3211 92.443 84.5276C92.0492 84.734 91.7087 85.0344 91.45 85.4037L89.1447 88.6958L73.8953 98.7787Z" fill="#3F3D56"/>
<path d="M83.0728 118.912L81.1445 123.167L79.828 126.073L77.5634 138.3L76.4296 139.541L75.4582 135.148L65.2912 137.476C64.9578 135.565 65.202 137.54 64.9961 135.444C65.0541 135.384 65.115 135.325 65.1759 135.265C65.3383 135.109 65.4745 134.963 65.4716 134.822C65.3557 127.592 65.7036 115.287 68.6091 107.833C69.0642 106.616 69.6642 105.462 70.3953 104.397C70.4533 104.317 70.5084 104.236 70.5635 104.155C71.9032 102.22 72.7499 100.316 73.9503 98.9611V98.9581C73.9578 98.9519 73.9646 98.9449 73.9706 98.9372C73.975 98.935 73.9789 98.9319 73.9822 98.9282L82.2289 94.419L82.5827 104.669L82.835 112.037L83.0728 118.912Z" fill="#3F3D56"/>
<path d="M112.809 120.12L115.218 125.435L116.058 127.285L118.322 139.511L119.452 140.749L120.426 136.357L120.883 136.26L129.134 134.498L131.539 142.374C132.081 141.443 132.294 140.347 132.143 139.272C131.992 138.197 131.486 137.209 130.71 136.475C130.546 136.322 130.409 136.172 130.413 136.031C130.549 127.527 130.045 111.999 125.49 105.608C124.043 103.58 123.175 101.56 121.912 100.148C121.908 100.144 121.908 100.14 121.904 100.14L118.831 94.9509L118.643 94.6324L118.432 94.5235L112.809 120.12Z" fill="#3F3D56"/>
<path d="M98.2173 81.7181C104.473 81.7181 109.543 76.489 109.543 70.0385C109.543 63.588 104.473 58.3589 98.2173 58.3589C91.962 58.3589 86.8911 63.588 86.8911 70.0385C86.8911 76.489 91.962 81.7181 98.2173 81.7181Z" fill="#FFB6B6"/>
<path d="M113.526 61.8804C113.438 61.7836 113.332 61.7062 113.215 61.6526C113.097 61.599 112.971 61.5704 112.842 61.5684L113.012 61.0809C113.068 60.9273 113.083 60.7613 113.056 60.5998C113.029 60.4383 112.961 60.2871 112.858 60.1617C112.756 60.0364 112.623 59.9414 112.473 59.8864C112.323 59.8314 112.162 59.8185 112.006 59.8489L111.386 59.9721L111.444 59.5449C111.467 59.3857 111.448 59.2233 111.391 59.0736C111.335 58.9239 111.241 58.7921 111.12 58.691C110.998 58.59 110.854 58.5233 110.7 58.4974C110.546 58.4716 110.388 58.4875 110.242 58.5436C110.109 58.5975 109.966 58.6201 109.823 58.6097C109.681 58.5993 109.542 58.5561 109.418 58.4833C109.294 58.4127 109.185 58.315 109.101 58.1968C109.017 58.0786 108.958 57.9429 108.93 57.7992L108.714 56.7245L108.691 56.6668C107.639 54.8582 105.616 53.5423 103.14 53.06C100.936 52.6275 98.6763 52.8477 96.4979 53.0548C95.6336 53.1387 94.6576 53.233 93.8442 53.7468C93.1528 54.1871 92.5681 55.0679 92.6876 55.9564C90.5397 55.2776 88.2368 56.6327 87.0955 58.3417C85.7432 60.3758 85.5221 62.9236 85.4865 64.9157C85.3899 69.6286 86.3329 73.4844 88.2825 76.3782C88.4249 76.5879 88.4605 77.0256 88.7426 77.1724L88.6842 77.0754C88.9993 77.2379 89.3196 77.5001 89.2001 77.7805C88.857 78.5879 91.1371 80.3729 92.7435 80.9627C95.6743 82.04 99.571 81.9482 102.311 81.5603L102.408 80.8919C103.397 80.753 104.093 80.4882 104.289 80.0741C104.634 79.77 104.929 79.4974 105.186 79.2458L105.189 79.2432C105.194 79.2379 105.204 79.2301 105.209 79.2248C106.447 78.0007 106.734 77.3035 106.864 76.2419C106.988 75.2013 106.767 74.1449 106.541 73.1934C111.304 73.9536 104.665 67.9615 109.103 66.803C109.154 66.7868 109.206 66.7737 109.258 66.7637C109.388 66.7322 109.517 66.7007 109.642 66.664C110.242 66.496 110.817 66.2428 111.35 65.9118C112.591 65.1333 113 64.1005 113.64 62.9367C113.733 62.771 113.771 62.5792 113.751 62.3892C113.73 62.1992 113.652 62.021 113.526 61.8804Z" fill="#2F2E41"/>
<path d="M138.276 120.952C138.274 121.41 138.269 122.053 138.248 122.847C138.246 122.957 138.243 123.07 138.241 123.185C138.208 124.645 138.175 125.869 138.121 127.229C138.119 127.324 138.116 127.416 138.111 127.51C138.04 129.408 137.928 131.617 137.735 135.117C137.376 141.58 136.751 136.005 136.123 138.273C136.093 138.385 136.06 138.519 136.029 138.676C135.934 139.247 135.774 139.804 135.551 140.335C135.218 140.54 134.875 140.736 134.537 140.933C133.574 141.486 132.595 142.018 131.609 142.524C131.055 142.807 130.498 143.085 129.939 143.352C129.85 143.394 129.764 143.436 129.677 143.476C126.813 144.841 123.862 146.003 120.844 146.951C120.254 147.135 119.667 147.313 119.072 147.478C118.452 147.656 117.832 147.824 117.204 147.981C112.533 149.164 107.754 149.831 102.947 149.971C102.299 149.992 101.645 150 100.989 150C100.664 150 100.344 149.997 100.018 149.995C99.9194 149.995 99.8202 149.992 99.7211 149.989C99.4339 149.981 99.1365 149.976 98.8365 149.968C93.0357 149.782 87.2821 148.828 81.717 147.13L81.4806 147.059C81.1146 146.943 80.7511 146.831 80.3876 146.71C78.7099 146.162 77.0569 145.549 75.4284 144.87C74.1854 144.354 72.9568 143.8 71.7426 143.208C71.7316 143.205 71.7212 143.2 71.7121 143.192C71.458 143.072 71.2012 142.946 70.947 142.818C70.914 142.799 70.8784 142.781 70.8428 142.763C69.8947 142.286 68.9567 141.786 68.029 141.263C67.2486 139.415 66.1505 139.061 65.4693 137.436C65.271 136.954 65.1277 136.449 65.0423 135.932C65.0423 135.927 65.0397 135.921 65.0397 135.913C65.1109 136.889 64.7372 134.183 65.0372 135.903C65.0346 135.871 65.0321 135.837 65.0296 135.798C65.0219 135.704 65.0118 135.588 64.9965 135.444C64.1247 126.666 64.1806 116.627 63.8018 108.354C63.7764 107.819 63.7501 107.307 63.723 106.818C63.7154 106.656 63.7052 106.496 63.6951 106.338C63.7129 106.291 63.7332 106.241 63.7561 106.194C63.7609 106.181 63.7669 106.168 63.7739 106.155C63.7814 106.139 63.7899 106.123 63.7993 106.108C63.8044 106.1 63.812 106.089 63.8171 106.082C63.8208 106.073 63.825 106.064 63.8298 106.055C63.8527 106.019 63.8781 105.979 63.906 105.943C63.9188 105.927 63.9289 105.914 63.9416 105.901C63.9504 105.887 63.9606 105.875 63.9721 105.864C63.9799 105.851 63.9893 105.84 64.0001 105.83C64.0103 105.819 64.0204 105.806 64.0331 105.793C64.0386 105.785 64.0455 105.778 64.0535 105.772C64.0736 105.748 64.0957 105.727 64.1196 105.707C64.2102 105.621 64.3071 105.542 64.4093 105.471C64.4449 105.447 64.483 105.424 64.5186 105.397C64.7748 105.239 65.0445 105.106 65.3244 104.999C65.421 104.962 65.5176 104.928 65.6218 104.892C65.6599 104.881 65.6955 104.868 65.7337 104.855C65.7896 104.837 65.8455 104.818 65.904 104.805C66.1937 104.716 66.5064 104.64 66.8445 104.569C66.8851 104.561 66.9283 104.553 66.9715 104.543C67.0325 104.53 67.0961 104.519 67.1596 104.509C67.2461 104.493 67.335 104.477 67.424 104.462C68.1789 104.339 69.0356 104.247 69.9811 104.186C70.0701 104.181 70.1591 104.176 70.248 104.171C70.3522 104.166 70.4565 104.16 70.5632 104.155C70.6522 104.15 70.7437 104.147 70.8352 104.145C70.9242 104.139 71.0157 104.137 71.1097 104.134C71.3665 104.126 71.6308 104.118 71.9002 104.113C72.6679 104.097 73.4762 104.103 74.3252 104.121C74.7192 104.131 75.1208 104.142 75.5326 104.16C75.5606 104.16 75.586 104.163 75.6114 104.163C75.9698 104.176 76.3307 104.192 76.7019 104.213C76.9611 104.226 77.2229 104.239 77.4847 104.255C77.7313 104.27 77.9804 104.286 78.2321 104.304C78.4278 104.315 78.6235 104.331 78.8218 104.344C78.9895 104.357 79.1573 104.37 79.3251 104.38L79.5538 104.396C79.6784 104.407 79.8029 104.415 79.93 104.428C80.2096 104.451 80.4892 104.475 80.7739 104.498C81.0561 104.525 81.3433 104.551 81.6305 104.577C81.9178 104.603 82.2075 104.632 82.4973 104.661C82.5278 104.664 82.5558 104.666 82.5838 104.669C82.8481 104.698 83.1125 104.724 83.3794 104.753C83.4404 104.758 83.5039 104.763 83.5649 104.771C83.8194 104.797 84.0788 104.828 84.3356 104.856C84.4144 104.865 84.4928 104.874 84.5719 104.883C84.773 104.905 84.9713 104.925 85.1739 104.949C85.4408 104.981 85.7128 105.01 85.9771 105.046C86.183 105.07 86.3889 105.093 86.5948 105.12C86.9176 105.159 87.2455 105.201 87.5734 105.245C87.698 105.261 87.8225 105.277 87.9471 105.295C88.8825 105.416 89.8281 105.55 90.7889 105.688C92.2454 105.901 93.7248 106.131 95.2143 106.38C96.7064 106.629 98.207 106.892 99.716 107.169C100.097 107.24 100.479 107.311 100.862 107.384C101.035 107.418 101.208 107.452 101.381 107.487C101.676 107.542 101.971 107.599 102.265 107.657C102.56 107.715 102.855 107.772 103.15 107.833C103.501 107.903 103.854 107.974 104.205 108.045C106.515 108.517 108.813 109.02 111.055 109.547C111.424 109.633 111.792 109.722 112.158 109.809C112.891 109.985 113.616 110.163 114.334 110.344C114.533 110.391 114.728 110.441 114.924 110.49C115.412 110.616 115.9 110.742 116.381 110.871L116.464 110.894C116.818 110.983 117.163 111.075 117.509 111.169C118.325 111.39 119.127 111.612 119.916 111.838C120.44 111.987 120.958 112.138 121.469 112.291C122.234 112.519 122.984 112.75 123.714 112.983C123.894 113.041 124.075 113.099 124.253 113.154C124.787 113.324 125.313 113.497 125.824 113.67C126.23 113.806 126.627 113.945 127.018 114.084C127.41 114.223 127.794 114.362 128.17 114.501C128.411 114.59 128.65 114.684 128.889 114.773C129.232 114.905 129.57 115.036 129.901 115.167C130.002 115.206 130.102 115.248 130.201 115.287C130.264 115.316 130.325 115.34 130.386 115.366C130.506 115.416 130.628 115.463 130.745 115.513C130.864 115.56 130.981 115.61 131.098 115.662C131.212 115.709 131.329 115.759 131.441 115.809C131.556 115.856 131.667 115.906 131.779 115.958C131.873 115.998 131.965 116.04 132.054 116.081C132.234 116.163 132.415 116.244 132.59 116.328C132.677 116.37 132.763 116.409 132.849 116.451L133.048 116.545C133.076 116.561 133.104 116.574 133.131 116.587C133.195 116.619 133.261 116.653 133.325 116.684C133.472 116.755 133.617 116.831 133.759 116.902C133.95 117.002 134.136 117.101 134.313 117.198C134.494 117.298 134.669 117.397 134.837 117.494C134.865 117.51 134.89 117.526 134.918 117.541C134.957 117.562 134.995 117.586 135.033 117.607C135.162 117.683 135.287 117.762 135.412 117.838C135.656 117.992 135.887 118.144 136.103 118.296C136.151 118.33 136.197 118.364 136.245 118.396C136.405 118.514 136.558 118.629 136.7 118.747C136.7 118.75 136.7 118.75 136.703 118.75C136.751 118.787 136.797 118.826 136.843 118.863C136.881 118.899 136.921 118.931 136.96 118.967C137.092 119.085 137.214 119.198 137.326 119.313C137.363 119.349 137.399 119.387 137.432 119.426C137.447 119.439 137.461 119.453 137.473 119.468C137.524 119.52 137.57 119.573 137.613 119.625C137.62 119.633 137.625 119.64 137.631 119.649C137.692 119.722 137.748 119.796 137.801 119.869C137.826 119.906 137.854 119.942 137.877 119.979C137.908 120.024 137.938 120.071 137.964 120.115C137.986 120.152 138.007 120.191 138.027 120.228C138.081 120.323 138.127 120.422 138.164 120.524C138.193 120.594 138.216 120.666 138.233 120.739C138.252 120.809 138.267 120.88 138.276 120.952Z" fill="#2F2E41"/>
<path opacity="0.2" d="M138.276 120.952C138.274 121.41 138.269 122.053 138.248 122.847C138.246 122.957 138.241 123.07 138.238 123.185C138.213 124.299 138.174 125.675 138.121 127.229C138.119 127.324 138.116 127.416 138.111 127.51C138.04 129.408 137.928 131.617 137.735 135.117C137.376 141.58 136.751 136.005 136.123 138.273C134.379 137.166 132.468 136.008 130.424 134.818C130.056 134.603 129.684 134.387 129.308 134.17C125.221 131.819 120.656 129.355 115.89 126.915C115.702 126.818 115.511 126.721 115.323 126.627C104.406 121.062 92.4893 115.649 82.8353 112.037C80.9721 111.34 79.1928 110.711 77.5202 110.158C73.9972 108.996 70.952 108.184 68.6084 107.833C66.1682 107.466 64.4829 107.597 63.8017 108.354C63.7763 107.819 63.75 107.307 63.7229 106.818C63.7127 106.656 63.7025 106.496 63.6924 106.338C63.7081 106.295 63.7285 106.254 63.7482 106.213C63.751 106.207 63.753 106.2 63.7559 106.194C63.7608 106.181 63.7668 106.168 63.7737 106.155C63.7812 106.139 63.7897 106.123 63.7991 106.108C63.8074 106.089 63.8176 106.072 63.8296 106.055C63.8525 106.019 63.8779 105.979 63.9059 105.943C63.9265 105.915 63.9485 105.889 63.972 105.864C63.9798 105.851 63.9892 105.84 64 105.83C64.0101 105.819 64.0203 105.806 64.033 105.793C64.0384 105.785 64.0453 105.778 64.0533 105.772C64.0734 105.748 64.0956 105.727 64.1194 105.707C64.2101 105.621 64.307 105.542 64.4092 105.471C64.4448 105.447 64.4829 105.424 64.5185 105.397C64.7747 105.239 65.0444 105.106 65.3243 104.999C65.4209 104.962 65.5174 104.928 65.6217 104.892C65.6598 104.881 65.6954 104.868 65.7335 104.855C65.7894 104.837 65.8454 104.818 65.9038 104.805C66.1936 104.716 66.5062 104.64 66.8443 104.569C66.946 104.548 67.0527 104.527 67.1595 104.509C67.2459 104.493 67.3349 104.477 67.4239 104.462C68.1788 104.338 69.0354 104.247 69.981 104.186C70.07 104.181 70.1589 104.176 70.2479 104.171C70.3521 104.165 70.4563 104.16 70.5631 104.155C70.652 104.15 70.7436 104.147 70.8351 104.145C70.924 104.139 71.0155 104.137 71.1096 104.134C71.3663 104.126 71.6307 104.118 71.9001 104.113C72.6678 104.1 73.4761 104.105 74.3251 104.124C74.7191 104.131 75.1207 104.145 75.5325 104.163C75.5579 104.163 75.5858 104.165 75.6113 104.165C75.9697 104.176 76.3331 104.194 76.7017 104.213C76.961 104.226 77.2228 104.239 77.4846 104.255C77.7312 104.27 77.9803 104.286 78.2319 104.304C78.4276 104.315 78.6234 104.331 78.8216 104.344C78.9894 104.357 79.1572 104.37 79.3249 104.38C79.5257 104.396 79.7265 104.412 79.9299 104.428C80.2095 104.451 80.4891 104.475 80.7738 104.498C81.0559 104.525 81.3432 104.551 81.6304 104.577C81.9176 104.603 82.2074 104.632 82.4972 104.661C82.5277 104.664 82.5557 104.666 82.5836 104.669C82.848 104.698 83.1123 104.724 83.3792 104.753C84.8586 104.907 86.3812 105.088 87.947 105.295C88.8824 105.418 89.8296 105.55 90.7888 105.691C92.2453 105.903 93.7247 106.134 95.2142 106.38C96.7063 106.629 98.2068 106.892 99.7159 107.169C100.097 107.24 100.478 107.311 100.862 107.384C101.33 107.473 101.798 107.564 102.265 107.657C102.56 107.715 102.855 107.772 103.15 107.833C103.501 107.903 103.854 107.974 104.205 108.045C106.515 108.517 108.813 109.02 111.055 109.547C111.424 109.633 111.792 109.722 112.158 109.809C112.89 109.985 113.616 110.163 114.334 110.344C114.532 110.393 114.728 110.443 114.924 110.493C115.414 110.619 115.9 110.745 116.38 110.871V110.873C116.408 110.878 116.436 110.886 116.464 110.894C116.815 110.986 117.163 111.078 117.509 111.172C118.325 111.392 119.127 111.614 119.916 111.838C120.44 111.99 120.958 112.139 121.469 112.291C122.234 112.522 122.984 112.753 123.714 112.983C123.894 113.041 124.075 113.099 124.253 113.154C124.786 113.327 125.31 113.499 125.823 113.67C126.23 113.806 126.627 113.945 127.018 114.084C127.41 114.223 127.793 114.362 128.17 114.501C128.414 114.59 128.653 114.682 128.889 114.771C129.235 114.902 129.57 115.033 129.901 115.167C130.002 115.206 130.101 115.248 130.201 115.287C130.386 115.361 130.567 115.437 130.745 115.513C130.864 115.56 130.981 115.61 131.098 115.662C131.212 115.709 131.329 115.759 131.441 115.809C131.555 115.856 131.667 115.906 131.779 115.958C131.873 115.998 131.965 116.04 132.054 116.081C132.234 116.163 132.415 116.244 132.59 116.328C132.676 116.37 132.763 116.409 132.849 116.451L133.048 116.545C133.075 116.561 133.103 116.574 133.131 116.587C133.347 116.692 133.556 116.797 133.759 116.902C133.95 117.001 134.135 117.101 134.313 117.198C134.524 117.313 134.725 117.426 134.918 117.541C134.956 117.562 134.995 117.586 135.033 117.607C135.162 117.683 135.287 117.762 135.411 117.838C135.655 117.992 135.887 118.144 136.103 118.296C136.316 118.448 136.515 118.598 136.7 118.747C136.7 118.75 136.7 118.75 136.703 118.75C136.792 118.823 136.878 118.897 136.959 118.967C137.092 119.085 137.214 119.198 137.325 119.313C137.363 119.349 137.399 119.387 137.432 119.426C137.447 119.439 137.461 119.453 137.473 119.468C137.526 119.528 137.58 119.589 137.631 119.649C137.692 119.722 137.747 119.796 137.801 119.869C137.826 119.906 137.854 119.942 137.877 119.979C137.908 120.024 137.938 120.071 137.964 120.115C137.986 120.152 138.007 120.191 138.027 120.228C138.081 120.323 138.127 120.422 138.164 120.524C138.192 120.594 138.215 120.666 138.233 120.739C138.252 120.809 138.267 120.88 138.276 120.952Z" fill="black"/>
</g>
<defs>
<clipPath id="clip0_26_255">
<rect width="200" height="150" fill="white"/>
</clipPath>
</defs>
</svg>
