<svg width="350" height="300" viewBox="0 0 350 300" fill="none" xmlns="http://www.w3.org/2000/svg">
<g clip-path="url(#clip0_80_183)">
<path d="M350 6.2431H140.103V114.3H350V6.2431Z" fill="#E6E6E6"/>
<path d="M343.998 15.5092H146.105V105.665H343.998V15.5092Z" fill="white"/>
<path d="M349.911 0H140.014V9.67423H349.911V0Z" fill="#6C63FF"/>
<path d="M146.64 7.48174C147.553 7.48174 148.293 6.67895 148.293 5.68865C148.293 4.69836 147.553 3.89557 146.64 3.89557C145.727 3.89557 144.987 4.69836 144.987 5.68865C144.987 6.67895 145.727 7.48174 146.64 7.48174Z" fill="white"/>
<path d="M152.913 7.48174C153.826 7.48174 154.566 6.67895 154.566 5.68865C154.566 4.69836 153.826 3.89557 152.913 3.89557C152.001 3.89557 151.261 4.69836 151.261 5.68865C151.261 6.67895 152.001 7.48174 152.913 7.48174Z" fill="white"/>
<path d="M159.187 7.48174C160.1 7.48174 160.84 6.67895 160.84 5.68865C160.84 4.69836 160.1 3.89557 159.187 3.89557C158.274 3.89557 157.534 4.69836 157.534 5.68865C157.534 6.67895 158.274 7.48174 159.187 7.48174Z" fill="white"/>
<path d="M297.41 30.0977H264.508V91.0772H297.41V30.0977Z" fill="#F2F2F2"/>
<path d="M259.057 30.0966H192.693V46.8819H259.057V30.0966Z" fill="#6C63FF"/>
<path d="M259.057 51.5563H192.693V69.6164H259.057V51.5563Z" fill="#F2F2F2"/>
<path d="M259.057 74.2908H192.693V91.0761H259.057V74.2908Z" fill="#F2F2F2"/>
<path d="M100.142 180.304C100.148 179.068 99.9137 177.844 99.4537 176.713C98.9938 175.582 98.3188 174.569 97.473 173.741C96.6271 172.913 95.6295 172.288 94.5455 171.907C93.4615 171.526 92.3155 171.398 91.1827 171.531C90.8243 171.575 90.4691 171.646 90.1197 171.743L62.7468 146.288L64.3825 136.723L50.8908 131.979L46.823 147.308C46.3418 149.148 46.4202 151.107 47.0465 152.895C47.6729 154.682 48.8138 156.203 50.2999 157.232L83.9734 180.338C83.9736 180.625 83.9874 180.913 84.0148 181.198C84.1378 182.428 84.4988 183.615 85.0741 184.682C85.6494 185.749 86.426 186.672 87.3531 187.391C88.2803 188.11 89.337 188.608 90.4539 188.853C91.5709 189.098 92.723 189.084 93.8347 188.812C94.1578 188.735 94.4761 188.635 94.7877 188.514C96.3462 187.902 97.6947 186.788 98.6519 185.32C99.6091 183.853 100.129 182.102 100.142 180.304Z" fill="#9F616A"/>
<path d="M32.0893 209.826H67.382C67.382 210.927 103.756 211.82 103.756 211.82C104.326 212.287 104.847 212.822 105.307 213.415C106.688 215.203 107.443 217.463 107.439 219.796V221.391C107.438 224.034 106.469 226.57 104.746 228.439C103.023 230.308 100.687 231.359 98.2497 231.36H32.0893C29.6529 231.358 27.3169 230.307 25.5941 228.437C23.8713 226.568 22.9025 224.034 22.9004 221.391V219.796C22.9038 217.153 23.873 214.619 25.5955 212.75C27.318 210.882 29.6533 209.83 32.0893 209.826Z" fill="#3F3D56"/>
<path d="M70.4794 230.964H60.9229V297.957H70.4794V230.964Z" fill="#3F3D56"/>
<path d="M97.6789 298.79C97.6789 300.045 83.1976 299.276 65.3339 299.276C47.4701 299.276 32.9888 300.045 32.9888 298.79C32.9888 297.536 47.4701 287.589 65.3339 287.589C83.1976 287.589 97.6789 297.536 97.6789 298.79Z" fill="#3F3D56"/>
<path d="M89.0521 289.741L98.0638 289.74L102.351 264.381L89.0503 264.382L89.0521 289.741Z" fill="#9F616A"/>
<path d="M86.7535 299.218L115.813 299.217V298.819C115.813 297.207 115.52 295.611 114.952 294.123C114.384 292.634 113.551 291.281 112.5 290.142C111.45 289.002 110.203 288.098 108.831 287.482C107.459 286.865 105.988 286.547 104.503 286.547H104.501L86.7529 286.548L86.7535 299.218Z" fill="#2F2E41"/>
<path d="M102.531 274.015L120.498 230.304C121.998 226.62 122.164 222.458 120.963 218.647C119.762 214.836 117.281 211.656 114.016 209.74L75.0446 187.068L57.2613 185.427L40.8574 183.809L40.7392 184.026C40.5879 184.304 37.0609 190.913 39.445 198.16C41.2534 203.657 45.9573 207.951 53.426 210.922C70.8588 217.857 90.9971 223.784 98.8461 226.01C99.193 226.106 99.5172 226.281 99.7974 226.523C100.078 226.765 100.307 227.068 100.472 227.414C100.636 227.755 100.734 228.129 100.759 228.513C100.784 228.897 100.735 229.283 100.616 229.646L83.924 270.332C83.7497 270.848 83.6869 271.4 83.7405 271.947C83.7942 272.493 83.9628 273.019 84.2334 273.484C84.5039 273.948 84.8692 274.339 85.3011 274.627C85.733 274.914 86.2199 275.09 86.7243 275.14L99.1967 276.126C99.3026 276.137 99.408 276.142 99.5129 276.142C100.152 276.142 100.777 275.941 101.312 275.563C101.848 275.186 102.272 274.648 102.531 274.015Z" fill="#CBCBCB"/>
<path d="M83.1708 289.741L92.1825 289.74L96.4706 264.381L83.1694 264.382L83.1708 289.741Z" fill="#9F616A"/>
<path d="M80.8726 299.218L109.932 299.217V298.819C109.932 297.207 109.64 295.611 109.071 294.123C108.503 292.634 107.67 291.281 106.619 290.142C105.569 289.002 104.322 288.098 102.95 287.482C101.578 286.865 100.107 286.547 98.6217 286.547H98.6206L80.8721 286.548L80.8726 299.218Z" fill="#2F2E41"/>
<path d="M95.9154 276.408L113.882 232.696C115.382 229.012 115.548 224.85 114.347 221.039C113.146 217.228 110.665 214.048 107.4 212.133L68.4286 189.46L50.6453 187.819L37.797 186.61L37.7987 186.419C37.6474 186.696 34.1205 193.306 36.5046 200.553C38.313 206.05 39.3413 210.344 46.81 213.315C64.2428 220.25 84.3811 226.177 92.2301 228.403C92.577 228.499 92.9012 228.674 93.1814 228.916C93.4615 229.157 93.6913 229.461 93.8556 229.806C94.0203 230.147 94.1182 230.522 94.1431 230.906C94.1679 231.29 94.1192 231.676 93.9999 232.038L77.308 272.724C77.1337 273.24 77.0709 273.793 77.1245 274.339C77.1782 274.886 77.3468 275.412 77.6174 275.876C77.8879 276.341 78.2532 276.732 78.6851 277.019C79.117 277.306 79.6039 277.482 80.1083 277.533L92.5807 278.518C92.6866 278.529 92.792 278.535 92.8969 278.535C93.5357 278.534 94.1607 278.333 94.6964 277.956C95.2321 277.578 95.6555 277.041 95.9154 276.408Z" fill="#CBCBCB"/>
<path d="M62.0556 187.408C62.917 186.747 75.2877 193.788 77.493 188.205C67.2014 160.291 74.2934 148.238 67.9893 132.231C66.879 129.47 65.2062 127.018 63.0969 125.059C60.9875 123.1 58.4964 121.686 55.8107 120.922L39.4548 120.026L39.37 120.07C35.6792 122.032 32.6692 125.231 30.7864 129.194C28.9035 133.158 28.2481 137.674 28.9172 142.073C28.9754 159.494 38.5829 172.781 35.2235 185.416C35.0826 185.945 35.0415 186.498 35.1027 187.044C35.1638 187.59 35.3259 188.117 35.5792 188.593C35.8249 189.054 36.1548 189.454 36.5487 189.771C36.9426 190.088 37.3922 190.314 37.8696 190.435L59.4662 187.309C59.9707 187.439 60.495 187.452 61.0041 187.345C61.5133 187.238 61.9956 187.014 62.4189 186.689L62.0556 187.408Z" fill="#2F2E41"/>
<path d="M44.9131 113.398C54.8847 113.398 62.9683 104.628 62.9683 93.8099C62.9683 82.9916 54.8847 74.2216 44.9131 74.2216C34.9415 74.2216 26.8579 82.9916 26.8579 93.8099C26.8579 104.628 34.9415 113.398 44.9131 113.398Z" fill="#9F616A"/>
<path d="M39.1621 111.79C40.1214 112.245 42.0858 103.952 41.2059 102.293C39.8972 99.8265 39.9745 99.8442 39.1058 98.2122C38.237 96.5802 38.0426 94.3465 39.1677 92.9105C40.2927 91.4746 42.8961 91.665 43.4096 93.4654C43.0793 90.0458 46.1971 87.2969 49.2853 86.5244C52.3736 85.7519 55.6312 86.2315 58.7365 85.5441C62.3403 84.7463 66.09 81.4689 64.6521 77.1694C64.4053 76.4535 64.0359 75.7948 63.5633 75.2281C61.902 73.2016 59.5782 72.3363 57.306 71.4996C52.5792 69.759 47.723 67.9965 42.7345 68.1887C34.5379 68.5044 26.7901 74.6516 24.0285 83.0302C23.6847 84.0757 23.4184 85.1492 23.2321 86.2406C21.5198 96.2291 26.8662 106.082 35.5498 109.885L39.1621 111.79Z" fill="#2F2E41"/>
<path d="M133.847 143.289L135.918 156.627C135.941 156.776 135.926 156.928 135.874 157.068L119.63 201.102C119.566 201.277 119.449 201.422 119.298 201.514C119.146 201.605 118.971 201.638 118.8 201.606C118.63 201.575 118.474 201.481 118.36 201.34C118.245 201.199 118.179 201.019 118.172 200.832L117.484 183.137C117.479 183.019 117.498 182.902 117.539 182.793L132.4 143.116C132.462 142.951 132.572 142.812 132.713 142.72C132.855 142.629 133.02 142.59 133.184 142.609C133.347 142.629 133.501 142.706 133.62 142.829C133.74 142.951 133.82 143.113 133.847 143.289Z" fill="#3F3D56"/>
<path d="M132.697 144.313L134.664 155.772L120.249 195.954L118.378 183.028L132.697 144.313Z" fill="#6C63FF"/>
<path d="M69.6295 200.897C69.9841 202.4 116.549 204.025 117.032 203.571C117.465 202.989 117.84 202.359 118.152 201.691C118.64 200.746 119.092 199.797 119.092 199.797L118.326 183.82L72.4566 178.502C72.4566 178.502 70.4273 191.835 69.7902 197.96C69.6463 198.931 69.5925 199.915 69.6295 200.897Z" fill="#3F3D56"/>
<path opacity="0.1" d="M112.325 185.511L112.329 199.275L92.041 197.711L92.9387 184.015L112.325 185.511Z" fill="black"/>
<path opacity="0.1" d="M85.8877 187.895L86.0104 187.879L85.0525 193.73L73.7812 192.861L74.1661 186.991L85.8877 187.895Z" fill="black"/>
<path opacity="0.1" d="M69.6295 200.897C69.9841 202.4 116.549 204.025 117.032 203.571C117.465 202.989 117.84 202.359 118.152 201.691L69.7902 197.96C69.6463 198.931 69.5925 199.915 69.6295 200.897Z" fill="black"/>
<path d="M50.9322 177.039L90.2115 184.992C90.3097 185.258 90.4206 185.52 90.5436 185.774C91.0773 186.864 91.8163 187.819 92.7126 188.578C93.6089 189.337 94.6424 189.884 95.7459 190.181C96.8539 190.483 98.0086 190.526 99.1328 190.305C100.257 190.084 101.325 189.605 102.264 188.9C103.967 187.632 105.157 185.706 105.593 183.516C106.028 181.326 105.674 179.038 104.605 177.122C103.535 175.206 101.831 173.806 99.8406 173.209C97.8503 172.613 95.725 172.865 93.9005 173.914C93.5827 174.099 93.2771 174.308 92.986 174.539L58.869 161.894L57.1228 152.352L42.9712 153.367L44.4375 169.364C44.6155 171.231 45.3434 172.986 46.5133 174.368C47.6833 175.751 49.2329 176.687 50.9322 177.039Z" fill="#9F616A"/>
<path d="M42.4915 160.502L63.0548 153.17L58.2581 138.228C57.6211 136.244 56.3582 134.568 54.6924 133.496C53.0267 132.424 51.0654 132.026 49.1552 132.371C47.2228 132.721 45.4693 133.808 44.2113 135.438C42.9533 137.067 42.2738 139.13 42.2954 141.256L42.4915 160.502Z" fill="#2F2E41"/>
<path d="M172.937 300H0.452714C0.332647 300 0.217497 299.948 0.132597 299.856C0.0476962 299.764 0 299.639 0 299.509C0 299.379 0.0476962 299.254 0.132597 299.162C0.217497 299.069 0.332647 299.018 0.452714 299.018H172.937C173.057 299.018 173.172 299.069 173.257 299.162C173.342 299.254 173.39 299.379 173.39 299.509C173.39 299.639 173.342 299.764 173.257 299.856C173.172 299.948 173.057 300 172.937 300Z" fill="#CBCBCB"/>
<path d="M240.032 284.525C248.305 289.17 251.983 299.284 251.983 299.284C251.983 299.284 242.249 301.867 233.976 297.222C225.703 292.577 222.025 282.463 222.025 282.463C222.025 282.463 231.76 279.88 240.032 284.525Z" fill="#F1F1F1"/>
<path d="M237.387 287.871C242.324 296.441 251.913 299.601 251.913 299.601C251.913 299.601 253.498 288.865 248.561 280.295C243.624 271.725 234.035 268.566 234.035 268.566C234.035 268.566 232.45 279.301 237.387 287.871Z" fill="#F1F1F1"/>
<path d="M267.102 299.805H215.492C215.372 299.805 215.257 299.754 215.172 299.661C215.087 299.569 215.04 299.444 215.04 299.314C215.04 299.184 215.087 299.059 215.172 298.967C215.257 298.875 215.372 298.823 215.492 298.823H267.102C267.222 298.823 267.337 298.875 267.422 298.967C267.507 299.059 267.554 299.184 267.554 299.314C267.554 299.444 267.507 299.569 267.422 299.661C267.337 299.754 267.222 299.805 267.102 299.805Z" fill="#CBCBCB"/>
</g>
<defs>
<clipPath id="clip0_80_183">
<rect width="350" height="300" fill="white"/>
</clipPath>
</defs>
</svg>
