<svg width="156" height="27" viewBox="0 0 156 27" fill="none" xmlns="http://www.w3.org/2000/svg">
<path d="M7.84 22L0.664 5.2H5.8L11.848 19.744H8.824L15.016 5.2H19.72L12.52 22H7.84ZM25.0714 11.704H32.8714V15.256H25.0714V11.704ZM25.4074 18.328H34.1914V22H20.7034V5.2H33.8794V8.872H25.4074V18.328ZM36.8284 22V5.2H41.5804V18.232H49.5964V22H36.8284ZM49.6249 22L57.0409 5.2H61.7209L69.1609 22H64.2169L58.4089 7.528H60.2809L54.4729 22H49.6249ZM53.6809 18.736L54.9049 15.232H63.1129L64.3369 18.736H53.6809ZM57.0409 3.832L60.2569 0.183999H64.8169L60.3049 3.832H57.0409ZM76.4121 22.336C75.0361 22.336 73.7081 22.168 72.4281 21.832C71.1641 21.48 70.1321 21.032 69.3321 20.488L70.8921 16.984C71.6441 17.464 72.5081 17.864 73.4841 18.184C74.4761 18.488 75.4601 18.64 76.4361 18.64C77.0921 18.64 77.6201 18.584 78.0201 18.472C78.4201 18.344 78.7081 18.184 78.8841 17.992C79.0761 17.784 79.1721 17.544 79.1721 17.272C79.1721 16.888 78.9961 16.584 78.6441 16.36C78.2921 16.136 77.8361 15.952 77.2761 15.808C76.7161 15.664 76.0921 15.52 75.4041 15.376C74.7321 15.232 74.0521 15.048 73.3641 14.824C72.6921 14.6 72.0761 14.312 71.5161 13.96C70.9561 13.592 70.5001 13.12 70.1481 12.544C69.7961 11.952 69.6201 11.208 69.6201 10.312C69.6201 9.304 69.8921 8.392 70.4361 7.576C70.9961 6.76 71.8281 6.104 72.9321 5.608C74.0361 5.112 75.4121 4.864 77.0601 4.864C78.1641 4.864 79.2441 4.992 80.3001 5.248C81.3721 5.488 82.3241 5.848 83.1561 6.328L81.6921 9.856C80.8921 9.424 80.1001 9.104 79.3161 8.896C78.5321 8.672 77.7721 8.56 77.0361 8.56C76.3801 8.56 75.8521 8.632 75.4521 8.776C75.0521 8.904 74.7641 9.08 74.5881 9.304C74.4121 9.528 74.3241 9.784 74.3241 10.072C74.3241 10.44 74.4921 10.736 74.8281 10.96C75.1801 11.168 75.6361 11.344 76.1961 11.488C76.7721 11.616 77.3961 11.752 78.0681 11.896C78.7561 12.04 79.4361 12.224 80.1081 12.448C80.7961 12.656 81.4201 12.944 81.9801 13.312C82.5401 13.664 82.9881 14.136 83.3241 14.728C83.6761 15.304 83.8521 16.032 83.8521 16.912C83.8521 17.888 83.5721 18.792 83.0121 19.624C82.4681 20.44 81.6441 21.096 80.5401 21.592C79.4521 22.088 78.0761 22.336 76.4121 22.336ZM94.5192 22.336C93.1752 22.336 91.9352 22.12 90.7992 21.688C89.6632 21.256 88.6712 20.648 87.8232 19.864C86.9912 19.064 86.3432 18.136 85.8792 17.08C85.4152 16.024 85.1832 14.864 85.1832 13.6C85.1832 12.336 85.4152 11.176 85.8792 10.12C86.3432 9.064 86.9912 8.144 87.8232 7.36C88.6712 6.56 89.6632 5.944 90.7992 5.512C91.9352 5.08 93.1752 4.864 94.5192 4.864C95.8792 4.864 97.1192 5.08 98.2392 5.512C99.3752 5.944 100.359 6.552 101.191 7.336C102.023 8.12 102.671 9.048 103.135 10.12C103.615 11.176 103.855 12.336 103.855 13.6C103.855 14.864 103.615 16.032 103.135 17.104C102.671 18.16 102.023 19.08 101.191 19.864C100.359 20.648 99.3752 21.256 98.2392 21.688C97.1192 22.12 95.8792 22.336 94.5192 22.336ZM100.015 26.056C99.2952 26.056 98.6232 25.976 97.9992 25.816C97.3752 25.672 96.7592 25.432 96.1512 25.096C95.5592 24.76 94.9352 24.304 94.2792 23.728C93.6392 23.152 92.9192 22.44 92.1192 21.592L97.0872 20.344C97.4872 20.936 97.8472 21.4 98.1672 21.736C98.4872 22.072 98.7992 22.312 99.1032 22.456C99.4232 22.6 99.7592 22.672 100.111 22.672C101.039 22.672 101.887 22.28 102.655 21.496L104.719 23.944C103.551 25.352 101.983 26.056 100.015 26.056ZM94.5192 18.4C95.1592 18.4 95.7512 18.288 96.2952 18.064C96.8552 17.84 97.3352 17.52 97.7352 17.104C98.1512 16.672 98.4712 16.16 98.6952 15.568C98.9352 14.976 99.0552 14.32 99.0552 13.6C99.0552 12.864 98.9352 12.208 98.6952 11.632C98.4712 11.04 98.1512 10.536 97.7352 10.12C97.3352 9.688 96.8552 9.36 96.2952 9.136C95.7512 8.912 95.1592 8.8 94.5192 8.8C93.8792 8.8 93.2792 8.912 92.7192 9.136C92.1752 9.36 91.6952 9.688 91.2792 10.12C90.8792 10.536 90.5592 11.04 90.3192 11.632C90.0952 12.208 89.9832 12.864 89.9832 13.6C89.9832 14.32 90.0952 14.976 90.3192 15.568C90.5592 16.16 90.8792 16.672 91.2792 17.104C91.6952 17.52 92.1752 17.84 92.7192 18.064C93.2792 18.288 93.8792 18.4 94.5192 18.4ZM114.096 22.336C111.616 22.336 109.68 21.656 108.288 20.296C106.896 18.936 106.2 17.008 106.2 14.512V5.2H110.952V14.368C110.952 15.808 111.232 16.84 111.792 17.464C112.368 18.088 113.152 18.4 114.144 18.4C115.136 18.4 115.912 18.088 116.472 17.464C117.032 16.84 117.312 15.808 117.312 14.368V5.2H121.992V14.512C121.992 17.008 121.296 18.936 119.904 20.296C118.512 21.656 116.576 22.336 114.096 22.336ZM129.579 11.704H137.379V15.256H129.579V11.704ZM129.915 18.328H138.699V22H125.211V5.2H138.387V8.872H129.915V18.328ZM140.496 22V19.024L150.384 7.288L150.96 8.968H140.712V5.2H155.184V8.176L145.296 19.912L144.72 18.232H155.544V22H140.496Z" fill="#D4AF37"/>
</svg>
